<?xml version="1.0" encoding="UTF-8" standalone="no"?>
<!DOCTYPE svg PUBLIC "-//W3C//DTD SVG 1.1//EN"
 "http://www.w3.org/Graphics/SVG/1.1/DTD/svg11.dtd">
<!-- Generated by graphviz version 2.44.0 (0)
 -->
<!-- Title: cache_req_fsm Pages: 1 -->
<svg width="1167pt" height="1349pt"
 viewBox="18.00 18.00 1149.00 1331.00" xmlns="http://www.w3.org/2000/svg" xmlns:xlink="http://www.w3.org/1999/xlink">
<g id="graph0" class="graph" transform="scale(1 1) rotate(0) translate(22 1327)">
<title>cache_req_fsm</title>
<polygon fill="white" stroke="transparent" points="-4,4 -4,-1309 1127,-1309 1127,4 -4,4"/>
<g id="clust3" class="cluster">
<title>cluster_backend</title>
<polygon fill="aliceblue" stroke="aliceblue" points="219.5,-299 219.5,-408 549.5,-408 549.5,-299 219.5,-299"/>
</g>
<!-- acceptor -->
<g id="node1" class="node">
<title>acceptor</title>
<polygon fill="none" stroke="black" points="912.13,-1208.5 860.82,-1226.5 758.18,-1226.5 706.87,-1208.5 758.18,-1190.5 860.82,-1190.5 912.13,-1208.5"/>
<text text-anchor="middle" x="809.5" y="-1204.8" font-family="Times-Roman" font-size="14.00">Request received</text>
</g>
<!-- recv -->
<g id="node5" class="node">
<title>recv</title>
<polygon fill="none" stroke="black" points="515.5,-1078.5 515.5,-1147.5 911.5,-1147.5 911.5,-1078.5 515.5,-1078.5"/>
<text text-anchor="middle" x="713.5" y="-1132.3" font-family="Times-Roman" font-size="14.00">cnt_recv:</text>
<polyline fill="none" stroke="black" points="515.5,-1124.5 911.5,-1124.5 "/>
<text text-anchor="middle" x="624.5" y="-1109.3" font-family="Times-Roman" font-size="14.00">vcl_recv{}</text>
<polyline fill="none" stroke="black" points="733.5,-1101.5 733.5,-1124.5 "/>
<text text-anchor="middle" x="822.5" y="-1109.3" font-family="Times-Roman" font-size="14.00">req.*</text>
<polyline fill="none" stroke="black" points="515.5,-1101.5 911.5,-1101.5 "/>
<text text-anchor="middle" x="534.5" y="-1086.3" font-family="Times-Roman" font-size="14.00">fail</text>
<polyline fill="none" stroke="black" points="553.5,-1078.5 553.5,-1101.5 "/>
<text text-anchor="middle" x="578.5" y="-1086.3" font-family="Times-Roman" font-size="14.00">hash</text>
<polyline fill="none" stroke="black" points="603.5,-1078.5 603.5,-1101.5 "/>
<text text-anchor="middle" x="632.5" y="-1086.3" font-family="Times-Roman" font-size="14.00">purge</text>
<polyline fill="none" stroke="black" points="661.5,-1078.5 661.5,-1101.5 "/>
<text text-anchor="middle" x="686" y="-1086.3" font-family="Times-Roman" font-size="14.00">pass</text>
<polyline fill="none" stroke="black" points="710.5,-1078.5 710.5,-1101.5 "/>
<text text-anchor="middle" x="734" y="-1086.3" font-family="Times-Roman" font-size="14.00">pipe</text>
<polyline fill="none" stroke="black" points="757.5,-1078.5 757.5,-1101.5 "/>
<text text-anchor="middle" x="788.5" y="-1086.3" font-family="Times-Roman" font-size="14.00">restart</text>
<polyline fill="none" stroke="black" points="819.5,-1078.5 819.5,-1101.5 "/>
<text text-anchor="middle" x="847.5" y="-1086.3" font-family="Times-Roman" font-size="14.00">synth</text>
<polyline fill="none" stroke="black" points="875.5,-1078.5 875.5,-1101.5 "/>
<text text-anchor="middle" x="893.5" y="-1086.3" font-family="Times-Roman" font-size="14.00">vcl</text>
</g>
<!-- acceptor&#45;&gt;recv -->
<g id="edge2" class="edge">
<title>acceptor&#45;&gt;recv</title>
<path fill="none" stroke="black" stroke-width="2" d="M791.89,-1190.35C781.67,-1180.39 768.31,-1167.39 755.53,-1154.94"/>
<polygon fill="black" stroke="black" stroke-width="2" points="757.71,-1152.17 748.1,-1147.7 752.82,-1157.19 757.71,-1152.17"/>
</g>
<!-- label_select -->
<g id="node2" class="node">
<title>label_select</title>
<polygon fill="none" stroke="black" points="526.06,-1208.5 503.28,-1226.5 457.72,-1226.5 434.94,-1208.5 457.72,-1190.5 503.28,-1190.5 526.06,-1208.5"/>
<text text-anchor="middle" x="480.5" y="-1204.8" font-family="Times-Roman" font-size="14.00">LABEL</text>
</g>
<!-- label_select&#45;&gt;recv -->
<g id="edge3" class="edge">
<title>label_select&#45;&gt;recv</title>
<path fill="none" stroke="black" stroke-width="2" d="M509.88,-1195.43C518.16,-1192.04 527.18,-1188.36 535.5,-1185 562.68,-1174.02 592.24,-1162.19 619.32,-1151.39"/>
<polygon fill="black" stroke="black" stroke-width="2" points="620.79,-1154.57 628.78,-1147.62 618.2,-1148.07 620.79,-1154.57"/>
</g>
<!-- ESI_REQ -->
<g id="node3" class="node">
<title>ESI_REQ</title>
<polygon fill="none" stroke="black" points="688.59,-1208.5 652.55,-1226.5 580.45,-1226.5 544.41,-1208.5 580.45,-1190.5 652.55,-1190.5 688.59,-1208.5"/>
<text text-anchor="middle" x="616.5" y="-1204.8" font-family="Times-Roman" font-size="14.00">ESI request</text>
</g>
<!-- ESI_REQ&#45;&gt;recv -->
<g id="edge1" class="edge">
<title>ESI_REQ&#45;&gt;recv</title>
<path fill="none" stroke="black" d="M634.29,-1190.35C644.62,-1180.39 658.12,-1167.39 671.03,-1154.94"/>
<polygon fill="black" stroke="black" points="673.77,-1157.16 678.54,-1147.7 668.91,-1152.12 673.77,-1157.16"/>
</g>
<!-- RESTART -->
<g id="node4" class="node">
<title>RESTART</title>
<text text-anchor="middle" x="1026.5" y="-1283.3" font-family="Times-Roman" font-size="14.00">RESTART</text>
</g>
<!-- restart -->
<g id="node24" class="node">
<title>restart</title>
<polygon fill="none" stroke="grey" points="930,-1185.5 930,-1231.5 1123,-1231.5 1123,-1185.5 930,-1185.5"/>
<text text-anchor="middle" x="1026.5" y="-1216.3" font-family="Times-Roman" font-size="14.00" fill="grey">cnt_restart:</text>
<polyline fill="none" stroke="grey" points="930,-1208.5 1123,-1208.5 "/>
<text text-anchor="middle" x="949" y="-1193.3" font-family="Times-Roman" font-size="14.00" fill="grey">fail</text>
<polyline fill="none" stroke="grey" points="968,-1185.5 968,-1208.5 "/>
<text text-anchor="middle" x="988.5" y="-1193.3" font-family="Times-Roman" font-size="14.00" fill="grey">ok?</text>
<polyline fill="none" stroke="grey" points="1009,-1185.5 1009,-1208.5 "/>
<text text-anchor="middle" x="1066" y="-1193.3" font-family="Times-Roman" font-size="14.00" fill="grey">max_restarts?</text>
</g>
<!-- RESTART&#45;&gt;restart -->
<g id="edge30" class="edge">
<title>RESTART&#45;&gt;restart</title>
<path fill="none" stroke="purple" d="M1026.5,-1268.64C1026.5,-1260.7 1026.5,-1251.02 1026.5,-1241.81"/>
<polygon fill="purple" stroke="purple" points="1030,-1241.74 1026.5,-1231.74 1023,-1241.74 1030,-1241.74"/>
</g>
<!-- hash -->
<g id="node26" class="node">
<title>hash</title>
<polygon fill="none" stroke="black" points="574,-971.5 574,-1040.5 719,-1040.5 719,-971.5 574,-971.5"/>
<text text-anchor="middle" x="646.5" y="-1025.3" font-family="Times-Roman" font-size="14.00">cnt_recv:</text>
<polyline fill="none" stroke="black" points="574,-1017.5 719,-1017.5 "/>
<text text-anchor="middle" x="621.5" y="-1002.3" font-family="Times-Roman" font-size="14.00">vcl_hash{}</text>
<polyline fill="none" stroke="black" points="669,-994.5 669,-1017.5 "/>
<text text-anchor="middle" x="694" y="-1002.3" font-family="Times-Roman" font-size="14.00">req.*</text>
<polyline fill="none" stroke="black" points="574,-994.5 719,-994.5 "/>
<text text-anchor="middle" x="604" y="-979.3" font-family="Times-Roman" font-size="14.00">fail</text>
<polyline fill="none" stroke="black" points="634,-971.5 634,-994.5 "/>
<text text-anchor="middle" x="676.5" y="-979.3" font-family="Times-Roman" font-size="14.00">lookup</text>
</g>
<!-- recv&#45;&gt;hash -->
<g id="edge33" class="edge">
<title>recv:hash&#45;&gt;hash</title>
<path fill="none" stroke="green" stroke-width="2" d="M578.5,-1078C578.5,-1067.02 582.79,-1057.08 589.22,-1048.35"/>
<polygon fill="green" stroke="green" stroke-width="2" points="591.91,-1050.58 595.66,-1040.67 586.55,-1046.08 591.91,-1050.58"/>
</g>
<!-- recv&#45;&gt;hash -->
<g id="edge35" class="edge">
<title>recv:pipe&#45;&gt;hash</title>
<path fill="none" stroke="orange" stroke-width="2" d="M734.5,-1078C734.5,-1066.58 729.95,-1056.68 722.93,-1048.2"/>
<polygon fill="orange" stroke="orange" stroke-width="2" points="725.29,-1045.61 715.84,-1040.82 720.24,-1050.45 725.29,-1045.61"/>
</g>
<!-- recv&#45;&gt;hash -->
<g id="edge36" class="edge">
<title>recv:pass&#45;&gt;hash</title>
<path fill="none" stroke="red" stroke-width="2" d="M685.5,-1078C685.5,-1068.29 682.66,-1058.66 678.52,-1049.76"/>
<polygon fill="red" stroke="red" stroke-width="2" points="681.55,-1048.01 673.8,-1040.79 675.36,-1051.27 681.55,-1048.01"/>
</g>
<!-- recv&#45;&gt;hash -->
<g id="edge41" class="edge">
<title>recv:s&#45;&gt;hash</title>
<path fill="none" stroke="purple" stroke-width="2" d="M632.5,-1078C632.5,-1069.05 633.58,-1059.59 635.15,-1050.59"/>
<polygon fill="purple" stroke="purple" stroke-width="2" points="638.6,-1051.17 637.08,-1040.68 631.73,-1049.82 638.6,-1051.17"/>
</g>
<!-- vcl_label -->
<g id="node29" class="node">
<title>vcl_label</title>
<text text-anchor="middle" x="893.5" y="-1009.8" font-family="Times-Roman" font-size="14.00">switch to vcl</text>
<text text-anchor="middle" x="893.5" y="-994.8" font-family="Times-Roman" font-size="14.00">LABEL</text>
</g>
<!-- recv&#45;&gt;vcl_label -->
<g id="edge42" class="edge">
<title>recv:s&#45;&gt;vcl_label</title>
<path fill="none" stroke="black" d="M893.5,-1078C893.5,-1063.94 893.5,-1048.31 893.5,-1035.31"/>
<polygon fill="black" stroke="black" points="897,-1035.09 893.5,-1025.09 890,-1035.09 897,-1035.09"/>
</g>
<!-- SYNTH -->
<g id="node6" class="node">
<title>SYNTH</title>
<text text-anchor="middle" x="653.5" y="-313.3" font-family="Times-Roman" font-size="14.00">SYNTH</text>
</g>
<!-- synth -->
<g id="node12" class="node">
<title>synth</title>
<polygon fill="none" stroke="black" points="488.5,-158 488.5,-250 652.5,-250 652.5,-158 488.5,-158"/>
<text text-anchor="middle" x="570.5" y="-234.8" font-family="Times-Roman" font-size="14.00">cnt_synth:</text>
<polyline fill="none" stroke="black" points="488.5,-227 652.5,-227 "/>
<text text-anchor="middle" x="540" y="-200.3" font-family="Times-Roman" font-size="14.00">vcl_synth{}</text>
<polyline fill="none" stroke="black" points="591.5,-181 591.5,-227 "/>
<text text-anchor="middle" x="622" y="-211.8" font-family="Times-Roman" font-size="14.00">req.*</text>
<polyline fill="none" stroke="black" points="591.5,-204 652.5,-204 "/>
<text text-anchor="middle" x="622" y="-188.8" font-family="Times-Roman" font-size="14.00">resp.*</text>
<polyline fill="none" stroke="black" points="488.5,-181 652.5,-181 "/>
<text text-anchor="middle" x="507.5" y="-165.8" font-family="Times-Roman" font-size="14.00">fail</text>
<polyline fill="none" stroke="black" points="526.5,-158 526.5,-181 "/>
<text text-anchor="middle" x="558.5" y="-165.8" font-family="Times-Roman" font-size="14.00">deliver</text>
<polyline fill="none" stroke="black" points="590.5,-158 590.5,-181 "/>
<text text-anchor="middle" x="621.5" y="-165.8" font-family="Times-Roman" font-size="14.00">restart</text>
</g>
<!-- SYNTH&#45;&gt;synth -->
<g id="edge10" class="edge">
<title>SYNTH&#45;&gt;synth</title>
<path fill="none" stroke="purple" d="M640.53,-298.66C632.38,-287.75 621.37,-273.03 610.5,-258.5"/>
<polygon fill="purple" stroke="purple" points="613.29,-256.38 604.5,-250.47 607.68,-260.57 613.29,-256.38"/>
</g>
<!-- FAIL -->
<g id="node7" class="node">
<title>FAIL</title>
<text text-anchor="middle" x="576.5" y="-313.3" font-family="Times-Roman" font-size="14.00">FAIL</text>
</g>
<!-- FAIL&#45;&gt;synth -->
<g id="edge9" class="edge">
<title>FAIL&#45;&gt;synth</title>
<path fill="none" stroke="purple" d="M575.56,-298.66C575,-288.25 574.25,-274.39 573.5,-260.52"/>
<polygon fill="purple" stroke="purple" points="576.99,-260.26 572.96,-250.47 570,-260.64 576.99,-260.26"/>
</g>
<!-- deliver -->
<g id="node8" class="node">
<title>deliver</title>
<polygon fill="none" stroke="black" points="243.5,-146.5 243.5,-261.5 463.5,-261.5 463.5,-146.5 243.5,-146.5"/>
<text text-anchor="middle" x="353.5" y="-246.3" font-family="Times-Roman" font-size="14.00">cnt_deliver:</text>
<polyline fill="none" stroke="black" points="243.5,-238.5 463.5,-238.5 "/>
<text text-anchor="middle" x="353.5" y="-223.3" font-family="Times-Roman" font-size="14.00">Filter obj.&#45;&gt;resp.</text>
<polyline fill="none" stroke="black" points="243.5,-215.5 463.5,-215.5 "/>
<text text-anchor="middle" x="311" y="-188.8" font-family="Times-Roman" font-size="14.00">vcl_deliver{}</text>
<polyline fill="none" stroke="black" points="378.5,-169.5 378.5,-215.5 "/>
<text text-anchor="middle" x="421" y="-200.3" font-family="Times-Roman" font-size="14.00">req.*</text>
<polyline fill="none" stroke="black" points="378.5,-192.5 463.5,-192.5 "/>
<text text-anchor="middle" x="421" y="-177.3" font-family="Times-Roman" font-size="14.00">resp.*</text>
<polyline fill="none" stroke="black" points="243.5,-169.5 463.5,-169.5 "/>
<text text-anchor="middle" x="262.5" y="-154.3" font-family="Times-Roman" font-size="14.00">fail</text>
<polyline fill="none" stroke="black" points="281.5,-146.5 281.5,-169.5 "/>
<text text-anchor="middle" x="312.5" y="-154.3" font-family="Times-Roman" font-size="14.00">restart</text>
<polyline fill="none" stroke="black" points="343.5,-146.5 343.5,-169.5 "/>
<text text-anchor="middle" x="375.5" y="-154.3" font-family="Times-Roman" font-size="14.00">deliver</text>
<polyline fill="none" stroke="black" points="407.5,-146.5 407.5,-169.5 "/>
<text text-anchor="middle" x="435.5" y="-154.3" font-family="Times-Roman" font-size="14.00">synth</text>
</g>
<!-- V1D_Deliver -->
<g id="node9" class="node">
<title>V1D_Deliver</title>
<ellipse fill="none" stroke="black" cx="375.5" cy="-91" rx="65.79" ry="18"/>
<text text-anchor="middle" x="375.5" y="-87.3" font-family="Times-Roman" font-size="14.00">V1D_Deliver</text>
</g>
<!-- deliver&#45;&gt;V1D_Deliver -->
<g id="edge4" class="edge">
<title>deliver:s&#45;&gt;V1D_Deliver</title>
<path fill="none" stroke="green" stroke-width="2" d="M375.5,-146C368.97,-137.3 364.81,-127.81 363.02,-119.25"/>
<polygon fill="green" stroke="green" stroke-width="2" points="366.48,-118.63 362.01,-109.02 359.51,-119.32 366.48,-118.63"/>
</g>
<!-- deliver&#45;&gt;V1D_Deliver -->
<g id="edge5" class="edge">
<title>deliver:s&#45;&gt;V1D_Deliver</title>
<path fill="none" stroke="red" stroke-width="2" d="M375.5,-146C375.5,-137.3 375.5,-127.81 375.5,-119.25"/>
<polygon fill="red" stroke="red" stroke-width="2" points="379,-119.02 375.5,-109.02 372,-119.02 379,-119.02"/>
</g>
<!-- deliver&#45;&gt;V1D_Deliver -->
<g id="edge6" class="edge">
<title>deliver:s&#45;&gt;V1D_Deliver</title>
<path fill="none" stroke="blue" stroke-width="2" d="M375.5,-146C382.03,-137.3 386.19,-127.81 387.98,-119.25"/>
<polygon fill="blue" stroke="blue" stroke-width="2" points="391.49,-119.32 388.99,-109.02 384.52,-118.63 391.49,-119.32"/>
</g>
<!-- DONE -->
<g id="node11" class="node">
<title>DONE</title>
<ellipse fill="none" stroke="black" cx="591.5" cy="-18" rx="37.89" ry="18"/>
<text text-anchor="middle" x="591.5" y="-14.3" font-family="Times-Roman" font-size="14.00">DONE</text>
</g>
<!-- V1D_Deliver&#45;&gt;DONE -->
<g id="edge8" class="edge">
<title>V1D_Deliver&#45;&gt;DONE</title>
<path fill="none" stroke="black" d="M415.87,-76.73C454.66,-63.98 512.91,-44.83 551.55,-32.13"/>
<polygon fill="black" stroke="black" points="553,-35.34 561.41,-28.89 550.82,-28.69 553,-35.34"/>
</g>
<!-- stream -->
<g id="node10" class="node">
<title>stream</title>
<ellipse fill="turquoise" stroke="turquoise" cx="174.5" cy="-204" rx="50.82" ry="26.74"/>
<text text-anchor="middle" x="174.5" y="-207.8" font-family="Times-Roman" font-size="14.00">stream?</text>
<text text-anchor="middle" x="174.5" y="-192.8" font-family="Times-Roman" font-size="14.00">body</text>
</g>
<!-- stream&#45;&gt;V1D_Deliver -->
<g id="edge7" class="edge">
<title>stream&#45;&gt;V1D_Deliver</title>
<path fill="none" stroke="black" stroke-dasharray="1,5" d="M195.23,-179.34C206.06,-168.08 220.04,-155.12 234.5,-146 261.06,-129.25 293.63,-116.35 320.78,-107.37"/>
<polygon fill="black" stroke="black" points="322.07,-110.63 330.52,-104.23 319.92,-103.97 322.07,-110.63"/>
</g>
<!-- synth&#45;&gt;V1D_Deliver -->
<g id="edge11" class="edge">
<title>synth:s&#45;&gt;V1D_Deliver</title>
<path fill="none" stroke="purple" d="M558.5,-157C558.5,-131.26 493.42,-113.11 440.88,-102.64"/>
<polygon fill="purple" stroke="purple" points="441.38,-99.18 430.9,-100.72 440.06,-106.05 441.38,-99.18"/>
</g>
<!-- see backend graph -->
<g id="node13" class="node">
<title>see backend graph</title>
<text text-anchor="middle" x="474.5" y="-386.3" font-family="Times-Roman" font-size="14.00">see backend graph</text>
</g>
<!-- BGFETCH -->
<g id="node14" class="node">
<title>BGFETCH</title>
<polygon fill="turquoise" stroke="turquoise" points="301.5,-408 219.5,-408 219.5,-372 301.5,-372 301.5,-408"/>
<text text-anchor="middle" x="260.5" y="-386.3" font-family="Times-Roman" font-size="14.00">BGFETCH</text>
</g>
<!-- FETCH -->
<g id="node15" class="node">
<title>FETCH</title>
<polygon fill="turquoise" stroke="turquoise" points="381.5,-408 319.5,-408 319.5,-372 381.5,-372 381.5,-408"/>
<text text-anchor="middle" x="350.5" y="-386.3" font-family="Times-Roman" font-size="14.00">FETCH</text>
</g>
<!-- FETCH_DONE -->
<g id="node16" class="node">
<title>FETCH_DONE</title>
<polygon fill="turquoise" stroke="turquoise" points="408.5,-335 298.5,-335 298.5,-299 408.5,-299 408.5,-335"/>
<text text-anchor="middle" x="353.5" y="-313.3" font-family="Times-Roman" font-size="14.00">FETCH_DONE</text>
</g>
<!-- FETCH&#45;&gt;FETCH_DONE -->
<g id="edge16" class="edge">
<title>FETCH&#45;&gt;FETCH_DONE</title>
<path fill="none" stroke="black" stroke-dasharray="1,5" d="M351.23,-371.81C351.57,-363.79 351.98,-354.05 352.36,-345.07"/>
<polygon fill="black" stroke="black" points="355.86,-345.17 352.78,-335.03 348.86,-344.87 355.86,-345.17"/>
</g>
<!-- FETCH_FAIL -->
<g id="node17" class="node">
<title>FETCH_FAIL</title>
<polygon fill="turquoise" stroke="turquoise" points="526,-335 429,-335 429,-299 526,-299 526,-335"/>
<text text-anchor="middle" x="477.5" y="-313.3" font-family="Times-Roman" font-size="14.00">FETCH_FAIL</text>
</g>
<!-- FETCH&#45;&gt;FETCH_FAIL -->
<g id="edge17" class="edge">
<title>FETCH&#45;&gt;FETCH_FAIL</title>
<path fill="none" stroke="black" stroke-dasharray="1,5" d="M380.92,-371.99C398.07,-362.4 419.69,-350.32 438.13,-340.01"/>
<polygon fill="black" stroke="black" points="439.87,-343.05 446.89,-335.11 436.45,-336.94 439.87,-343.05"/>
</g>
<!-- FETCH_DONE&#45;&gt;deliver -->
<g id="edge14" class="edge">
<title>FETCH_DONE&#45;&gt;deliver</title>
<path fill="none" stroke="red" stroke-width="2" d="M348.44,-298.66C347.62,-291.06 347.1,-281.63 346.87,-271.69"/>
<polygon fill="red" stroke="red" stroke-width="2" points="350.37,-271.59 346.75,-261.64 343.37,-271.68 350.37,-271.59"/>
</g>
<!-- FETCH_DONE&#45;&gt;deliver -->
<g id="edge15" class="edge">
<title>FETCH_DONE&#45;&gt;deliver</title>
<path fill="none" stroke="blue" stroke-width="2" d="M358.56,-298.66C359.38,-291.06 359.9,-281.63 360.13,-271.69"/>
<polygon fill="blue" stroke="blue" stroke-width="2" points="363.63,-271.68 360.25,-261.64 356.63,-271.59 363.63,-271.68"/>
</g>
<!-- FETCH_FAIL&#45;&gt;synth -->
<g id="edge13" class="edge">
<title>FETCH_FAIL&#45;&gt;synth</title>
<path fill="none" stroke="purple" d="M492.03,-298.66C501.17,-287.75 513.5,-273.03 525.68,-258.5"/>
<polygon fill="purple" stroke="purple" points="528.67,-260.38 532.41,-250.47 523.3,-255.89 528.67,-260.38"/>
</g>
<!-- hit -->
<g id="node18" class="node">
<title>hit</title>
<polygon fill="none" stroke="black" points="0,-552.5 0,-644.5 269,-644.5 269,-552.5 0,-552.5"/>
<text text-anchor="middle" x="134.5" y="-629.3" font-family="Times-Roman" font-size="14.00">cnt_lookup:</text>
<polyline fill="none" stroke="black" points="0,-621.5 269,-621.5 "/>
<text text-anchor="middle" x="74.5" y="-594.8" font-family="Times-Roman" font-size="14.00">vcl_hit{}</text>
<polyline fill="none" stroke="black" points="149,-575.5 149,-621.5 "/>
<text text-anchor="middle" x="209" y="-606.3" font-family="Times-Roman" font-size="14.00">req.*</text>
<polyline fill="none" stroke="black" points="149,-598.5 269,-598.5 "/>
<text text-anchor="middle" x="209" y="-583.3" font-family="Times-Roman" font-size="14.00">obj.*</text>
<polyline fill="none" stroke="black" points="0,-575.5 269,-575.5 "/>
<text text-anchor="middle" x="19" y="-560.3" font-family="Times-Roman" font-size="14.00">fail</text>
<polyline fill="none" stroke="black" points="38,-552.5 38,-575.5 "/>
<text text-anchor="middle" x="70" y="-560.3" font-family="Times-Roman" font-size="14.00">deliver</text>
<polyline fill="none" stroke="black" points="102,-552.5 102,-575.5 "/>
<text text-anchor="middle" x="126.5" y="-560.3" font-family="Times-Roman" font-size="14.00">pass</text>
<polyline fill="none" stroke="black" points="151,-552.5 151,-575.5 "/>
<text text-anchor="middle" x="182" y="-560.3" font-family="Times-Roman" font-size="14.00">restart</text>
<polyline fill="none" stroke="black" points="213,-552.5 213,-575.5 "/>
<text text-anchor="middle" x="241" y="-560.3" font-family="Times-Roman" font-size="14.00">synth</text>
</g>
<!-- hit&#45;&gt;deliver -->
<g id="edge23" class="edge">
<title>hit:s&#45;&gt;deliver:n</title>
<path fill="none" stroke="green" stroke-width="2" d="M69.5,-552C69.5,-517.91 98.5,-515.09 98.5,-481 98.5,-481 98.5,-481 98.5,-316 98.5,-261.81 321.69,-312.45 350.46,-271.77"/>
<polygon fill="green" stroke="green" stroke-width="2" points="353.87,-272.59 353.5,-262 347.19,-270.51 353.87,-272.59"/>
</g>
<!-- hit&#45;&gt;BGFETCH -->
<g id="edge12" class="edge">
<title>hit:s&#45;&gt;BGFETCH</title>
<path fill="none" stroke="green" d="M69.5,-552C69.5,-531.28 95.2,-545.39 112.5,-534 164,-500.09 213.32,-446.91 240,-415.86"/>
<polygon fill="green" stroke="green" points="242.79,-417.98 246.59,-408.09 237.45,-413.45 242.79,-417.98"/>
<text text-anchor="middle" x="258" y="-483.8" font-family="Times-Roman" font-size="14.00">parallel</text>
<text text-anchor="middle" x="258" y="-468.8" font-family="Times-Roman" font-size="14.00">if obj expired</text>
</g>
<!-- pass -->
<g id="node21" class="node">
<title>pass</title>
<polygon fill="none" stroke="black" points="415.5,-445.5 415.5,-514.5 623.5,-514.5 623.5,-445.5 415.5,-445.5"/>
<text text-anchor="middle" x="519.5" y="-499.3" font-family="Times-Roman" font-size="14.00">cnt_pass:</text>
<polyline fill="none" stroke="black" points="415.5,-491.5 623.5,-491.5 "/>
<text text-anchor="middle" x="478" y="-476.3" font-family="Times-Roman" font-size="14.00">vcl_pass{}</text>
<polyline fill="none" stroke="black" points="540.5,-468.5 540.5,-491.5 "/>
<text text-anchor="middle" x="582" y="-476.3" font-family="Times-Roman" font-size="14.00">req.*</text>
<polyline fill="none" stroke="black" points="415.5,-468.5 623.5,-468.5 "/>
<text text-anchor="middle" x="434.5" y="-453.3" font-family="Times-Roman" font-size="14.00">fail</text>
<polyline fill="none" stroke="black" points="453.5,-445.5 453.5,-468.5 "/>
<text text-anchor="middle" x="479.5" y="-453.3" font-family="Times-Roman" font-size="14.00">fetch</text>
<polyline fill="none" stroke="black" points="505.5,-445.5 505.5,-468.5 "/>
<text text-anchor="middle" x="533.5" y="-453.3" font-family="Times-Roman" font-size="14.00">synth</text>
<polyline fill="none" stroke="black" points="561.5,-445.5 561.5,-468.5 "/>
<text text-anchor="middle" x="592.5" y="-453.3" font-family="Times-Roman" font-size="14.00">restart</text>
</g>
<!-- hit&#45;&gt;pass -->
<g id="edge24" class="edge">
<title>hit:s&#45;&gt;pass</title>
<path fill="none" stroke="red" stroke-width="2" d="M126.5,-552C126.5,-550.21 289.41,-521.3 405.45,-500.92"/>
<polygon fill="red" stroke="red" stroke-width="2" points="406.23,-504.34 415.47,-499.17 405.02,-497.45 406.23,-504.34"/>
</g>
<!-- _lookup -->
<g id="node19" class="node">
<title>_lookup</title>
<polygon fill="none" stroke="grey" points="231.5,-711.5 231.5,-780.5 593.5,-780.5 593.5,-711.5 231.5,-711.5"/>
<text text-anchor="middle" x="412.5" y="-765.3" font-family="Times-Roman" font-size="14.00" fill="grey">cnt_lookup:</text>
<polyline fill="none" stroke="grey" points="231.5,-757.5 593.5,-757.5 "/>
<text text-anchor="middle" x="412.5" y="-742.3" font-family="Times-Roman" font-size="14.00" fill="grey">hash lookup</text>
<polyline fill="none" stroke="grey" points="231.5,-734.5 593.5,-734.5 "/>
<text text-anchor="middle" x="252.5" y="-719.3" font-family="Times-Roman" font-size="14.00" fill="grey">hit?</text>
<polyline fill="none" stroke="grey" points="273.5,-711.5 273.5,-734.5 "/>
<text text-anchor="middle" x="301.5" y="-719.3" font-family="Times-Roman" font-size="14.00" fill="grey">miss?</text>
<polyline fill="none" stroke="grey" points="329.5,-711.5 329.5,-734.5 "/>
<text text-anchor="middle" x="381" y="-719.3" font-family="Times-Roman" font-size="14.00" fill="grey">hit&#45;for&#45;miss?</text>
<polyline fill="none" stroke="grey" points="432.5,-711.5 432.5,-734.5 "/>
<text text-anchor="middle" x="484" y="-719.3" font-family="Times-Roman" font-size="14.00" fill="grey">hit&#45;for&#45;pass?</text>
<polyline fill="none" stroke="grey" points="535.5,-711.5 535.5,-734.5 "/>
<text text-anchor="middle" x="564.5" y="-719.3" font-family="Times-Roman" font-size="14.00" fill="grey">busy?</text>
</g>
<!-- _lookup&#45;&gt;hit -->
<g id="edge22" class="edge">
<title>_lookup:s&#45;&gt;hit</title>
<path fill="none" stroke="green" stroke-width="2" d="M252.5,-711C252.5,-687.57 240.06,-667.6 223.26,-651.31"/>
<polygon fill="green" stroke="green" stroke-width="2" points="225.57,-648.69 215.81,-644.56 220.87,-653.87 225.57,-648.69"/>
</g>
<!-- _lookup&#45;&gt;_lookup -->
<g id="edge18" class="edge">
<title>_lookup:s&#45;&gt;_lookup:ne</title>
<path fill="none" stroke="grey" d="M564.5,-711C599.5,-698 611.5,-698 611.5,-746 611.5,-779 605.83,-789.31 600.33,-788.31"/>
<polygon fill="grey" stroke="grey" points="602.89,-785.92 593.5,-781 597.77,-790.7 602.89,-785.92"/>
<text text-anchor="middle" x="649.5" y="-742.3" font-family="Times-Roman" font-size="14.00" fill="grey"> waitinglist</text>
</g>
<!-- miss -->
<g id="node20" class="node">
<title>miss</title>
<polygon fill="none" stroke="black" points="287,-564 287,-633 544,-633 544,-564 287,-564"/>
<text text-anchor="middle" x="415.5" y="-617.8" font-family="Times-Roman" font-size="14.00">cnt_miss:</text>
<polyline fill="none" stroke="black" points="287,-610 544,-610 "/>
<text text-anchor="middle" x="362" y="-594.8" font-family="Times-Roman" font-size="14.00">vcl_miss{}</text>
<polyline fill="none" stroke="black" points="437,-587 437,-610 "/>
<text text-anchor="middle" x="490.5" y="-594.8" font-family="Times-Roman" font-size="14.00">req.*</text>
<polyline fill="none" stroke="black" points="287,-587 544,-587 "/>
<text text-anchor="middle" x="306" y="-571.8" font-family="Times-Roman" font-size="14.00">fail</text>
<polyline fill="none" stroke="black" points="325,-564 325,-587 "/>
<text text-anchor="middle" x="351" y="-571.8" font-family="Times-Roman" font-size="14.00">fetch</text>
<polyline fill="none" stroke="black" points="377,-564 377,-587 "/>
<text text-anchor="middle" x="405" y="-571.8" font-family="Times-Roman" font-size="14.00">synth</text>
<polyline fill="none" stroke="black" points="433,-564 433,-587 "/>
<text text-anchor="middle" x="464" y="-571.8" font-family="Times-Roman" font-size="14.00">restart</text>
<polyline fill="none" stroke="black" points="495,-564 495,-587 "/>
<text text-anchor="middle" x="519.5" y="-571.8" font-family="Times-Roman" font-size="14.00">pass</text>
</g>
<!-- _lookup&#45;&gt;miss -->
<g id="edge19" class="edge">
<title>_lookup:s&#45;&gt;miss</title>
<path fill="none" stroke="blue" stroke-width="2" d="M301.5,-711C301.5,-681.65 321.05,-657.49 343.95,-639.26"/>
<polygon fill="blue" stroke="blue" stroke-width="2" points="346.29,-641.87 352.17,-633.05 342.08,-636.29 346.29,-641.87"/>
</g>
<!-- _lookup&#45;&gt;miss -->
<g id="edge20" class="edge">
<title>_lookup:s&#45;&gt;miss</title>
<path fill="none" stroke="blue" stroke-width="2" d="M380.5,-711C380.5,-687.81 387.48,-663.1 395.2,-642.85"/>
<polygon fill="blue" stroke="blue" stroke-width="2" points="398.56,-643.88 399.02,-633.3 392.06,-641.28 398.56,-643.88"/>
<text text-anchor="middle" x="424" y="-681.8" font-family="Times-Roman" font-size="14.00"> req.</text>
<text text-anchor="middle" x="424" y="-666.8" font-family="Times-Roman" font-size="14.00"> is_hitmiss</text>
</g>
<!-- _lookup&#45;&gt;pass -->
<g id="edge21" class="edge">
<title>_lookup:s&#45;&gt;pass</title>
<path fill="none" stroke="red" stroke-width="2" d="M484.5,-711C484.5,-668.56 536.83,-684.02 553.5,-645 569.74,-606.99 562.65,-592.31 553.5,-552 551.34,-542.5 547.75,-532.79 543.7,-523.73"/>
<polygon fill="red" stroke="red" stroke-width="2" points="546.79,-522.08 539.34,-514.54 540.46,-525.08 546.79,-522.08"/>
<text text-anchor="middle" x="599" y="-602.3" font-family="Times-Roman" font-size="14.00"> req.</text>
<text text-anchor="middle" x="599" y="-587.3" font-family="Times-Roman" font-size="14.00"> is_hitpass</text>
</g>
<!-- miss&#45;&gt;FETCH -->
<g id="edge25" class="edge">
<title>miss:s&#45;&gt;FETCH</title>
<path fill="none" stroke="blue" stroke-width="2" d="M350.5,-562.5C350.5,-511.45 350.5,-451.86 350.5,-418.06"/>
<polygon fill="blue" stroke="blue" stroke-width="2" points="354,-418.04 350.5,-408.04 347,-418.04 354,-418.04"/>
</g>
<!-- miss&#45;&gt;pass -->
<g id="edge26" class="edge">
<title>miss:s&#45;&gt;pass</title>
<path fill="none" stroke="red" stroke-width="2" d="M519.5,-562.5C519.5,-550.35 519.5,-537.19 519.5,-525.05"/>
<polygon fill="red" stroke="red" stroke-width="2" points="523,-524.7 519.5,-514.7 516,-524.7 523,-524.7"/>
</g>
<!-- pass&#45;&gt;FETCH -->
<g id="edge27" class="edge">
<title>pass:s&#45;&gt;FETCH</title>
<path fill="none" stroke="red" stroke-width="2" d="M479.5,-445C479.5,-444.7 428.85,-423.57 391.03,-407.84"/>
<polygon fill="red" stroke="red" stroke-width="2" points="392.3,-404.58 381.73,-403.97 389.62,-411.04 392.3,-404.58"/>
</g>
<!-- pipe -->
<g id="node22" class="node">
<title>pipe</title>
<polygon fill="none" stroke="black" points="767,-818.5 767,-933.5 926,-933.5 926,-818.5 767,-818.5"/>
<text text-anchor="middle" x="846.5" y="-918.3" font-family="Times-Roman" font-size="14.00">cnt_pipe:</text>
<polyline fill="none" stroke="black" points="767,-910.5 926,-910.5 "/>
<text text-anchor="middle" x="846.5" y="-895.3" font-family="Times-Roman" font-size="14.00">filter req.*&#45;&gt;bereq.*</text>
<polyline fill="none" stroke="black" points="767,-887.5 926,-887.5 "/>
<text text-anchor="middle" x="812.5" y="-860.8" font-family="Times-Roman" font-size="14.00">vcl_pipe{}</text>
<polyline fill="none" stroke="black" points="858,-841.5 858,-887.5 "/>
<text text-anchor="middle" x="892" y="-872.3" font-family="Times-Roman" font-size="14.00">req.*</text>
<polyline fill="none" stroke="black" points="858,-864.5 926,-864.5 "/>
<text text-anchor="middle" x="892" y="-849.3" font-family="Times-Roman" font-size="14.00">bereq.*</text>
<polyline fill="none" stroke="black" points="767,-841.5 926,-841.5 "/>
<text text-anchor="middle" x="789" y="-826.3" font-family="Times-Roman" font-size="14.00">fail</text>
<polyline fill="none" stroke="black" points="811,-818.5 811,-841.5 "/>
<text text-anchor="middle" x="837.5" y="-826.3" font-family="Times-Roman" font-size="14.00">pipe</text>
<polyline fill="none" stroke="black" points="864,-818.5 864,-841.5 "/>
<text text-anchor="middle" x="895" y="-826.3" font-family="Times-Roman" font-size="14.00">synth</text>
</g>
<!-- pipe_do -->
<g id="node23" class="node">
<title>pipe_do</title>
<ellipse fill="none" stroke="black" cx="861.5" cy="-746" rx="118.17" ry="26.74"/>
<text text-anchor="middle" x="861.5" y="-749.8" font-family="Times-Roman" font-size="14.00">send bereq,</text>
<text text-anchor="middle" x="861.5" y="-734.8" font-family="Times-Roman" font-size="14.00">copy bytes until close</text>
</g>
<!-- pipe&#45;&gt;pipe_do -->
<g id="edge28" class="edge">
<title>pipe:pipe&#45;&gt;pipe_do</title>
<path fill="none" stroke="orange" stroke-width="2" d="M837.5,-818C837.5,-806.02 840.6,-793.48 844.58,-782.33"/>
<polygon fill="orange" stroke="orange" stroke-width="2" points="847.87,-783.52 848.24,-772.93 841.34,-780.98 847.87,-783.52"/>
</g>
<!-- pipe_do&#45;&gt;DONE -->
<g id="edge29" class="edge">
<title>pipe_do&#45;&gt;DONE</title>
<path fill="none" stroke="orange" stroke-width="2" d="M845.59,-719.25C829.66,-690.97 807.5,-643.69 807.5,-599.5 807.5,-599.5 807.5,-599.5 807.5,-90 807.5,-54.57 701.3,-33.92 637.83,-24.74"/>
<polygon fill="orange" stroke="orange" stroke-width="2" points="638.04,-21.23 627.65,-23.31 637.07,-28.17 638.04,-21.23"/>
</g>
<!-- restart&#45;&gt;recv -->
<g id="edge31" class="edge">
<title>restart:s&#45;&gt;recv</title>
<path fill="none" stroke="black" d="M988.5,-1185C988.5,-1164.72 960.09,-1150.14 921.54,-1139.69"/>
<polygon fill="black" stroke="black" points="922.09,-1136.22 911.53,-1137.12 920.35,-1143 922.09,-1136.22"/>
</g>
<!-- err_restart -->
<g id="node25" class="node">
<title>err_restart</title>
<text text-anchor="middle" x="1066.5" y="-1109.3" font-family="Times-Roman" font-size="14.00">SYNTH</text>
</g>
<!-- restart&#45;&gt;err_restart -->
<g id="edge32" class="edge">
<title>restart:s&#45;&gt;err_restart</title>
<path fill="none" stroke="purple" d="M1066.5,-1185C1066.5,-1170.65 1066.5,-1154.67 1066.5,-1141.51"/>
<polygon fill="purple" stroke="purple" points="1070,-1141.22 1066.5,-1131.22 1063,-1141.22 1070,-1141.22"/>
</g>
<!-- hash&#45;&gt;pass -->
<g id="edge39" class="edge">
<title>hash:s&#45;&gt;pass</title>
<path fill="none" stroke="red" stroke-width="2" d="M676.5,-971C676.5,-961.85 682.15,-961.05 686.5,-953 703.7,-921.2 715.5,-913.15 715.5,-877 715.5,-877 715.5,-877 715.5,-597.5 715.5,-552.23 676.39,-524.16 633.11,-506.95"/>
<polygon fill="red" stroke="red" stroke-width="2" points="634.12,-503.59 623.53,-503.34 631.65,-510.14 634.12,-503.59"/>
</g>
<!-- hash&#45;&gt;pipe -->
<g id="edge40" class="edge">
<title>hash:e&#45;&gt;pipe</title>
<path fill="none" stroke="orange" stroke-width="2" d="M720.5,-983C751.83,-983 779.43,-963.57 800.75,-941.34"/>
<polygon fill="orange" stroke="orange" stroke-width="2" points="803.56,-943.46 807.74,-933.72 798.4,-938.73 803.56,-943.46"/>
</g>
<!-- lookup -->
<g id="node27" class="node">
<title>lookup</title>
<polygon fill="none" stroke="black" points="468,-841.5 468,-910.5 687,-910.5 687,-841.5 468,-841.5"/>
<text text-anchor="middle" x="577.5" y="-895.3" font-family="Times-Roman" font-size="14.00">cnt_recv:</text>
<polyline fill="none" stroke="black" points="468,-887.5 687,-887.5 "/>
<text text-anchor="middle" x="537" y="-872.3" font-family="Times-Roman" font-size="14.00">vcl_lookup{}</text>
<polyline fill="none" stroke="black" points="606,-864.5 606,-887.5 "/>
<text text-anchor="middle" x="646.5" y="-872.3" font-family="Times-Roman" font-size="14.00">req.*</text>
<polyline fill="none" stroke="black" points="468,-864.5 687,-864.5 "/>
<text text-anchor="middle" x="487" y="-849.3" font-family="Times-Roman" font-size="14.00">fail</text>
<polyline fill="none" stroke="black" points="506,-841.5 506,-864.5 "/>
<text text-anchor="middle" x="537.5" y="-849.3" font-family="Times-Roman" font-size="14.00">lookup</text>
<polyline fill="none" stroke="black" points="569,-841.5 569,-864.5 "/>
<text text-anchor="middle" x="600" y="-849.3" font-family="Times-Roman" font-size="14.00">restart</text>
<polyline fill="none" stroke="black" points="631,-841.5 631,-864.5 "/>
<text text-anchor="middle" x="659" y="-849.3" font-family="Times-Roman" font-size="14.00">synth</text>
</g>
<!-- hash&#45;&gt;lookup -->
<g id="edge34" class="edge">
<title>hash:lookup&#45;&gt;lookup</title>
<path fill="none" stroke="green" stroke-width="2" d="M676.5,-971C676.5,-949.61 664.2,-931.63 648.27,-917.3"/>
<polygon fill="green" stroke="green" stroke-width="2" points="650.12,-914.28 640.2,-910.56 645.63,-919.65 650.12,-914.28"/>
</g>
<!-- purge -->
<g id="node28" class="node">
<title>purge</title>
<polygon fill="none" stroke="black" points="293.5,-841.5 293.5,-910.5 449.5,-910.5 449.5,-841.5 293.5,-841.5"/>
<text text-anchor="middle" x="371.5" y="-895.3" font-family="Times-Roman" font-size="14.00">cnt_purge:</text>
<polyline fill="none" stroke="black" points="293.5,-887.5 449.5,-887.5 "/>
<text text-anchor="middle" x="345.5" y="-872.3" font-family="Times-Roman" font-size="14.00">vcl_purge{}</text>
<polyline fill="none" stroke="black" points="397.5,-864.5 397.5,-887.5 "/>
<text text-anchor="middle" x="423.5" y="-872.3" font-family="Times-Roman" font-size="14.00">req.*</text>
<polyline fill="none" stroke="black" points="293.5,-864.5 449.5,-864.5 "/>
<text text-anchor="middle" x="312.5" y="-849.3" font-family="Times-Roman" font-size="14.00">fail</text>
<polyline fill="none" stroke="black" points="331.5,-841.5 331.5,-864.5 "/>
<text text-anchor="middle" x="359.5" y="-849.3" font-family="Times-Roman" font-size="14.00">synth</text>
<polyline fill="none" stroke="black" points="387.5,-841.5 387.5,-864.5 "/>
<text text-anchor="middle" x="418.5" y="-849.3" font-family="Times-Roman" font-size="14.00">restart</text>
</g>
<!-- hash&#45;&gt;purge -->
<g id="edge38" class="edge">
<title>hash:s&#45;&gt;purge:n</title>
<path fill="none" stroke="purple" stroke-width="2" d="M676.5,-971C676.5,-905.61 402.82,-973.11 373.96,-921.73"/>
<polygon fill="purple" stroke="purple" stroke-width="2" points="377.34,-920.84 371.5,-912 370.55,-922.55 377.34,-920.84"/>
</g>
<!-- lookup&#45;&gt;_lookup -->
<g id="edge37" class="edge">
<title>lookup:s&#45;&gt;_lookup</title>
<path fill="none" stroke="green" stroke-width="2" d="M537.5,-840C537.5,-817.72 524.55,-800.14 507,-786.56"/>
<polygon fill="green" stroke="green" stroke-width="2" points="508.81,-783.55 498.63,-780.59 504.74,-789.25 508.81,-783.55"/>
</g>
</g>
</svg>
