<?xml version="1.0" encoding="UTF-8" standalone="no"?>
<!DOCTYPE svg PUBLIC "-//W3C//DTD SVG 1.1//EN"
 "http://www.w3.org/Graphics/SVG/1.1/DTD/svg11.dtd">
<!-- Generated by graphviz version 2.38.0 (20140413.2041)
 -->
<!-- Title: cache_req_fsm Pages: 1 -->
<svg width="837pt" height="1349pt"
 viewBox="18.00 18.00 819.46 1331.00" xmlns="http://www.w3.org/2000/svg" xmlns:xlink="http://www.w3.org/1999/xlink">
<g id="graph0" class="graph" transform="scale(1 1) rotate(0) translate(22 1327)">
<title>cache_req_fsm</title>
<polygon fill="white" stroke="none" points="-4,4 -4,-1309 797.459,-1309 797.459,4 -4,4"/>
<g id="clust3" class="cluster"><title>cluster_backend</title>
<polygon fill="aliceblue" stroke="aliceblue" points="47,-299 47,-408 338,-408 338,-299 47,-299"/>
</g>
<!-- acceptor -->
<g id="node1" class="node"><title>acceptor</title>
<polygon fill="none" stroke="black" points="604.608,-1208.5 563.304,-1226.5 480.696,-1226.5 439.392,-1208.5 480.696,-1190.5 563.304,-1190.5 604.608,-1208.5"/>
<text text-anchor="middle" x="522" y="-1204.8" font-family="Times,serif" font-size="14.00">Request received</text>
</g>
<!-- recv -->
<g id="node4" class="node"><title>recv</title>
<polygon fill="none" stroke="black" points="415,-1078.5 415,-1147.5 629,-1147.5 629,-1078.5 415,-1078.5"/>
<text text-anchor="middle" x="522" y="-1132.3" font-family="Times,serif" font-size="14.00">cnt_recv:</text>
<polyline fill="none" stroke="black" points="415,-1124.5 629,-1124.5 "/>
<text text-anchor="middle" x="476.5" y="-1109.3" font-family="Times,serif" font-size="14.00">vcl_recv{}</text>
<polyline fill="none" stroke="black" points="538,-1101.5 538,-1124.5 "/>
<text text-anchor="middle" x="583.5" y="-1109.3" font-family="Times,serif" font-size="14.00">req.*</text>
<polyline fill="none" stroke="black" points="415,-1101.5 629,-1101.5 "/>
<text text-anchor="middle" x="435.5" y="-1086.3" font-family="Times,serif" font-size="14.00">hash</text>
<polyline fill="none" stroke="black" points="456,-1078.5 456,-1101.5 "/>
<text text-anchor="middle" x="479.5" y="-1086.3" font-family="Times,serif" font-size="14.00">purge</text>
<polyline fill="none" stroke="black" points="503,-1078.5 503,-1101.5 "/>
<text text-anchor="middle" x="523" y="-1086.3" font-family="Times,serif" font-size="14.00">pass</text>
<polyline fill="none" stroke="black" points="543,-1078.5 543,-1101.5 "/>
<text text-anchor="middle" x="563" y="-1086.3" font-family="Times,serif" font-size="14.00">pipe</text>
<polyline fill="none" stroke="black" points="583,-1078.5 583,-1101.5 "/>
<text text-anchor="middle" x="606" y="-1086.3" font-family="Times,serif" font-size="14.00">synth</text>
</g>
<!-- acceptor&#45;&gt;recv -->
<g id="edge2" class="edge"><title>acceptor&#45;&gt;recv</title>
<path fill="none" stroke="black" stroke-width="2" d="M522,-1190.35C522,-1181.14 522,-1169.31 522,-1157.74"/>
<polygon fill="black" stroke="black" stroke-width="2" points="525.5,-1157.7 522,-1147.7 518.5,-1157.7 525.5,-1157.7"/>
</g>
<!-- ESI_REQ -->
<g id="node2" class="node"><title>ESI_REQ</title>
<polygon fill="none" stroke="black" points="421.07,-1208.5 394.535,-1226.5 341.465,-1226.5 314.93,-1208.5 341.465,-1190.5 394.535,-1190.5 421.07,-1208.5"/>
<text text-anchor="middle" x="368" y="-1204.8" font-family="Times,serif" font-size="14.00">ESI_REQ</text>
</g>
<!-- ESI_REQ&#45;&gt;recv -->
<g id="edge1" class="edge"><title>ESI_REQ&#45;&gt;recv</title>
<path fill="none" stroke="black" d="M395.532,-1190.78C412.946,-1180.21 436.214,-1166.08 458.041,-1152.83"/>
<polygon fill="black" stroke="black" points="459.909,-1155.79 466.64,-1147.61 456.276,-1149.81 459.909,-1155.79"/>
</g>
<!-- RESTART -->
<g id="node3" class="node"><title>RESTART</title>
<text text-anchor="middle" x="687" y="-1283.3" font-family="Times,serif" font-size="14.00">RESTART</text>
</g>
<!-- restart -->
<g id="node22" class="node"><title>restart</title>
<polygon fill="none" stroke="grey" points="623,-1185.5 623,-1231.5 751,-1231.5 751,-1185.5 623,-1185.5"/>
<text text-anchor="middle" x="687" y="-1216.3" font-family="Times,serif" font-size="14.00" fill="grey">cnt_restart:</text>
<polyline fill="none" stroke="grey" points="623,-1208.5 751,-1208.5 "/>
<text text-anchor="middle" x="641" y="-1193.3" font-family="Times,serif" font-size="14.00" fill="grey">ok?</text>
<polyline fill="none" stroke="grey" points="659,-1185.5 659,-1208.5 "/>
<text text-anchor="middle" x="705" y="-1193.3" font-family="Times,serif" font-size="14.00" fill="grey">max_restarts?</text>
</g>
<!-- RESTART&#45;&gt;restart -->
<g id="edge28" class="edge"><title>RESTART&#45;&gt;restart</title>
<path fill="none" stroke="purple" d="M687,-1268.64C687,-1260.7 687,-1251.02 687,-1241.81"/>
<polygon fill="purple" stroke="purple" points="690.5,-1241.74 687,-1231.74 683.5,-1241.74 690.5,-1241.74"/>
</g>
<!-- hash -->
<g id="node24" class="node"><title>hash</title>
<polygon fill="none" stroke="black" points="440,-971.5 440,-1040.5 562,-1040.5 562,-971.5 440,-971.5"/>
<text text-anchor="middle" x="501" y="-1025.3" font-family="Times,serif" font-size="14.00">cnt_recv:</text>
<polyline fill="none" stroke="black" points="440,-1017.5 562,-1017.5 "/>
<text text-anchor="middle" x="479" y="-1002.3" font-family="Times,serif" font-size="14.00">vcl_hash{}</text>
<polyline fill="none" stroke="black" points="518,-994.5 518,-1017.5 "/>
<text text-anchor="middle" x="540" y="-1002.3" font-family="Times,serif" font-size="14.00">req.*</text>
<polyline fill="none" stroke="black" points="440,-994.5 562,-994.5 "/>
<text text-anchor="middle" x="501" y="-979.3" font-family="Times,serif" font-size="14.00">lookup</text>
</g>
<!-- recv&#45;&gt;hash -->
<g id="edge31" class="edge"><title>recv:hash&#45;&gt;hash</title>
<path fill="none" stroke="green" stroke-width="2" d="M435,-1078C435,-1067.05 439.265,-1057.08 445.627,-1048.29"/>
<polygon fill="green" stroke="green" stroke-width="2" points="448.335,-1050.51 451.997,-1040.57 442.934,-1046.06 448.335,-1050.51"/>
</g>
<!-- recv&#45;&gt;hash -->
<g id="edge32" class="edge"><title>recv:pipe&#45;&gt;hash</title>
<path fill="none" stroke="orange" stroke-width="2" d="M563,-1078C563,-1067.33 558.982,-1057.5 552.991,-1048.76"/>
<polygon fill="orange" stroke="orange" stroke-width="2" points="555.627,-1046.45 546.71,-1040.73 550.113,-1050.76 555.627,-1046.45"/>
</g>
<!-- recv&#45;&gt;hash -->
<g id="edge33" class="edge"><title>recv:pass&#45;&gt;hash</title>
<path fill="none" stroke="red" stroke-width="2" d="M523,-1078C523,-1068.91 521.333,-1059.44 518.916,-1050.49"/>
<polygon fill="red" stroke="red" stroke-width="2" points="522.182,-1049.2 515.918,-1040.66 515.487,-1051.24 522.182,-1049.2"/>
</g>
<!-- recv&#45;&gt;hash -->
<g id="edge38" class="edge"><title>recv:purge:s&#45;&gt;hash</title>
<path fill="none" stroke="purple" stroke-width="2" d="M479,-1078C479,-1068.91 480.667,-1059.44 483.084,-1050.49"/>
<polygon fill="purple" stroke="purple" stroke-width="2" points="486.513,-1051.24 486.082,-1040.66 479.818,-1049.2 486.513,-1051.24"/>
</g>
<!-- SYNTH -->
<g id="node5" class="node"><title>SYNTH</title>
<text text-anchor="middle" x="378" y="-313.3" font-family="Times,serif" font-size="14.00">SYNTH</text>
</g>
<!-- synth -->
<g id="node10" class="node"><title>synth</title>
<polygon fill="none" stroke="black" points="256.5,-158 256.5,-250 389.5,-250 389.5,-158 256.5,-158"/>
<text text-anchor="middle" x="323" y="-234.8" font-family="Times,serif" font-size="14.00">cnt_synth:</text>
<polyline fill="none" stroke="black" points="256.5,-227 389.5,-227 "/>
<text text-anchor="middle" x="298" y="-200.3" font-family="Times,serif" font-size="14.00">vcl_synth{}</text>
<polyline fill="none" stroke="black" points="339.5,-181 339.5,-227 "/>
<text text-anchor="middle" x="364.5" y="-211.8" font-family="Times,serif" font-size="14.00">req.*</text>
<polyline fill="none" stroke="black" points="339.5,-204 389.5,-204 "/>
<text text-anchor="middle" x="364.5" y="-188.8" font-family="Times,serif" font-size="14.00">resp.*</text>
<polyline fill="none" stroke="black" points="256.5,-181 389.5,-181 "/>
<text text-anchor="middle" x="290.5" y="-165.8" font-family="Times,serif" font-size="14.00">deliver</text>
<polyline fill="none" stroke="black" points="324.5,-158 324.5,-181 "/>
<text text-anchor="middle" x="357" y="-165.8" font-family="Times,serif" font-size="14.00">restart</text>
</g>
<!-- SYNTH&#45;&gt;synth -->
<g id="edge8" class="edge"><title>SYNTH&#45;&gt;synth</title>
<path fill="none" stroke="purple" d="M369.406,-298.656C364.152,-288.052 357.113,-273.847 350.109,-259.71"/>
<polygon fill="purple" stroke="purple" points="353.105,-257.875 345.529,-250.468 346.833,-260.983 353.105,-257.875"/>
</g>
<!-- deliver -->
<g id="node6" class="node"><title>deliver</title>
<polygon fill="none" stroke="black" points="88,-146.5 88,-261.5 238,-261.5 238,-146.5 88,-146.5"/>
<text text-anchor="middle" x="163" y="-246.3" font-family="Times,serif" font-size="14.00">cnt_deliver:</text>
<polyline fill="none" stroke="black" points="88,-238.5 238,-238.5 "/>
<text text-anchor="middle" x="163" y="-223.3" font-family="Times,serif" font-size="14.00">Filter obj.&#45;&gt;resp.</text>
<polyline fill="none" stroke="black" points="88,-215.5 238,-215.5 "/>
<text text-anchor="middle" x="135.5" y="-188.8" font-family="Times,serif" font-size="14.00">vcl_deliver{}</text>
<polyline fill="none" stroke="black" points="183,-169.5 183,-215.5 "/>
<text text-anchor="middle" x="210.5" y="-200.3" font-family="Times,serif" font-size="14.00">req.*</text>
<polyline fill="none" stroke="black" points="183,-192.5 238,-192.5 "/>
<text text-anchor="middle" x="210.5" y="-177.3" font-family="Times,serif" font-size="14.00">resp.*</text>
<polyline fill="none" stroke="black" points="88,-169.5 238,-169.5 "/>
<text text-anchor="middle" x="113" y="-154.3" font-family="Times,serif" font-size="14.00">restart</text>
<polyline fill="none" stroke="black" points="138,-146.5 138,-169.5 "/>
<text text-anchor="middle" x="165" y="-154.3" font-family="Times,serif" font-size="14.00">deliver</text>
<polyline fill="none" stroke="black" points="192,-146.5 192,-169.5 "/>
<text text-anchor="middle" x="215" y="-154.3" font-family="Times,serif" font-size="14.00">synth</text>
</g>
<!-- V1D_Deliver -->
<g id="node7" class="node"><title>V1D_Deliver</title>
<ellipse fill="none" stroke="black" cx="218" cy="-91" rx="58.4896" ry="18"/>
<text text-anchor="middle" x="218" y="-87.3" font-family="Times,serif" font-size="14.00">V1D_Deliver</text>
</g>
<!-- deliver&#45;&gt;V1D_Deliver -->
<g id="edge3" class="edge"><title>deliver:deliver:s&#45;&gt;V1D_Deliver</title>
<path fill="none" stroke="green" stroke-width="2" d="M165,-146C157.436,-131.868 162.41,-120.078 172.056,-111.156"/>
<polygon fill="green" stroke="green" stroke-width="2" points="174.406,-113.764 180.212,-104.902 170.147,-108.21 174.406,-113.764"/>
</g>
<!-- deliver&#45;&gt;V1D_Deliver -->
<g id="edge4" class="edge"><title>deliver:deliver:s&#45;&gt;V1D_Deliver</title>
<path fill="none" stroke="red" stroke-width="2" d="M165,-146C165,-133.044 172.868,-122.055 182.54,-113.441"/>
<polygon fill="red" stroke="red" stroke-width="2" points="184.925,-116.016 190.569,-107.05 180.565,-110.54 184.925,-116.016"/>
</g>
<!-- deliver&#45;&gt;V1D_Deliver -->
<g id="edge5" class="edge"><title>deliver:deliver:s&#45;&gt;V1D_Deliver</title>
<path fill="none" stroke="blue" stroke-width="2" d="M165,-146C171.668,-133.543 183.138,-122.906 194.023,-114.449"/>
<polygon fill="blue" stroke="blue" stroke-width="2" points="196.205,-117.187 202.143,-108.412 192.029,-111.569 196.205,-117.187"/>
</g>
<!-- DONE -->
<g id="node9" class="node"><title>DONE</title>
<ellipse fill="none" stroke="black" cx="552" cy="-18" rx="35.194" ry="18"/>
<text text-anchor="middle" x="552" y="-14.3" font-family="Times,serif" font-size="14.00">DONE</text>
</g>
<!-- V1D_Deliver&#45;&gt;DONE -->
<g id="edge7" class="edge"><title>V1D_Deliver&#45;&gt;DONE</title>
<path fill="none" stroke="black" d="M264.793,-80.053C330.099,-66.1707 447.576,-41.1979 510.132,-27.9001"/>
<polygon fill="black" stroke="black" points="510.997,-31.2946 520.05,-25.7917 509.541,-24.4476 510.997,-31.2946"/>
</g>
<!-- stream -->
<g id="node8" class="node"><title>stream</title>
<ellipse fill="turquoise" stroke="turquoise" cx="449" cy="-204" rx="41.9398" ry="26.7407"/>
<text text-anchor="middle" x="449" y="-207.8" font-family="Times,serif" font-size="14.00">stream?</text>
<text text-anchor="middle" x="449" y="-192.8" font-family="Times,serif" font-size="14.00">body</text>
</g>
<!-- stream&#45;&gt;V1D_Deliver -->
<g id="edge6" class="edge"><title>stream&#45;&gt;V1D_Deliver</title>
<path fill="none" stroke="black" stroke-dasharray="1,5" d="M432.499,-179.068C423.495,-167.606 411.448,-154.547 398,-146 362.135,-123.204 316.167,-109.626 279.663,-101.787"/>
<polygon fill="black" stroke="black" points="280.134,-98.3108 269.634,-99.7253 278.724,-105.167 280.134,-98.3108"/>
</g>
<!-- synth&#45;&gt;V1D_Deliver -->
<g id="edge9" class="edge"><title>synth:del:s&#45;&gt;V1D_Deliver</title>
<path fill="none" stroke="purple" d="M290,-157C290,-137.353 275.047,-122.114 258.77,-111.346"/>
<polygon fill="purple" stroke="purple" points="260.569,-108.343 250.209,-106.122 256.923,-114.319 260.569,-108.343"/>
</g>
<!-- see backend graph -->
<g id="node11" class="node"><title>see backend graph</title>
<text text-anchor="middle" x="279" y="-386.3" font-family="Times,serif" font-size="14.00">see backend graph</text>
</g>
<!-- BGFETCH -->
<g id="node12" class="node"><title>BGFETCH</title>
<polygon fill="turquoise" stroke="turquoise" points="125,-408 47,-408 47,-372 125,-372 125,-408"/>
<text text-anchor="middle" x="86" y="-386.3" font-family="Times,serif" font-size="14.00">BGFETCH</text>
</g>
<!-- FETCH -->
<g id="node13" class="node"><title>FETCH</title>
<polygon fill="turquoise" stroke="turquoise" points="202.5,-408 143.5,-408 143.5,-372 202.5,-372 202.5,-408"/>
<text text-anchor="middle" x="173" y="-386.3" font-family="Times,serif" font-size="14.00">FETCH</text>
</g>
<!-- FETCH_DONE -->
<g id="node14" class="node"><title>FETCH_DONE</title>
<polygon fill="turquoise" stroke="turquoise" points="215,-335 111,-335 111,-299 215,-299 215,-335"/>
<text text-anchor="middle" x="163" y="-313.3" font-family="Times,serif" font-size="14.00">FETCH_DONE</text>
</g>
<!-- FETCH&#45;&gt;FETCH_DONE -->
<g id="edge14" class="edge"><title>FETCH&#45;&gt;FETCH_DONE</title>
<path fill="none" stroke="black" stroke-dasharray="1,5" d="M170.579,-371.813C169.449,-363.789 168.077,-354.047 166.813,-345.069"/>
<polygon fill="black" stroke="black" points="170.259,-344.443 165.398,-335.029 163.327,-345.419 170.259,-344.443"/>
</g>
<!-- FETCH_FAIL -->
<g id="node15" class="node"><title>FETCH_FAIL</title>
<polygon fill="turquoise" stroke="turquoise" points="329,-335 233,-335 233,-299 329,-299 329,-335"/>
<text text-anchor="middle" x="281" y="-313.3" font-family="Times,serif" font-size="14.00">FETCH_FAIL</text>
</g>
<!-- FETCH&#45;&gt;FETCH_FAIL -->
<g id="edge15" class="edge"><title>FETCH&#45;&gt;FETCH_FAIL</title>
<path fill="none" stroke="black" stroke-dasharray="1,5" d="M198.869,-371.994C213.058,-362.666 230.842,-350.974 246.23,-340.858"/>
<polygon fill="black" stroke="black" points="248.535,-343.532 254.968,-335.114 244.689,-337.682 248.535,-343.532"/>
</g>
<!-- FETCH_DONE&#45;&gt;deliver -->
<g id="edge12" class="edge"><title>FETCH_DONE&#45;&gt;deliver</title>
<path fill="none" stroke="red" stroke-width="2" d="M157.938,-298.656C157.117,-291.065 156.595,-281.628 156.373,-271.691"/>
<polygon fill="red" stroke="red" stroke-width="2" points="159.873,-271.595 156.251,-261.638 152.873,-271.68 159.873,-271.595"/>
</g>
<!-- FETCH_DONE&#45;&gt;deliver -->
<g id="edge13" class="edge"><title>FETCH_DONE&#45;&gt;deliver</title>
<path fill="none" stroke="blue" stroke-width="2" d="M168.062,-298.656C168.883,-291.065 169.405,-281.628 169.627,-271.691"/>
<polygon fill="blue" stroke="blue" stroke-width="2" points="173.127,-271.68 169.749,-261.638 166.127,-271.595 173.127,-271.68"/>
</g>
<!-- FETCH_FAIL&#45;&gt;synth -->
<g id="edge11" class="edge"><title>FETCH_FAIL&#45;&gt;synth</title>
<path fill="none" stroke="purple" d="M287.562,-298.656C291.537,-288.153 296.848,-274.117 302.146,-260.114"/>
<polygon fill="purple" stroke="purple" points="305.53,-261.06 305.796,-250.468 298.983,-258.582 305.53,-261.06"/>
</g>
<!-- lookup2 -->
<g id="node16" class="node"><title>lookup2</title>
<polygon fill="none" stroke="black" points="0,-688.5 0,-780.5 232,-780.5 232,-688.5 0,-688.5"/>
<text text-anchor="middle" x="116" y="-765.3" font-family="Times,serif" font-size="14.00">cnt_lookup:</text>
<polyline fill="none" stroke="black" points="0,-757.5 232,-757.5 "/>
<text text-anchor="middle" x="64" y="-730.8" font-family="Times,serif" font-size="14.00">vcl_hit{}</text>
<polyline fill="none" stroke="black" points="128,-711.5 128,-757.5 "/>
<text text-anchor="middle" x="180" y="-742.3" font-family="Times,serif" font-size="14.00">req.*</text>
<polyline fill="none" stroke="black" points="128,-734.5 232,-734.5 "/>
<text text-anchor="middle" x="180" y="-719.3" font-family="Times,serif" font-size="14.00">obj.*</text>
<polyline fill="none" stroke="black" points="0,-711.5 232,-711.5 "/>
<text text-anchor="middle" x="27" y="-696.3" font-family="Times,serif" font-size="14.00">deliver</text>
<polyline fill="none" stroke="black" points="54,-688.5 54,-711.5 "/>
<text text-anchor="middle" x="75" y="-696.3" font-family="Times,serif" font-size="14.00">miss</text>
<polyline fill="none" stroke="black" points="96,-688.5 96,-711.5 "/>
<text text-anchor="middle" x="121" y="-696.3" font-family="Times,serif" font-size="14.00">restart</text>
<polyline fill="none" stroke="black" points="146,-688.5 146,-711.5 "/>
<text text-anchor="middle" x="169" y="-696.3" font-family="Times,serif" font-size="14.00">synth</text>
<polyline fill="none" stroke="black" points="192,-688.5 192,-711.5 "/>
<text text-anchor="middle" x="212" y="-696.3" font-family="Times,serif" font-size="14.00">pass</text>
</g>
<!-- lookup2&#45;&gt;deliver -->
<g id="edge20" class="edge"><title>lookup2:deliver:s&#45;&gt;deliver:n</title>
<path fill="none" stroke="green" stroke-width="2" d="M27,-688C27,-656.245 19,-648.755 19,-617 19,-617 19,-617 19,-316 19,-251.519 147.149,-321.468 161.666,-272.216"/>
<polygon fill="green" stroke="green" stroke-width="2" points="165.176,-272.369 163,-262 158.235,-271.463 165.176,-272.369"/>
</g>
<!-- lookup2&#45;&gt;BGFETCH -->
<g id="edge10" class="edge"><title>lookup2:deliver:s&#45;&gt;BGFETCH</title>
<path fill="none" stroke="green" d="M27,-688C27,-679.567 30.9334,-678.176 33,-670 48.149,-610.069 45.481,-593.733 57,-533 64.6083,-492.885 74.2231,-446.572 80.2438,-418.035"/>
<polygon fill="green" stroke="green" points="83.7172,-418.527 82.3636,-408.019 76.8689,-417.077 83.7172,-418.527"/>
<text text-anchor="middle" x="94" y="-551.8" font-family="Times,serif" font-size="14.00">parallel</text>
<text text-anchor="middle" x="94" y="-536.8" font-family="Times,serif" font-size="14.00">if obj expired</text>
</g>
<!-- miss -->
<g id="node18" class="node"><title>miss</title>
<polygon fill="none" stroke="black" points="85,-581.5 85,-650.5 265,-650.5 265,-581.5 85,-581.5"/>
<text text-anchor="middle" x="175" y="-635.3" font-family="Times,serif" font-size="14.00">cnt_miss:</text>
<polyline fill="none" stroke="black" points="85,-627.5 265,-627.5 "/>
<text text-anchor="middle" x="138.5" y="-612.3" font-family="Times,serif" font-size="14.00">vcl_miss{}</text>
<polyline fill="none" stroke="black" points="192,-604.5 192,-627.5 "/>
<text text-anchor="middle" x="228.5" y="-612.3" font-family="Times,serif" font-size="14.00">req.*</text>
<polyline fill="none" stroke="black" points="85,-604.5 265,-604.5 "/>
<text text-anchor="middle" x="107" y="-589.3" font-family="Times,serif" font-size="14.00">fetch</text>
<polyline fill="none" stroke="black" points="129,-581.5 129,-604.5 "/>
<text text-anchor="middle" x="152" y="-589.3" font-family="Times,serif" font-size="14.00">synth</text>
<polyline fill="none" stroke="black" points="175,-581.5 175,-604.5 "/>
<text text-anchor="middle" x="200" y="-589.3" font-family="Times,serif" font-size="14.00">restart</text>
<polyline fill="none" stroke="black" points="225,-581.5 225,-604.5 "/>
<text text-anchor="middle" x="245" y="-589.3" font-family="Times,serif" font-size="14.00">pass</text>
</g>
<!-- lookup2&#45;&gt;miss -->
<g id="edge21" class="edge"><title>lookup2:miss:s&#45;&gt;miss</title>
<path fill="none" stroke="blue" stroke-width="2" d="M75,-688C75,-676.143 79.7319,-666.085 87.137,-657.604"/>
<polygon fill="blue" stroke="blue" stroke-width="2" points="89.6233,-660.068 94.281,-650.552 84.7056,-655.086 89.6233,-660.068"/>
</g>
<!-- pass -->
<g id="node19" class="node"><title>pass</title>
<polygon fill="none" stroke="black" points="223,-445.5 223,-514.5 363,-514.5 363,-445.5 223,-445.5"/>
<text text-anchor="middle" x="293" y="-499.3" font-family="Times,serif" font-size="14.00">cnt_pass:</text>
<polyline fill="none" stroke="black" points="223,-491.5 363,-491.5 "/>
<text text-anchor="middle" x="266" y="-476.3" font-family="Times,serif" font-size="14.00">vcl_pass{}</text>
<polyline fill="none" stroke="black" points="309,-468.5 309,-491.5 "/>
<text text-anchor="middle" x="336" y="-476.3" font-family="Times,serif" font-size="14.00">req.*</text>
<polyline fill="none" stroke="black" points="223,-468.5 363,-468.5 "/>
<text text-anchor="middle" x="245" y="-453.3" font-family="Times,serif" font-size="14.00">fetch</text>
<polyline fill="none" stroke="black" points="267,-445.5 267,-468.5 "/>
<text text-anchor="middle" x="290" y="-453.3" font-family="Times,serif" font-size="14.00">synth</text>
<polyline fill="none" stroke="black" points="313,-445.5 313,-468.5 "/>
<text text-anchor="middle" x="338" y="-453.3" font-family="Times,serif" font-size="14.00">restart</text>
</g>
<!-- lookup2&#45;&gt;pass -->
<g id="edge22" class="edge"><title>lookup2:pass:s&#45;&gt;pass</title>
<path fill="none" stroke="red" stroke-width="2" d="M212,-688C212,-655.911 256.629,-677.981 274,-651 298.143,-613.501 300.499,-561.496 298.321,-524.909"/>
<polygon fill="red" stroke="red" stroke-width="2" points="301.783,-524.27 297.56,-514.553 294.802,-524.783 301.783,-524.27"/>
</g>
<!-- lookup -->
<g id="node17" class="node"><title>lookup</title>
<polygon fill="none" stroke="grey" points="98,-841.5 98,-910.5 316,-910.5 316,-841.5 98,-841.5"/>
<text text-anchor="middle" x="207" y="-895.3" font-family="Times,serif" font-size="14.00" fill="grey">cnt_lookup:</text>
<polyline fill="none" stroke="grey" points="98,-887.5 316,-887.5 "/>
<text text-anchor="middle" x="207" y="-872.3" font-family="Times,serif" font-size="14.00" fill="grey">hash lookup</text>
<polyline fill="none" stroke="grey" points="98,-864.5 316,-864.5 "/>
<text text-anchor="middle" x="116.5" y="-849.3" font-family="Times,serif" font-size="14.00" fill="grey">hit?</text>
<polyline fill="none" stroke="grey" points="135,-841.5 135,-864.5 "/>
<text text-anchor="middle" x="159" y="-849.3" font-family="Times,serif" font-size="14.00" fill="grey">miss?</text>
<polyline fill="none" stroke="grey" points="183,-841.5 183,-864.5 "/>
<text text-anchor="middle" x="225.5" y="-849.3" font-family="Times,serif" font-size="14.00" fill="grey">hit&#45;for&#45;pass?</text>
<polyline fill="none" stroke="grey" points="268,-841.5 268,-864.5 "/>
<text text-anchor="middle" x="292" y="-849.3" font-family="Times,serif" font-size="14.00" fill="grey">busy?</text>
</g>
<!-- lookup&#45;&gt;lookup2 -->
<g id="edge19" class="edge"><title>lookup:h:s&#45;&gt;lookup2</title>
<path fill="none" stroke="green" stroke-width="2" d="M116,-840C116,-824.001 116,-806.625 116,-790.719"/>
<polygon fill="green" stroke="green" stroke-width="2" points="119.5,-790.507 116,-780.507 112.5,-790.507 119.5,-790.507"/>
</g>
<!-- lookup&#45;&gt;lookup -->
<g id="edge16" class="edge"><title>lookup:busy:e&#45;&gt;lookup:top:e</title>
<path fill="none" stroke="grey" d="M316,-853C322,-834 334,-834 334,-876 334,-908.812 326.676,-915.99 320.61,-908.5"/>
<polygon fill="grey" stroke="grey" points="323.515,-906.469 316,-899 317.217,-909.525 323.515,-906.469"/>
<text text-anchor="middle" x="367.5" y="-872.3" font-family="Times,serif" font-size="14.00" fill="grey">(waitinglist)</text>
</g>
<!-- lookup&#45;&gt;miss -->
<g id="edge17" class="edge"><title>lookup:miss:s&#45;&gt;miss</title>
<path fill="none" stroke="blue" stroke-width="2" d="M159,-840C159,-795.102 220.525,-820.957 241,-781 259.85,-744.215 256.118,-726.469 241,-688 236.81,-677.339 230.183,-667.328 222.711,-658.375"/>
<polygon fill="blue" stroke="blue" stroke-width="2" points="225.227,-655.938 215.966,-650.79 219.996,-660.589 225.227,-655.938"/>
</g>
<!-- lookup&#45;&gt;pass -->
<g id="edge18" class="edge"><title>lookup:hfp:s&#45;&gt;pass</title>
<path fill="none" stroke="red" stroke-width="2" d="M226,-840C226,-809.282 249.583,-809.097 262,-781 302.222,-689.987 305.71,-662.238 313,-563 313.977,-549.703 315.434,-546.109 313,-533 312.47,-530.147 311.79,-527.249 311.002,-524.355"/>
<polygon fill="red" stroke="red" stroke-width="2" points="314.281,-523.113 307.968,-514.604 307.597,-525.193 314.281,-523.113"/>
</g>
<!-- miss&#45;&gt;FETCH -->
<g id="edge23" class="edge"><title>miss:fetch:s&#45;&gt;FETCH</title>
<path fill="none" stroke="blue" stroke-width="2" d="M107,-581C107,-566.206 126.544,-575.139 135,-563 165.653,-518.997 172.142,-454.572 173.188,-418.35"/>
<polygon fill="blue" stroke="blue" stroke-width="2" points="176.693,-418.125 173.359,-408.068 169.694,-418.008 176.693,-418.125"/>
</g>
<!-- miss&#45;&gt;pass -->
<g id="edge24" class="edge"><title>miss:pass:s&#45;&gt;pass</title>
<path fill="none" stroke="red" stroke-width="2" d="M245,-581C245,-561.014 252.889,-540.798 262.27,-523.823"/>
<polygon fill="red" stroke="red" stroke-width="2" points="265.553,-525.144 267.594,-514.748 259.515,-521.602 265.553,-525.144"/>
</g>
<!-- pass&#45;&gt;FETCH -->
<g id="edge25" class="edge"><title>pass:fetch:s&#45;&gt;FETCH</title>
<path fill="none" stroke="red" stroke-width="2" d="M245,-445C245,-435.486 228.709,-422.805 211.625,-412.122"/>
<polygon fill="red" stroke="red" stroke-width="2" points="213.073,-408.908 202.701,-406.745 209.46,-414.904 213.073,-408.908"/>
</g>
<!-- pipe -->
<g id="node20" class="node"><title>pipe</title>
<polygon fill="none" stroke="black" points="619,-818.5 619,-933.5 753,-933.5 753,-818.5 619,-818.5"/>
<text text-anchor="middle" x="686" y="-918.3" font-family="Times,serif" font-size="14.00">cnt_pipe:</text>
<polyline fill="none" stroke="black" points="619,-910.5 753,-910.5 "/>
<text text-anchor="middle" x="686" y="-895.3" font-family="Times,serif" font-size="14.00">filter req.*&#45;&gt;bereq.*</text>
<polyline fill="none" stroke="black" points="619,-887.5 753,-887.5 "/>
<text text-anchor="middle" x="657.5" y="-860.8" font-family="Times,serif" font-size="14.00">vcl_pipe{}</text>
<polyline fill="none" stroke="black" points="696,-841.5 696,-887.5 "/>
<text text-anchor="middle" x="724.5" y="-872.3" font-family="Times,serif" font-size="14.00">req.*</text>
<polyline fill="none" stroke="black" points="696,-864.5 753,-864.5 "/>
<text text-anchor="middle" x="724.5" y="-849.3" font-family="Times,serif" font-size="14.00">bereq.*</text>
<polyline fill="none" stroke="black" points="619,-841.5 753,-841.5 "/>
<text text-anchor="middle" x="651" y="-826.3" font-family="Times,serif" font-size="14.00">pipe</text>
<polyline fill="none" stroke="black" points="683,-818.5 683,-841.5 "/>
<text text-anchor="middle" x="718" y="-826.3" font-family="Times,serif" font-size="14.00">synth</text>
</g>
<!-- pipe_do -->
<g id="node21" class="node"><title>pipe_do</title>
<ellipse fill="none" stroke="black" cx="698" cy="-734.5" rx="95.4188" ry="26.7407"/>
<text text-anchor="middle" x="698" y="-738.3" font-family="Times,serif" font-size="14.00">send bereq,</text>
<text text-anchor="middle" x="698" y="-723.3" font-family="Times,serif" font-size="14.00">copy bytes until close</text>
</g>
<!-- pipe&#45;&gt;pipe_do -->
<g id="edge26" class="edge"><title>pipe:pipe&#45;&gt;pipe_do</title>
<path fill="none" stroke="orange" stroke-width="2" d="M651,-818C651,-800.39 659.184,-783.111 668.723,-768.953"/>
<polygon fill="orange" stroke="orange" stroke-width="2" points="671.761,-770.724 674.775,-760.566 666.085,-766.627 671.761,-770.724"/>
</g>
<!-- pipe_do&#45;&gt;DONE -->
<g id="edge27" class="edge"><title>pipe_do&#45;&gt;DONE</title>
<path fill="none" stroke="orange" stroke-width="2" d="M682.476,-707.666C670.159,-684.697 655,-649.77 655,-617 655,-617 655,-617 655,-90 655,-58.2915 621.5,-39.6576 592.711,-29.4983"/>
<polygon fill="orange" stroke="orange" stroke-width="2" points="593.776,-26.1642 583.183,-26.3712 591.593,-32.8151 593.776,-26.1642"/>
</g>
<!-- restart&#45;&gt;recv -->
<g id="edge29" class="edge"><title>restart:ok:s&#45;&gt;recv</title>
<path fill="none" stroke="black" d="M641,-1185C641,-1173.12 636.572,-1163.18 629.424,-1154.88"/>
<polygon fill="black" stroke="black" points="631.723,-1152.23 622.144,-1147.7 626.809,-1157.21 631.723,-1152.23"/>
</g>
<!-- err_restart -->
<g id="node23" class="node"><title>err_restart</title>
<text text-anchor="middle" x="705" y="-1109.3" font-family="Times,serif" font-size="14.00">SYNTH</text>
</g>
<!-- restart&#45;&gt;err_restart -->
<g id="edge30" class="edge"><title>restart:max:s&#45;&gt;err_restart</title>
<path fill="none" stroke="purple" d="M705,-1185C705,-1170.65 705,-1154.67 705,-1141.51"/>
<polygon fill="purple" stroke="purple" points="708.5,-1141.22 705,-1131.22 701.5,-1141.22 708.5,-1141.22"/>
</g>
<!-- hash&#45;&gt;lookup -->
<g id="edge34" class="edge"><title>hash:lookup:w&#45;&gt;lookup</title>
<path fill="none" stroke="green" stroke-width="2" d="M439,-983C372.437,-983 304.057,-946.456 258.942,-916.282"/>
<polygon fill="green" stroke="green" stroke-width="2" points="260.75,-913.279 250.515,-910.539 256.807,-919.063 260.75,-913.279"/>
</g>
<!-- hash&#45;&gt;pass -->
<g id="edge36" class="edge"><title>hash:lookup:s&#45;&gt;pass</title>
<path fill="none" stroke="red" stroke-width="2" d="M501,-971C501,-941.539 538.166,-957.45 556,-934 572.165,-912.745 575,-903.704 575,-877 575,-877 575,-877 575,-615 575,-525.019 456.424,-495.389 373.053,-485.677"/>
<polygon fill="red" stroke="red" stroke-width="2" points="373.391,-482.193 363.07,-484.588 372.632,-489.152 373.391,-482.193"/>
</g>
<!-- hash&#45;&gt;pipe -->
<g id="edge37" class="edge"><title>hash:lookup:e&#45;&gt;pipe</title>
<path fill="none" stroke="orange" stroke-width="2" d="M563,-983C593.899,-983 620.887,-963.568 641.648,-941.344"/>
<polygon fill="orange" stroke="orange" stroke-width="2" points="644.401,-943.516 648.447,-933.724 639.178,-938.855 644.401,-943.516"/>
</g>
<!-- purge -->
<g id="node25" class="node"><title>purge</title>
<polygon fill="none" stroke="black" points="419,-841.5 419,-910.5 547,-910.5 547,-841.5 419,-841.5"/>
<text text-anchor="middle" x="483" y="-895.3" font-family="Times,serif" font-size="14.00">cnt_purge:</text>
<polyline fill="none" stroke="black" points="419,-887.5 547,-887.5 "/>
<text text-anchor="middle" x="461" y="-872.3" font-family="Times,serif" font-size="14.00">vcl_purge{}</text>
<polyline fill="none" stroke="black" points="503,-864.5 503,-887.5 "/>
<text text-anchor="middle" x="525" y="-872.3" font-family="Times,serif" font-size="14.00">req.*</text>
<polyline fill="none" stroke="black" points="419,-864.5 547,-864.5 "/>
<text text-anchor="middle" x="450" y="-849.3" font-family="Times,serif" font-size="14.00">synth</text>
<polyline fill="none" stroke="black" points="481,-841.5 481,-864.5 "/>
<text text-anchor="middle" x="514" y="-849.3" font-family="Times,serif" font-size="14.00">restart</text>
</g>
<!-- hash&#45;&gt;purge -->
<g id="edge35" class="edge"><title>hash:lookup:s&#45;&gt;purge:top:n</title>
<path fill="none" stroke="purple" stroke-width="2" d="M501,-971C501,-947.333 487.585,-940.99 483.917,-922.06"/>
<polygon fill="purple" stroke="purple" stroke-width="2" points="487.394,-921.641 483,-912 480.423,-922.277 487.394,-921.641"/>
</g>
</g>
</svg>
