<?xml version="1.0" encoding="UTF-8" standalone="no"?>
<!DOCTYPE svg PUBLIC "-//W3C//DTD SVG 1.1//EN"
 "http://www.w3.org/Graphics/SVG/1.1/DTD/svg11.dtd">
<!-- Generated by graphviz version 2.38.0 (20140413.2041)
 -->
<!-- Title: cache_fetch Pages: 1 -->
<svg width="665pt" height="1052pt"
 viewBox="36.00 36.00 629.00 1015.74" xmlns="http://www.w3.org/2000/svg" xmlns:xlink="http://www.w3.org/1999/xlink">
<g id="graph0" class="graph" transform="scale(1 1) rotate(0) translate(40 1011.74)">
<title>cache_fetch</title>
<polygon fill="white" stroke="none" points="-4,4 -4,-975.74 589,-975.74 589,4 -4,4"/>
<g id="clust1" class="cluster"><title>cluster_backend</title>
<polygon fill="aliceblue" stroke="aliceblue" points="8,-8 8,-963.74 577,-963.74 577,-8 8,-8"/>
</g>
<!-- RETRY -->
<g id="node1" class="node"><title>RETRY</title>
<text text-anchor="middle" x="384" y="-942.04" font-family="Times,serif" font-size="14.00">RETRY</text>
</g>
<!-- v_b_f -->
<g id="node4" class="node"><title>v_b_f</title>
<polygon fill="none" stroke="black" points="158.5,-821.24 158.5,-890.24 347.5,-890.24 347.5,-821.24 158.5,-821.24"/>
<text text-anchor="middle" x="253" y="-875.04" font-family="Times,serif" font-size="14.00">vbf_stp_startfetch:</text>
<polyline fill="none" stroke="black" points="158.5,-867.24 347.5,-867.24 "/>
<text text-anchor="middle" x="224.5" y="-852.04" font-family="Times,serif" font-size="14.00">vcl_backend_fetch{}</text>
<polyline fill="none" stroke="black" points="290.5,-844.24 290.5,-867.24 "/>
<text text-anchor="middle" x="319" y="-852.04" font-family="Times,serif" font-size="14.00">bereq.*</text>
<polyline fill="none" stroke="black" points="158.5,-844.24 347.5,-844.24 "/>
<text text-anchor="middle" x="210" y="-829.04" font-family="Times,serif" font-size="14.00">abandon</text>
<polyline fill="none" stroke="black" points="261.5,-821.24 261.5,-844.24 "/>
<text text-anchor="middle" x="304.5" y="-829.04" font-family="Times,serif" font-size="14.00">fetch</text>
</g>
<!-- RETRY&#45;&gt;v_b_f -->
<g id="edge4" class="edge"><title>RETRY&#45;&gt;v_b_f</title>
<path fill="none" stroke="purple" d="M358.431,-927.564C344.989,-918.534 327.918,-907.067 311.449,-896.003"/>
<polygon fill="purple" stroke="purple" points="313.166,-892.941 302.914,-890.27 309.263,-898.752 313.166,-892.941"/>
</g>
<!-- v_b_f_BGFETCH -->
<g id="node2" class="node"><title>v_b_f_BGFETCH</title>
<polygon fill="turquoise" stroke="turquoise" points="335,-963.74 257,-963.74 257,-927.74 335,-927.74 335,-963.74"/>
<text text-anchor="middle" x="296" y="-942.04" font-family="Times,serif" font-size="14.00">BGFETCH</text>
</g>
<!-- v_b_f_BGFETCH&#45;&gt;v_b_f -->
<g id="edge1" class="edge"><title>v_b_f_BGFETCH&#45;&gt;v_b_f</title>
<path fill="none" stroke="green" stroke-width="2" d="M287.505,-927.354C283.569,-919.301 278.703,-909.342 273.879,-899.468"/>
<polygon fill="green" stroke="green" stroke-width="2" points="277.023,-897.93 269.488,-890.482 270.733,-901.003 277.023,-897.93"/>
</g>
<!-- v_b_f_FETCH -->
<g id="node3" class="node"><title>v_b_f_FETCH</title>
<polygon fill="turquoise" stroke="turquoise" points="238.5,-963.74 179.5,-963.74 179.5,-927.74 238.5,-927.74 238.5,-963.74"/>
<text text-anchor="middle" x="209" y="-942.04" font-family="Times,serif" font-size="14.00">FETCH</text>
</g>
<!-- v_b_f_FETCH&#45;&gt;v_b_f -->
<g id="edge2" class="edge"><title>v_b_f_FETCH&#45;&gt;v_b_f</title>
<path fill="none" stroke="blue" stroke-width="2" d="M212.189,-927.354C215.348,-919.301 219.913,-909.342 224.888,-899.468"/>
<polygon fill="blue" stroke="blue" stroke-width="2" points="228.052,-900.971 229.545,-890.482 221.836,-897.751 228.052,-900.971"/>
</g>
<!-- v_b_f_FETCH&#45;&gt;v_b_f -->
<g id="edge3" class="edge"><title>v_b_f_FETCH&#45;&gt;v_b_f</title>
<path fill="none" stroke="red" stroke-width="2" d="M223.197,-927.354C228.042,-919.383 233.376,-909.545 238.233,-899.771"/>
<polygon fill="red" stroke="red" stroke-width="2" points="241.521,-901.01 242.713,-890.482 235.217,-897.969 241.521,-901.01"/>
</g>
<!-- v_b_hdrs -->
<g id="node5" class="node"><title>v_b_hdrs</title>
<ellipse fill="none" stroke="black" cx="305" cy="-756.87" rx="94.0904" ry="26.7407"/>
<text text-anchor="middle" x="305" y="-760.67" font-family="Times,serif" font-size="14.00">send bereq,</text>
<text text-anchor="middle" x="305" y="-745.67" font-family="Times,serif" font-size="14.00">read beresp (headers)</text>
</g>
<!-- v_b_f&#45;&gt;v_b_hdrs -->
<g id="edge5" class="edge"><title>v_b_f:fetch:s&#45;&gt;v_b_hdrs</title>
<path fill="none" stroke="black" stroke-width="2" d="M305,-820.74C305,-812.127 305,-802.849 305,-794.136"/>
<polygon fill="black" stroke="black" stroke-width="2" points="308.5,-793.87 305,-783.87 301.5,-793.87 308.5,-793.87"/>
</g>
<!-- v_b_r -->
<g id="node6" class="node"><title>v_b_r</title>
<polygon fill="none" stroke="black" points="291,-577.5 291,-692.5 529,-692.5 529,-577.5 291,-577.5"/>
<text text-anchor="middle" x="410" y="-677.3" font-family="Times,serif" font-size="14.00">vbf_stp_startfetch:</text>
<polyline fill="none" stroke="black" points="291,-669.5 529,-669.5 "/>
<text text-anchor="middle" x="373" y="-642.8" font-family="Times,serif" font-size="14.00">vcl_backend_response{}</text>
<polyline fill="none" stroke="black" points="455,-623.5 455,-669.5 "/>
<text text-anchor="middle" x="492" y="-654.3" font-family="Times,serif" font-size="14.00">bereq.*</text>
<polyline fill="none" stroke="black" points="455,-646.5 529,-646.5 "/>
<text text-anchor="middle" x="492" y="-631.3" font-family="Times,serif" font-size="14.00">beresp.*</text>
<polyline fill="none" stroke="black" points="291,-623.5 529,-623.5 "/>
<text text-anchor="middle" x="332.5" y="-608.3" font-family="Times,serif" font-size="14.00">retry</text>
<polyline fill="none" stroke="black" points="291,-600.5 374,-600.5 "/>
<text text-anchor="middle" x="314.5" y="-585.3" font-family="Times,serif" font-size="14.00">max?</text>
<polyline fill="none" stroke="black" points="338,-577.5 338,-600.5 "/>
<text text-anchor="middle" x="356" y="-585.3" font-family="Times,serif" font-size="14.00">ok?</text>
<polyline fill="none" stroke="black" points="374,-577.5 374,-623.5 "/>
<text text-anchor="middle" x="405" y="-596.8" font-family="Times,serif" font-size="14.00">abandon</text>
<polyline fill="none" stroke="black" points="436,-577.5 436,-623.5 "/>
<text text-anchor="middle" x="482.5" y="-608.3" font-family="Times,serif" font-size="14.00">deliver</text>
<polyline fill="none" stroke="black" points="436,-600.5 529,-600.5 "/>
<text text-anchor="middle" x="457.5" y="-585.3" font-family="Times,serif" font-size="14.00">304?</text>
<polyline fill="none" stroke="black" points="479,-577.5 479,-600.5 "/>
<text text-anchor="middle" x="504" y="-585.3" font-family="Times,serif" font-size="14.00">other?</text>
</g>
<!-- v_b_hdrs&#45;&gt;v_b_r -->
<g id="edge6" class="edge"><title>v_b_hdrs&#45;&gt;v_b_r</title>
<path fill="none" stroke="black" stroke-width="2" d="M327.011,-730.741C334.851,-721.792 344.078,-711.258 353.478,-700.527"/>
<polygon fill="black" stroke="black" stroke-width="2" points="356.379,-702.526 360.336,-692.698 351.114,-697.914 356.379,-702.526"/>
</g>
<!-- v_b_e -->
<g id="node7" class="node"><title>v_b_e</title>
<polygon fill="none" stroke="black" points="160.5,-424.5 160.5,-539.5 359.5,-539.5 359.5,-424.5 160.5,-424.5"/>
<text text-anchor="middle" x="260" y="-524.3" font-family="Times,serif" font-size="14.00">vbf_stp_error:</text>
<polyline fill="none" stroke="black" points="160.5,-516.5 359.5,-516.5 "/>
<text text-anchor="middle" x="227.5" y="-489.8" font-family="Times,serif" font-size="14.00">vcl_backend_error{}</text>
<polyline fill="none" stroke="black" points="294.5,-470.5 294.5,-516.5 "/>
<text text-anchor="middle" x="327" y="-501.3" font-family="Times,serif" font-size="14.00">bereq.*</text>
<polyline fill="none" stroke="black" points="294.5,-493.5 359.5,-493.5 "/>
<text text-anchor="middle" x="327" y="-478.3" font-family="Times,serif" font-size="14.00">beresp.*</text>
<polyline fill="none" stroke="black" points="160.5,-470.5 359.5,-470.5 "/>
<text text-anchor="middle" x="202" y="-455.3" font-family="Times,serif" font-size="14.00">retry</text>
<polyline fill="none" stroke="black" points="160.5,-447.5 243.5,-447.5 "/>
<text text-anchor="middle" x="184" y="-432.3" font-family="Times,serif" font-size="14.00">max?</text>
<polyline fill="none" stroke="black" points="207.5,-424.5 207.5,-447.5 "/>
<text text-anchor="middle" x="225.5" y="-432.3" font-family="Times,serif" font-size="14.00">ok?</text>
<polyline fill="none" stroke="black" points="243.5,-424.5 243.5,-470.5 "/>
<text text-anchor="middle" x="274.5" y="-443.8" font-family="Times,serif" font-size="14.00">abandon</text>
<polyline fill="none" stroke="black" points="305.5,-424.5 305.5,-470.5 "/>
<text text-anchor="middle" x="332.5" y="-443.8" font-family="Times,serif" font-size="14.00">deliver</text>
</g>
<!-- v_b_hdrs&#45;&gt;v_b_e -->
<g id="edge7" class="edge"><title>v_b_hdrs&#45;&gt;v_b_e</title>
<path fill="none" stroke="black" d="M293.904,-730.001C289.536,-718.814 284.884,-705.455 282,-693 271.075,-645.821 265.567,-591.411 262.795,-549.798"/>
<polygon fill="black" stroke="black" points="266.285,-549.536 262.163,-539.776 259.299,-549.977 266.285,-549.536"/>
</g>
<!-- v_b_r&#45;&gt;v_b_e -->
<g id="edge9" class="edge"><title>v_b_r:max&#45;&gt;v_b_e</title>
<path fill="none" stroke="black" d="M290,-589C284.941,-589 278.94,-570.896 273.639,-549.652"/>
<polygon fill="black" stroke="black" points="276.994,-548.632 271.259,-539.724 270.187,-550.264 276.994,-548.632"/>
</g>
<!-- v_b_r_retry -->
<g id="node8" class="node"><title>v_b_r_retry</title>
<text text-anchor="middle" x="408" y="-478.3" font-family="Times,serif" font-size="14.00">RETRY</text>
</g>
<!-- v_b_r&#45;&gt;v_b_r_retry -->
<g id="edge8" class="edge"><title>v_b_r:retry&#45;&gt;v_b_r_retry</title>
<path fill="none" stroke="purple" d="M356,-577C356,-562.594 374.938,-531.341 389.957,-508.822"/>
<polygon fill="purple" stroke="purple" points="392.967,-510.618 395.677,-500.376 387.171,-506.693 392.967,-510.618"/>
</g>
<!-- vbf_stp_condfetch -->
<g id="node9" class="node"><title>vbf_stp_condfetch</title>
<polygon fill="none" stroke="grey" points="343.5,-313.5 343.5,-405.5 464.5,-405.5 464.5,-313.5 343.5,-313.5"/>
<text text-anchor="middle" x="404" y="-390.3" font-family="Times,serif" font-size="14.00" fill="grey">vbf_stp_condfetch:</text>
<polyline fill="none" stroke="grey" points="343.5,-382.5 464.5,-382.5 "/>
<text text-anchor="middle" x="404" y="-367.3" font-family="Times,serif" font-size="14.00" fill="grey">copy obj attr</text>
<polyline fill="none" stroke="grey" points="343.5,-359.5 464.5,-359.5 "/>
<text text-anchor="middle" x="404" y="-344.3" font-family="Times,serif" font-size="14.00" fill="grey">steal body</text>
<polyline fill="none" stroke="grey" points="343.5,-336.5 464.5,-336.5 "/>
<text text-anchor="middle" x="383" y="-321.3" font-family="Times,serif" font-size="14.00" fill="grey">fetch_fail?</text>
<polyline fill="none" stroke="grey" points="422.5,-313.5 422.5,-336.5 "/>
<text text-anchor="middle" x="443.5" y="-321.3" font-family="Times,serif" font-size="14.00" fill="grey">ok?</text>
</g>
<!-- v_b_r&#45;&gt;vbf_stp_condfetch -->
<g id="edge10" class="edge"><title>v_b_r:fetch_304:s&#45;&gt;vbf_stp_condfetch</title>
<path fill="none" stroke="black" d="M458,-577C458,-508.824 469.318,-488.419 447,-424 445.932,-420.918 444.675,-417.844 443.274,-414.805"/>
<polygon fill="black" stroke="black" points="446.352,-413.136 438.688,-405.82 440.117,-416.318 446.352,-413.136"/>
</g>
<!-- vbf_stp_fetch -->
<g id="node10" class="node"><title>vbf_stp_fetch</title>
<polygon fill="none" stroke="grey" points="477.5,-436 477.5,-528 576.5,-528 576.5,-436 477.5,-436"/>
<text text-anchor="middle" x="527" y="-512.8" font-family="Times,serif" font-size="14.00" fill="grey">vbf_stp_fetch:</text>
<polyline fill="none" stroke="grey" points="477.5,-505 576.5,-505 "/>
<text text-anchor="middle" x="527" y="-489.8" font-family="Times,serif" font-size="14.00" fill="grey">setup VFPs</text>
<polyline fill="none" stroke="grey" points="477.5,-482 576.5,-482 "/>
<text text-anchor="middle" x="527" y="-466.8" font-family="Times,serif" font-size="14.00" fill="grey">get object</text>
<polyline fill="none" stroke="grey" points="477.5,-459 576.5,-459 "/>
<text text-anchor="middle" x="502" y="-443.8" font-family="Times,serif" font-size="14.00" fill="grey">error?</text>
<polyline fill="none" stroke="grey" points="526.5,-436 526.5,-459 "/>
<text text-anchor="middle" x="551.5" y="-443.8" font-family="Times,serif" font-size="14.00" fill="grey">body?</text>
</g>
<!-- v_b_r&#45;&gt;vbf_stp_fetch -->
<g id="edge11" class="edge"><title>v_b_r:non_304:s&#45;&gt;vbf_stp_fetch</title>
<path fill="none" stroke="black" d="M504,-577C504,-564.273 506.014,-550.848 508.85,-538.252"/>
<polygon fill="black" stroke="black" points="512.294,-538.903 511.277,-528.357 505.495,-537.235 512.294,-538.903"/>
</g>
<!-- FETCH_DONE -->
<g id="node13" class="node"><title>FETCH_DONE</title>
<polygon fill="turquoise" stroke="turquoise" points="372,-44 268,-44 268,-8 372,-8 372,-44"/>
<text text-anchor="middle" x="320" y="-22.3" font-family="Times,serif" font-size="14.00">FETCH_DONE</text>
</g>
<!-- v_b_e&#45;&gt;FETCH_DONE -->
<g id="edge18" class="edge"><title>v_b_e:deliver&#45;&gt;FETCH_DONE</title>
<path fill="none" stroke="black" d="M333,-424C333,-309.415 285.028,-283.15 295,-169 298.516,-128.756 307.534,-82.8201 313.72,-54.3619"/>
<polygon fill="black" stroke="black" points="317.19,-54.8792 315.935,-44.359 310.356,-53.3659 317.19,-54.8792"/>
<text text-anchor="middle" x="340.5" y="-172.8" font-family="Times,serif" font-size="14.00">&quot;backend synth&quot;</text>
</g>
<!-- FETCH_FAIL -->
<g id="node15" class="node"><title>FETCH_FAIL</title>
<polygon fill="turquoise" stroke="turquoise" points="163,-266.5 67,-266.5 67,-230.5 163,-230.5 163,-266.5"/>
<text text-anchor="middle" x="115" y="-244.8" font-family="Times,serif" font-size="14.00">FETCH_FAIL</text>
</g>
<!-- v_b_e&#45;&gt;FETCH_FAIL -->
<g id="edge20" class="edge"><title>v_b_e:max:s&#45;&gt;FETCH_FAIL</title>
<path fill="none" stroke="black" d="M184,-424C184,-368.018 152.909,-308.564 132.467,-275.525"/>
<polygon fill="black" stroke="black" points="135.33,-273.503 127.019,-266.932 129.418,-277.251 135.33,-273.503"/>
</g>
<!-- v_b_e_retry -->
<g id="node16" class="node"><title>v_b_e_retry</title>
<text text-anchor="middle" x="225" y="-244.8" font-family="Times,serif" font-size="14.00">RETRY</text>
</g>
<!-- v_b_e&#45;&gt;v_b_e_retry -->
<g id="edge19" class="edge"><title>v_b_e:retry&#45;&gt;v_b_e_retry</title>
<path fill="none" stroke="purple" d="M225,-424C225,-372.06 225,-311.425 225,-277.036"/>
<polygon fill="purple" stroke="purple" points="228.5,-276.837 225,-266.837 221.5,-276.837 228.5,-276.837"/>
</g>
<!-- vbf_stp_fetchend -->
<g id="node12" class="node"><title>vbf_stp_fetchend</title>
<polygon fill="none" stroke="grey" points="342.5,-81.5 342.5,-150.5 505.5,-150.5 505.5,-81.5 342.5,-81.5"/>
<text text-anchor="middle" x="424" y="-135.3" font-family="Times,serif" font-size="14.00" fill="grey">vbf_stp_fetchend:</text>
<polyline fill="none" stroke="grey" points="342.5,-127.5 505.5,-127.5 "/>
<text text-anchor="middle" x="424" y="-112.3" font-family="Times,serif" font-size="14.00" fill="grey">finalize object and director</text>
<polyline fill="none" stroke="grey" points="342.5,-104.5 505.5,-104.5 "/>
<text text-anchor="middle" x="424" y="-89.3" font-family="Times,serif" font-size="14.00" fill="grey">done</text>
</g>
<!-- vbf_stp_condfetch&#45;&gt;vbf_stp_fetchend -->
<g id="edge16" class="edge"><title>vbf_stp_condfetch:ok:s&#45;&gt;vbf_stp_fetchend</title>
<path fill="none" stroke="black" d="M444,-313C444,-287.702 404.792,-315.523 390,-295 361.474,-255.422 379.981,-198.481 399.009,-159.733"/>
<polygon fill="black" stroke="black" points="402.148,-161.282 403.572,-150.783 395.912,-158.103 402.148,-161.282"/>
</g>
<!-- vbf_stp_fetchbody -->
<g id="node11" class="node"><title>vbf_stp_fetchbody</title>
<polygon fill="none" stroke="grey" points="398.5,-202.5 398.5,-294.5 557.5,-294.5 557.5,-202.5 398.5,-202.5"/>
<text text-anchor="middle" x="478" y="-279.3" font-family="Times,serif" font-size="14.00" fill="grey">vbf_stp_fetchbody:</text>
<polyline fill="none" stroke="grey" points="398.5,-271.5 557.5,-271.5 "/>
<text text-anchor="middle" x="478" y="-256.3" font-family="Times,serif" font-size="14.00" fill="grey">get storage</text>
<polyline fill="none" stroke="grey" points="398.5,-248.5 557.5,-248.5 "/>
<text text-anchor="middle" x="478" y="-233.3" font-family="Times,serif" font-size="14.00" fill="grey">read body, run VFPs</text>
<polyline fill="none" stroke="grey" points="398.5,-225.5 557.5,-225.5 "/>
<text text-anchor="middle" x="435.5" y="-210.3" font-family="Times,serif" font-size="14.00" fill="grey">fetch_fail?</text>
<polyline fill="none" stroke="grey" points="472.5,-202.5 472.5,-225.5 "/>
<text text-anchor="middle" x="497" y="-210.3" font-family="Times,serif" font-size="14.00" fill="grey">error?</text>
<polyline fill="none" stroke="grey" points="521.5,-202.5 521.5,-225.5 "/>
<text text-anchor="middle" x="539.5" y="-210.3" font-family="Times,serif" font-size="14.00" fill="grey">ok?</text>
</g>
<!-- vbf_stp_fetch&#45;&gt;vbf_stp_fetchbody -->
<g id="edge13" class="edge"><title>vbf_stp_fetch:body:s&#45;&gt;vbf_stp_fetchbody</title>
<path fill="none" stroke="black" d="M552,-435C552,-388.333 531.545,-339.461 512.144,-303.602"/>
<polygon fill="black" stroke="black" points="515.158,-301.822 507.247,-294.775 509.037,-305.218 515.158,-301.822"/>
</g>
<!-- vbf_stp_fetch&#45;&gt;vbf_stp_fetchend -->
<g id="edge14" class="edge"><title>vbf_stp_fetch:body:s&#45;&gt;vbf_stp_fetchend</title>
<path fill="none" stroke="black" d="M552,-435C552,-331.258 602.593,-299.074 566,-202 556.964,-178.028 536.996,-160.443 514.807,-147.705"/>
<polygon fill="black" stroke="black" points="516.337,-144.553 505.874,-142.884 513.013,-150.713 516.337,-144.553"/>
</g>
<!-- vbf_stp_fetchbody&#45;&gt;vbf_stp_fetchend -->
<g id="edge12" class="edge"><title>vbf_stp_fetchbody:ok:s&#45;&gt;vbf_stp_fetchend</title>
<path fill="none" stroke="black" d="M540,-202C540,-182.334 529.018,-166.722 513.811,-154.533"/>
<polygon fill="black" stroke="black" points="515.649,-151.541 505.51,-148.467 511.519,-157.193 515.649,-151.541"/>
</g>
<!-- vbf_stp_fetchend&#45;&gt;FETCH_DONE -->
<g id="edge15" class="edge"><title>vbf_stp_fetchend:done:s&#45;&gt;FETCH_DONE</title>
<path fill="none" stroke="black" d="M424,-81C424,-58.3033 404.249,-45.1333 381.962,-37.4971"/>
<polygon fill="black" stroke="black" points="382.891,-34.1214 372.305,-34.5516 380.849,-40.8169 382.891,-34.1214"/>
</g>
<!-- error -->
<g id="node14" class="node"><title>error</title>
<text text-anchor="middle" x="115" y="-478.3" font-family="Times,serif" font-size="14.00">error</text>
</g>
<!-- error&#45;&gt;FETCH_FAIL -->
<g id="edge17" class="edge"><title>error&#45;&gt;FETCH_FAIL</title>
<path fill="none" stroke="black" d="M115,-463.977C115,-424.176 115,-324.764 115,-276.558"/>
<polygon fill="black" stroke="black" points="118.5,-276.548 115,-266.548 111.5,-276.548 118.5,-276.548"/>
</g>
<!-- abandon -->
<g id="node17" class="node"><title>abandon</title>
<text text-anchor="middle" x="39" y="-478.3" font-family="Times,serif" font-size="14.00">abandon</text>
</g>
<!-- abandon&#45;&gt;FETCH_FAIL -->
<g id="edge21" class="edge"><title>abandon&#45;&gt;FETCH_FAIL</title>
<path fill="none" stroke="black" d="M44.5885,-463.977C57.6824,-424.092 90.4285,-324.346 106.216,-276.255"/>
<polygon fill="black" stroke="black" points="109.61,-277.141 109.403,-266.548 102.959,-274.957 109.61,-277.141"/>
</g>
</g>
</svg>
