<?xml version="1.0" encoding="UTF-8" standalone="no"?>
<!DOCTYPE svg PUBLIC "-//W3C//DTD SVG 1.1//EN"
 "http://www.w3.org/Graphics/SVG/1.1/DTD/svg11.dtd">
<!-- Generated by graphviz version 2.44.0 (0)
 -->
<!-- Title: vcl_center Pages: 1 -->
<svg width="696pt" height="606pt"
 viewBox="36.00 36.00 659.74 570.00" xmlns="http://www.w3.org/2000/svg" xmlns:xlink="http://www.w3.org/1999/xlink">
<g id="graph0" class="graph" transform="scale(1 1) rotate(0) translate(40 566)">
<title>vcl_center</title>
<polygon fill="white" stroke="transparent" points="-4,4 -4,-530 619.74,-530 619.74,4 -4,4"/>
<!-- acceptor -->
<g id="node1" class="node">
<title>acceptor</title>
<ellipse fill="none" stroke="black" cx="437.74" cy="-508" rx="50.09" ry="18"/>
<text text-anchor="middle" x="437.74" y="-504.3" font-family="Times-Roman" font-size="14.00">acceptor</text>
</g>
<!-- http1_wait -->
<g id="node2" class="node">
<title>http1_wait</title>
<ellipse fill="none" stroke="black" cx="437.74" cy="-421" rx="57.69" ry="18"/>
<text text-anchor="middle" x="437.74" y="-417.3" font-family="Times-Roman" font-size="14.00">http1_wait</text>
</g>
<!-- acceptor&#45;&gt;http1_wait -->
<g id="edge1" class="edge">
<title>acceptor&#45;&gt;http1_wait</title>
<path fill="none" stroke="black" d="M437.74,-489.8C437.74,-478.16 437.74,-462.55 437.74,-449.24"/>
<polygon fill="black" stroke="black" points="441.24,-449.18 437.74,-439.18 434.24,-449.18 441.24,-449.18"/>
<text text-anchor="middle" x="493.74" y="-460.8" font-family="Times-Roman" font-size="14.00">S_STP_NEWREQ</text>
</g>
<!-- CNT_Request -->
<g id="node4" class="node">
<title>CNT_Request</title>
<ellipse fill="none" stroke="black" cx="131.74" cy="-319" rx="70.69" ry="18"/>
<text text-anchor="middle" x="131.74" y="-315.3" font-family="Times-Roman" font-size="14.00">CNT_Request</text>
</g>
<!-- http1_wait&#45;&gt;CNT_Request -->
<g id="edge4" class="edge">
<title>http1_wait&#45;&gt;CNT_Request</title>
<path fill="none" stroke="black" d="M380.26,-418.74C310.9,-416.18 199.39,-408.44 165.74,-385 152.7,-375.92 144.3,-360.26 139.11,-346.58"/>
<polygon fill="black" stroke="black" points="142.41,-345.44 135.88,-337.1 135.79,-347.7 142.41,-345.44"/>
<text text-anchor="middle" x="224.74" y="-373.8" font-family="Times-Roman" font-size="14.00">S_STP_WORKING</text>
<text text-anchor="middle" x="224.74" y="-358.8" font-family="Times-Roman" font-size="14.00">R_STP_RECV</text>
</g>
<!-- disembark -->
<g id="node5" class="node">
<title>disembark</title>
<ellipse fill="none" stroke="black" cx="370.74" cy="-91" rx="58.49" ry="18"/>
<text text-anchor="middle" x="370.74" y="-87.3" font-family="Times-Roman" font-size="14.00">disembark</text>
</g>
<!-- http1_wait&#45;&gt;disembark -->
<g id="edge5" class="edge">
<title>http1_wait&#45;&gt;disembark</title>
<path fill="none" stroke="black" d="M436.46,-402.96C431.82,-341.3 415.95,-133.17 412.74,-127 410.33,-122.38 407.03,-118.14 403.32,-114.32"/>
<polygon fill="black" stroke="black" points="405.59,-111.65 395.83,-107.51 400.88,-116.83 405.59,-111.65"/>
<text text-anchor="middle" x="473.74" y="-264.3" font-family="Times-Roman" font-size="14.00">Session close</text>
</g>
<!-- http1_wait&#45;&gt;disembark -->
<g id="edge6" class="edge">
<title>http1_wait&#45;&gt;disembark</title>
<path fill="none" stroke="green" d="M455.93,-403.64C485.99,-374.52 540.91,-311.26 521.74,-253 499.98,-186.89 480.19,-173.88 428.74,-127 422.75,-121.54 415.78,-116.49 408.8,-112.01"/>
<polygon fill="green" stroke="green" points="410.37,-108.88 400.01,-106.67 406.74,-114.86 410.37,-108.88"/>
<text text-anchor="middle" x="553.24" y="-264.3" font-family="Times-Roman" font-size="14.00">Timeout</text>
</g>
<!-- hash -->
<g id="node3" class="node">
<title>hash</title>
<ellipse fill="none" stroke="black" cx="198.74" cy="-18" rx="32.49" ry="18"/>
<text text-anchor="middle" x="198.74" y="-14.3" font-family="Times-Roman" font-size="14.00">hash</text>
</g>
<!-- hash&#45;&gt;CNT_Request -->
<g id="edge2" class="edge">
<title>hash&#45;&gt;CNT_Request</title>
<path fill="none" stroke="blue" d="M169.14,-25.94C125.22,-38.02 44.26,-67.51 9.74,-127 -26.59,-189.6 52.28,-260.86 99.56,-296.01"/>
<polygon fill="blue" stroke="blue" points="97.55,-298.88 107.7,-301.94 101.68,-293.22 97.55,-298.88"/>
<text text-anchor="middle" x="68.74" y="-160.8" font-family="Times-Roman" font-size="14.00">Busy object</text>
<text text-anchor="middle" x="68.74" y="-145.8" font-family="Times-Roman" font-size="14.00">S_STP_WORKING</text>
<text text-anchor="middle" x="68.74" y="-130.8" font-family="Times-Roman" font-size="14.00">R_STP_LOOKUP</text>
</g>
<!-- CNT_Request&#45;&gt;disembark -->
<g id="edge9" class="edge">
<title>CNT_Request&#45;&gt;disembark</title>
<path fill="none" stroke="blue" d="M122.92,-300.95C110.68,-274.67 92.53,-223.78 115.74,-190 157.75,-128.84 243.65,-105.83 304.11,-97.19"/>
<polygon fill="blue" stroke="blue" points="304.88,-100.62 314.33,-95.83 303.95,-93.68 304.88,-100.62"/>
<text text-anchor="middle" x="174.74" y="-223.8" font-family="Times-Roman" font-size="14.00">Busy object</text>
<text text-anchor="middle" x="174.74" y="-208.8" font-family="Times-Roman" font-size="14.00">S_STP_WORKING</text>
<text text-anchor="middle" x="174.74" y="-193.8" font-family="Times-Roman" font-size="14.00">R_STP_LOOKUP</text>
</g>
<!-- http1_cleanup -->
<g id="node7" class="node">
<title>http1_cleanup</title>
<ellipse fill="none" stroke="black" cx="317.74" cy="-212.5" rx="75.29" ry="18"/>
<text text-anchor="middle" x="317.74" y="-208.8" font-family="Times-Roman" font-size="14.00">http1_cleanup</text>
</g>
<!-- CNT_Request&#45;&gt;http1_cleanup -->
<g id="edge10" class="edge">
<title>CNT_Request&#45;&gt;http1_cleanup</title>
<path fill="none" stroke="black" d="M130.65,-300.97C130.69,-286.27 133.26,-265.5 145.74,-253 172.41,-226.29 191.95,-243.43 228.74,-235 237.94,-232.89 247.66,-230.6 257.16,-228.34"/>
<polygon fill="black" stroke="black" points="258.05,-231.72 266.96,-225.99 256.42,-224.92 258.05,-231.72"/>
</g>
<!-- disembark&#45;&gt;hash -->
<g id="edge3" class="edge">
<title>disembark&#45;&gt;hash</title>
<path fill="none" stroke="blue" stroke-dasharray="1,5" d="M337.17,-76.14C307.26,-63.8 263.68,-45.81 233.44,-33.32"/>
<polygon fill="blue" stroke="blue" points="234.7,-30.06 224.12,-29.48 232.03,-36.53 234.7,-30.06"/>
</g>
<!-- waiter -->
<g id="node6" class="node">
<title>waiter</title>
<ellipse fill="none" stroke="black" cx="509.74" cy="-18" rx="38.19" ry="18"/>
<text text-anchor="middle" x="509.74" y="-14.3" font-family="Times-Roman" font-size="14.00">waiter</text>
</g>
<!-- disembark&#45;&gt;waiter -->
<g id="edge7" class="edge">
<title>disembark&#45;&gt;waiter</title>
<path fill="none" stroke="green" stroke-dasharray="1,5" d="M399.54,-75.29C421.62,-64.01 452.18,-48.4 475.51,-36.48"/>
<polygon fill="green" stroke="green" points="477.39,-39.45 484.7,-31.79 474.2,-33.22 477.39,-39.45"/>
</g>
<!-- waiter&#45;&gt;http1_wait -->
<g id="edge8" class="edge">
<title>waiter&#45;&gt;http1_wait</title>
<path fill="none" stroke="green" d="M543.57,-26.6C574.59,-35.8 615.74,-54.67 615.74,-90 615.74,-320 615.74,-320 615.74,-320 615.74,-374.5 551.53,-399.6 500.24,-410.97"/>
<polygon fill="green" stroke="green" points="499.26,-407.6 490.18,-413.06 500.68,-414.45 499.26,-407.6"/>
</g>
<!-- http1_cleanup&#45;&gt;http1_wait -->
<g id="edge13" class="edge">
<title>http1_cleanup&#45;&gt;http1_wait</title>
<path fill="none" stroke="black" d="M311.62,-230.7C303.82,-255.75 293.41,-302.98 311.74,-337 328.54,-368.18 362.74,-389.58 391.28,-402.83"/>
<polygon fill="black" stroke="black" points="390.14,-406.16 400.7,-407.01 392.98,-399.76 390.14,-406.16"/>
<text text-anchor="middle" x="367.74" y="-315.3" font-family="Times-Roman" font-size="14.00">S_STP_NEWREQ</text>
</g>
<!-- http1_cleanup&#45;&gt;CNT_Request -->
<g id="edge12" class="edge">
<title>http1_cleanup&#45;&gt;CNT_Request</title>
<path fill="none" stroke="black" d="M266.53,-225.76C224.02,-236.1 169.85,-249.73 165.74,-253 153.58,-262.66 145.29,-277.86 139.94,-291.14"/>
<polygon fill="black" stroke="black" points="136.56,-290.19 136.41,-300.79 143.14,-292.6 136.56,-290.19"/>
<text text-anchor="middle" x="224.74" y="-271.8" font-family="Times-Roman" font-size="14.00">S_STP_WORKING</text>
<text text-anchor="middle" x="224.74" y="-256.8" font-family="Times-Roman" font-size="14.00">R_STP_RECV</text>
</g>
<!-- http1_cleanup&#45;&gt;disembark -->
<g id="edge11" class="edge">
<title>http1_cleanup&#45;&gt;disembark</title>
<path fill="none" stroke="black" d="M313.54,-194.48C310.08,-176.55 307.38,-148.04 318.74,-127 321.79,-121.34 326.2,-116.44 331.19,-112.23"/>
<polygon fill="black" stroke="black" points="333.4,-114.95 339.37,-106.19 329.24,-109.31 333.4,-114.95"/>
<text text-anchor="middle" x="365.74" y="-145.8" font-family="Times-Roman" font-size="14.00">Session close</text>
</g>
</g>
</svg>
