<?xml version="1.0" encoding="UTF-8" standalone="no"?>
<!DOCTYPE svg PUBLIC "-//W3C//DTD SVG 1.1//EN"
 "http://www.w3.org/Graphics/SVG/1.1/DTD/svg11.dtd">
<!-- Generated by graphviz version 2.43.0 (0)
 -->
<!-- Title: cache_fetch Pages: 1 -->
<svg width="860pt" height="1219pt"
 viewBox="36.00 36.00 824.00 1182.74" xmlns="http://www.w3.org/2000/svg" xmlns:xlink="http://www.w3.org/1999/xlink">
<g id="graph0" class="graph" transform="scale(1 1) rotate(0) translate(40 1178.74)">
<title>cache_fetch</title>
<polygon fill="white" stroke="transparent" points="-4,4 -4,-1142.74 784,-1142.74 784,4 -4,4"/>
<g id="clust1" class="cluster">
<title>cluster_backend</title>
<polygon fill="aliceblue" stroke="aliceblue" points="8,-8 8,-1130.74 772,-1130.74 772,-8 8,-8"/>
</g>
<!-- RETRY -->
<g id="node1" class="node">
<title>RETRY</title>
<text text-anchor="middle" x="273" y="-1109.04" font-family="Times,serif" font-size="14.00">RETRY</text>
</g>
<!-- v_b_f -->
<g id="node4" class="node">
<title>v_b_f</title>
<polygon fill="none" stroke="black" points="13.5,-988.24 13.5,-1057.24 246.5,-1057.24 246.5,-988.24 13.5,-988.24"/>
<text text-anchor="middle" x="130" y="-1042.04" font-family="Times,serif" font-size="14.00">vbf_stp_startfetch:</text>
<polyline fill="none" stroke="black" points="13.5,-1034.24 246.5,-1034.24 "/>
<text text-anchor="middle" x="95.5" y="-1019.04" font-family="Times,serif" font-size="14.00">vcl_backend_fetch{}</text>
<polyline fill="none" stroke="black" points="177.5,-1011.24 177.5,-1034.24 "/>
<text text-anchor="middle" x="212" y="-1019.04" font-family="Times,serif" font-size="14.00">bereq.*</text>
<polyline fill="none" stroke="black" points="13.5,-1011.24 246.5,-1011.24 "/>
<text text-anchor="middle" x="41" y="-996.04" font-family="Times,serif" font-size="14.00">error</text>
<polyline fill="none" stroke="black" points="68.5,-988.24 68.5,-1011.24 "/>
<text text-anchor="middle" x="89.5" y="-996.04" font-family="Times,serif" font-size="14.00">fail</text>
<polyline fill="none" stroke="black" points="110.5,-988.24 110.5,-1011.24 "/>
<text text-anchor="middle" x="150.5" y="-996.04" font-family="Times,serif" font-size="14.00">abandon</text>
<polyline fill="none" stroke="black" points="190.5,-988.24 190.5,-1011.24 "/>
<text text-anchor="middle" x="218.5" y="-996.04" font-family="Times,serif" font-size="14.00">fetch</text>
</g>
<!-- RETRY&#45;&gt;v_b_f -->
<g id="edge4" class="edge">
<title>RETRY&#45;&gt;v_b_f</title>
<path fill="none" stroke="purple" d="M245.09,-1094.56C230.28,-1085.45 211.44,-1073.86 193.31,-1062.7"/>
<polygon fill="purple" stroke="purple" points="194.84,-1059.53 184.49,-1057.27 191.17,-1065.49 194.84,-1059.53"/>
</g>
<!-- v_b_f_BGFETCH -->
<g id="node2" class="node">
<title>v_b_f_BGFETCH</title>
<polygon fill="turquoise" stroke="turquoise" points="222,-1130.74 132,-1130.74 132,-1094.74 222,-1094.74 222,-1130.74"/>
<text text-anchor="middle" x="177" y="-1109.04" font-family="Times,serif" font-size="14.00">BGFETCH</text>
</g>
<!-- v_b_f_BGFETCH&#45;&gt;v_b_f -->
<g id="edge1" class="edge">
<title>v_b_f_BGFETCH&#45;&gt;v_b_f</title>
<path fill="none" stroke="green" stroke-width="2" d="M167.71,-1094.35C163.41,-1086.3 158.09,-1076.34 152.82,-1066.47"/>
<polygon fill="green" stroke="green" stroke-width="2" points="155.82,-1064.65 148.02,-1057.48 149.65,-1067.95 155.82,-1064.65"/>
</g>
<!-- v_b_f_FETCH -->
<g id="node3" class="node">
<title>v_b_f_FETCH</title>
<polygon fill="turquoise" stroke="turquoise" points="114,-1130.74 46,-1130.74 46,-1094.74 114,-1094.74 114,-1130.74"/>
<text text-anchor="middle" x="80" y="-1109.04" font-family="Times,serif" font-size="14.00">FETCH</text>
</g>
<!-- v_b_f_FETCH&#45;&gt;v_b_f -->
<g id="edge2" class="edge">
<title>v_b_f_FETCH&#45;&gt;v_b_f</title>
<path fill="none" stroke="blue" stroke-width="2" d="M84.37,-1094.35C88.12,-1086.22 93.43,-1076.14 99.15,-1066.17"/>
<polygon fill="blue" stroke="blue" stroke-width="2" points="102.2,-1067.88 104.24,-1057.48 96.16,-1064.34 102.2,-1067.88"/>
</g>
<!-- v_b_f_FETCH&#45;&gt;v_b_f -->
<g id="edge3" class="edge">
<title>v_b_f_FETCH&#45;&gt;v_b_f</title>
<path fill="none" stroke="red" stroke-width="2" d="M95.38,-1094.35C100.83,-1086.3 106.9,-1076.34 112.47,-1066.47"/>
<polygon fill="red" stroke="red" stroke-width="2" points="115.66,-1067.93 117.41,-1057.48 109.53,-1064.56 115.66,-1067.93"/>
</g>
<!-- v_b_e -->
<g id="node5" class="node">
<title>v_b_e</title>
<polygon fill="none" stroke="black" points="176.5,-424.5 176.5,-539.5 453.5,-539.5 453.5,-424.5 176.5,-424.5"/>
<text text-anchor="middle" x="315" y="-524.3" font-family="Times,serif" font-size="14.00">vbf_stp_error:</text>
<polyline fill="none" stroke="black" points="176.5,-516.5 453.5,-516.5 "/>
<text text-anchor="middle" x="267.5" y="-489.8" font-family="Times,serif" font-size="14.00">vcl_backend_error{}</text>
<polyline fill="none" stroke="black" points="358.5,-470.5 358.5,-516.5 "/>
<text text-anchor="middle" x="406" y="-501.3" font-family="Times,serif" font-size="14.00">bereq.*</text>
<polyline fill="none" stroke="black" points="358.5,-493.5 453.5,-493.5 "/>
<text text-anchor="middle" x="406" y="-478.3" font-family="Times,serif" font-size="14.00">beresp.*</text>
<polyline fill="none" stroke="black" points="176.5,-470.5 453.5,-470.5 "/>
<text text-anchor="middle" x="243.5" y="-455.3" font-family="Times,serif" font-size="14.00">retry</text>
<polyline fill="none" stroke="black" points="176.5,-447.5 310.5,-447.5 "/>
<text text-anchor="middle" x="196" y="-432.3" font-family="Times,serif" font-size="14.00">fail</text>
<polyline fill="none" stroke="black" points="215.5,-424.5 215.5,-447.5 "/>
<text text-anchor="middle" x="242.5" y="-432.3" font-family="Times,serif" font-size="14.00">max?</text>
<polyline fill="none" stroke="black" points="269.5,-424.5 269.5,-447.5 "/>
<text text-anchor="middle" x="290" y="-432.3" font-family="Times,serif" font-size="14.00">ok?</text>
<polyline fill="none" stroke="black" points="310.5,-424.5 310.5,-470.5 "/>
<text text-anchor="middle" x="349" y="-443.8" font-family="Times,serif" font-size="14.00">abandon</text>
<polyline fill="none" stroke="black" points="387.5,-424.5 387.5,-470.5 "/>
<text text-anchor="middle" x="420.5" y="-443.8" font-family="Times,serif" font-size="14.00">deliver</text>
</g>
<!-- v_b_f&#45;&gt;v_b_e -->
<g id="edge5" class="edge">
<title>v_b_f:s&#45;&gt;v_b_e</title>
<path fill="none" stroke="black" d="M41,-987.74C41,-956.39 9,-956.22 9,-924.87 9,-924.87 9,-924.87 9,-634 9,-607.69 6.22,-595.43 25,-577 69.37,-533.46 101.76,-557.45 166.35,-539.91"/>
<polygon fill="black" stroke="black" points="167.53,-543.21 176.12,-537.01 165.54,-536.5 167.53,-543.21"/>
</g>
<!-- v_b_hdrs -->
<g id="node6" class="node">
<title>v_b_hdrs</title>
<ellipse fill="none" stroke="black" cx="330" cy="-923.87" rx="123.07" ry="26.74"/>
<text text-anchor="middle" x="330" y="-927.67" font-family="Times,serif" font-size="14.00">send bereq,</text>
<text text-anchor="middle" x="330" y="-912.67" font-family="Times,serif" font-size="14.00">read beresp (headers)</text>
</g>
<!-- v_b_f&#45;&gt;v_b_hdrs -->
<g id="edge6" class="edge">
<title>v_b_f:s&#45;&gt;v_b_hdrs</title>
<path fill="none" stroke="black" stroke-width="2" d="M219,-987.74C219,-971.14 228.51,-958.87 241.97,-949.82"/>
<polygon fill="black" stroke="black" stroke-width="2" points="243.98,-952.7 250.81,-944.59 240.42,-946.67 243.98,-952.7"/>
</g>
<!-- FETCH_DONE -->
<g id="node16" class="node">
<title>FETCH_DONE</title>
<polygon fill="turquoise" stroke="turquoise" points="510,-44 390,-44 390,-8 510,-8 510,-44"/>
<text text-anchor="middle" x="450" y="-22.3" font-family="Times,serif" font-size="14.00">FETCH_DONE</text>
</g>
<!-- v_b_e&#45;&gt;FETCH_DONE -->
<g id="edge30" class="edge">
<title>v_b_e:deliver&#45;&gt;FETCH_DONE</title>
<path fill="none" stroke="black" d="M421,-424C421,-284.85 438.94,-119 446.6,-54.53"/>
<polygon fill="black" stroke="black" points="450.1,-54.73 447.82,-44.38 443.15,-53.89 450.1,-54.73"/>
<text text-anchor="middle" x="493" y="-172.8" font-family="Times,serif" font-size="14.00">&quot;backend synth&quot;</text>
</g>
<!-- FETCH_FAIL -->
<g id="node18" class="node">
<title>FETCH_FAIL</title>
<polygon fill="turquoise" stroke="turquoise" points="184.5,-266.5 77.5,-266.5 77.5,-230.5 184.5,-230.5 184.5,-266.5"/>
<text text-anchor="middle" x="131" y="-244.8" font-family="Times,serif" font-size="14.00">FETCH_FAIL</text>
</g>
<!-- v_b_e&#45;&gt;FETCH_FAIL -->
<g id="edge32" class="edge">
<title>v_b_e:s&#45;&gt;FETCH_FAIL</title>
<path fill="none" stroke="black" d="M242,-424C242,-362.17 191.78,-304.57 158.9,-273.48"/>
<polygon fill="black" stroke="black" points="161.08,-270.73 151.36,-266.53 156.34,-275.88 161.08,-270.73"/>
</g>
<!-- v_b_e_retry -->
<g id="node19" class="node">
<title>v_b_e_retry</title>
<text text-anchor="middle" x="290" y="-244.8" font-family="Times,serif" font-size="14.00">RETRY</text>
</g>
<!-- v_b_e&#45;&gt;v_b_e_retry -->
<g id="edge31" class="edge">
<title>v_b_e:retry&#45;&gt;v_b_e_retry</title>
<path fill="none" stroke="purple" d="M290,-424C290,-372.06 290,-311.42 290,-277.04"/>
<polygon fill="purple" stroke="purple" points="293.5,-276.84 290,-266.84 286.5,-276.84 293.5,-276.84"/>
</g>
<!-- v_b_hdrs&#45;&gt;v_b_e -->
<g id="edge9" class="edge">
<title>v_b_hdrs&#45;&gt;v_b_e</title>
<path fill="none" stroke="black" d="M227.12,-909.1C153.03,-896.83 62.2,-876.12 39,-846 2.25,-798.28 32.88,-622.79 72,-577 72.25,-576.71 116.31,-559.63 166.85,-540.12"/>
<polygon fill="black" stroke="black" points="168.28,-543.31 176.35,-536.45 165.76,-536.78 168.28,-543.31"/>
</g>
<!-- v_b_r -->
<g id="node8" class="node">
<title>v_b_r</title>
<polygon fill="none" stroke="black" points="386,-577.5 386,-692.5 772,-692.5 772,-577.5 386,-577.5"/>
<text text-anchor="middle" x="579" y="-677.3" font-family="Times,serif" font-size="14.00">vbf_stp_startfetch:</text>
<polyline fill="none" stroke="black" points="386,-669.5 772,-669.5 "/>
<text text-anchor="middle" x="511" y="-642.8" font-family="Times,serif" font-size="14.00">vcl_backend_response{}</text>
<polyline fill="none" stroke="black" points="636,-623.5 636,-669.5 "/>
<text text-anchor="middle" x="704" y="-654.3" font-family="Times,serif" font-size="14.00">bereq.*</text>
<polyline fill="none" stroke="black" points="636,-646.5 772,-646.5 "/>
<text text-anchor="middle" x="704" y="-631.3" font-family="Times,serif" font-size="14.00">beresp.*</text>
<polyline fill="none" stroke="black" points="386,-623.5 772,-623.5 "/>
<text text-anchor="middle" x="412.5" y="-596.8" font-family="Times,serif" font-size="14.00">error</text>
<polyline fill="none" stroke="black" points="439,-577.5 439,-623.5 "/>
<text text-anchor="middle" x="458.5" y="-596.8" font-family="Times,serif" font-size="14.00">fail</text>
<polyline fill="none" stroke="black" points="478,-577.5 478,-623.5 "/>
<text text-anchor="middle" x="525.5" y="-608.3" font-family="Times,serif" font-size="14.00">retry</text>
<polyline fill="none" stroke="black" points="478,-600.5 573,-600.5 "/>
<text text-anchor="middle" x="505" y="-585.3" font-family="Times,serif" font-size="14.00">max?</text>
<polyline fill="none" stroke="black" points="532,-577.5 532,-600.5 "/>
<text text-anchor="middle" x="552.5" y="-585.3" font-family="Times,serif" font-size="14.00">ok?</text>
<polyline fill="none" stroke="black" points="573,-577.5 573,-623.5 "/>
<text text-anchor="middle" x="611.5" y="-596.8" font-family="Times,serif" font-size="14.00">abandon</text>
<polyline fill="none" stroke="black" points="650,-577.5 650,-623.5 "/>
<text text-anchor="middle" x="711" y="-608.3" font-family="Times,serif" font-size="14.00">deliver or pass</text>
<polyline fill="none" stroke="black" points="650,-600.5 772,-600.5 "/>
<text text-anchor="middle" x="677.5" y="-585.3" font-family="Times,serif" font-size="14.00">304?</text>
<polyline fill="none" stroke="black" points="705,-577.5 705,-600.5 "/>
<text text-anchor="middle" x="738.5" y="-585.3" font-family="Times,serif" font-size="14.00">other?</text>
</g>
<!-- v_b_hdrs&#45;&gt;v_b_r -->
<g id="edge8" class="edge">
<title>v_b_hdrs&#45;&gt;v_b_r</title>
<path fill="none" stroke="black" stroke-width="2" d="M434.2,-909.52C509.95,-897.42 603.2,-876.75 627,-846 658.81,-804.91 641.95,-746.58 619.89,-701.81"/>
<polygon fill="black" stroke="black" stroke-width="2" points="622.93,-700.07 615.27,-692.76 616.7,-703.26 622.93,-700.07"/>
<text text-anchor="middle" x="703" y="-784.3" font-family="Times,serif" font-size="14.00">&quot;no stale object&quot;</text>
</g>
<!-- v_b_refresh -->
<g id="node9" class="node">
<title>v_b_refresh</title>
<polygon fill="none" stroke="black" points="48,-730.5 48,-845.5 618,-845.5 618,-730.5 48,-730.5"/>
<text text-anchor="middle" x="333" y="-830.3" font-family="Times,serif" font-size="14.00">vbf_stp_startfetch:</text>
<polyline fill="none" stroke="black" points="48,-822.5 618,-822.5 "/>
<text text-anchor="middle" x="216" y="-795.8" font-family="Times,serif" font-size="14.00">vcl_backend_refresh{}</text>
<polyline fill="none" stroke="black" points="384,-776.5 384,-822.5 "/>
<text text-anchor="middle" x="501" y="-807.3" font-family="Times,serif" font-size="14.00">bereq.*</text>
<polyline fill="none" stroke="black" points="384,-799.5 618,-799.5 "/>
<text text-anchor="middle" x="501" y="-784.3" font-family="Times,serif" font-size="14.00">beresp.*</text>
<polyline fill="none" stroke="black" points="48,-776.5 618,-776.5 "/>
<text text-anchor="middle" x="74.5" y="-749.8" font-family="Times,serif" font-size="14.00">error</text>
<polyline fill="none" stroke="black" points="101,-730.5 101,-776.5 "/>
<text text-anchor="middle" x="120.5" y="-749.8" font-family="Times,serif" font-size="14.00">fail</text>
<polyline fill="none" stroke="black" points="140,-730.5 140,-776.5 "/>
<text text-anchor="middle" x="187.5" y="-761.3" font-family="Times,serif" font-size="14.00">retry</text>
<polyline fill="none" stroke="black" points="140,-753.5 235,-753.5 "/>
<text text-anchor="middle" x="167" y="-738.3" font-family="Times,serif" font-size="14.00">max?</text>
<polyline fill="none" stroke="black" points="194,-730.5 194,-753.5 "/>
<text text-anchor="middle" x="214.5" y="-738.3" font-family="Times,serif" font-size="14.00">ok?</text>
<polyline fill="none" stroke="black" points="235,-730.5 235,-776.5 "/>
<text text-anchor="middle" x="284.5" y="-761.3" font-family="Times,serif" font-size="14.00">retry(fetch)</text>
<polyline fill="none" stroke="black" points="235,-753.5 334,-753.5 "/>
<text text-anchor="middle" x="263" y="-738.3" font-family="Times,serif" font-size="14.00">max?</text>
<polyline fill="none" stroke="black" points="291,-730.5 291,-753.5 "/>
<text text-anchor="middle" x="312.5" y="-738.3" font-family="Times,serif" font-size="14.00">ok?</text>
<polyline fill="none" stroke="black" points="334,-730.5 334,-776.5 "/>
<text text-anchor="middle" x="372.5" y="-749.8" font-family="Times,serif" font-size="14.00">abandon</text>
<polyline fill="none" stroke="black" points="411,-730.5 411,-776.5 "/>
<text text-anchor="middle" x="442" y="-749.8" font-family="Times,serif" font-size="14.00">merge</text>
<polyline fill="none" stroke="black" points="473,-730.5 473,-776.5 "/>
<text text-anchor="middle" x="513" y="-749.8" font-family="Times,serif" font-size="14.00">obj_stale</text>
<polyline fill="none" stroke="black" points="553,-730.5 553,-776.5 "/>
<text text-anchor="middle" x="585.5" y="-749.8" font-family="Times,serif" font-size="14.00">beresp</text>
</g>
<!-- v_b_hdrs&#45;&gt;v_b_refresh -->
<g id="edge10" class="edge">
<title>v_b_hdrs&#45;&gt;v_b_refresh</title>
<path fill="none" stroke="black" stroke-width="2" d="M330.59,-896.74C330.85,-884.87 331.18,-870.23 331.51,-855.61"/>
<polygon fill="black" stroke="black" stroke-width="2" points="335.01,-855.61 331.73,-845.53 328.01,-855.45 335.01,-855.61"/>
<text text-anchor="middle" x="379.5" y="-867.8" font-family="Times,serif" font-size="14.00">&quot;stale object&quot;</text>
</g>
<!-- RETRY_FETCH -->
<g id="node7" class="node">
<title>RETRY_FETCH</title>
<text text-anchor="middle" x="330" y="-1019.04" font-family="Times,serif" font-size="14.00">RETRY_FETCH</text>
</g>
<!-- RETRY_FETCH&#45;&gt;v_b_hdrs -->
<g id="edge7" class="edge">
<title>RETRY_FETCH&#45;&gt;v_b_hdrs</title>
<path fill="none" stroke="black" stroke-width="2" d="M330,-1004.42C330,-992.42 330,-976.01 330,-961.2"/>
<polygon fill="black" stroke="black" stroke-width="2" points="333.5,-960.79 330,-950.79 326.5,-960.79 333.5,-960.79"/>
</g>
<!-- v_b_r&#45;&gt;v_b_e -->
<g id="edge19" class="edge">
<title>v_b_r:s&#45;&gt;v_b_e</title>
<path fill="none" stroke="black" d="M412,-577C412,-568.87 404.89,-558.25 394.52,-547.09"/>
<polygon fill="black" stroke="black" points="396.77,-544.39 387.27,-539.7 391.77,-549.29 396.77,-544.39"/>
</g>
<!-- v_b_r&#45;&gt;v_b_e -->
<g id="edge21" class="edge">
<title>v_b_r:max&#45;&gt;v_b_e</title>
<path fill="none" stroke="black" d="M505,-577C505,-562.6 487.24,-548.21 462.58,-535.19"/>
<polygon fill="black" stroke="black" points="464.09,-532.03 453.58,-530.64 460.93,-538.27 464.09,-532.03"/>
</g>
<!-- v_b_r_retry -->
<g id="node10" class="node">
<title>v_b_r_retry</title>
<text text-anchor="middle" x="516" y="-478.3" font-family="Times,serif" font-size="14.00">RETRY</text>
</g>
<!-- v_b_r&#45;&gt;v_b_r_retry -->
<g id="edge20" class="edge">
<title>v_b_r:retry&#45;&gt;v_b_r_retry</title>
<path fill="none" stroke="purple" d="M552,-577C552,-552.89 541.55,-527.47 531.9,-509.15"/>
<polygon fill="purple" stroke="purple" points="534.89,-507.33 527,-500.26 528.77,-510.71 534.89,-507.33"/>
</g>
<!-- vbf_stp_condfetch -->
<g id="node12" class="node">
<title>vbf_stp_condfetch</title>
<polygon fill="none" stroke="grey" points="469.5,-313.5 469.5,-405.5 618.5,-405.5 618.5,-313.5 469.5,-313.5"/>
<text text-anchor="middle" x="544" y="-390.3" font-family="Times,serif" font-size="14.00" fill="grey">vbf_stp_condfetch:</text>
<polyline fill="none" stroke="grey" points="469.5,-382.5 618.5,-382.5 "/>
<text text-anchor="middle" x="544" y="-367.3" font-family="Times,serif" font-size="14.00" fill="grey">copy obj attr</text>
<polyline fill="none" stroke="grey" points="469.5,-359.5 618.5,-359.5 "/>
<text text-anchor="middle" x="544" y="-344.3" font-family="Times,serif" font-size="14.00" fill="grey">steal body</text>
<polyline fill="none" stroke="grey" points="469.5,-336.5 618.5,-336.5 "/>
<text text-anchor="middle" x="518.5" y="-321.3" font-family="Times,serif" font-size="14.00" fill="grey">fetch_fail?</text>
<polyline fill="none" stroke="grey" points="567.5,-313.5 567.5,-336.5 "/>
<text text-anchor="middle" x="593" y="-321.3" font-family="Times,serif" font-size="14.00" fill="grey">ok?</text>
</g>
<!-- v_b_r&#45;&gt;vbf_stp_condfetch -->
<g id="edge22" class="edge">
<title>v_b_r:s&#45;&gt;vbf_stp_condfetch</title>
<path fill="none" stroke="black" d="M678,-577C678,-554.36 656.35,-558.28 643,-540 614.07,-500.39 587.6,-451.41 569.32,-414.62"/>
<polygon fill="black" stroke="black" points="572.41,-412.97 564.85,-405.54 566.13,-416.06 572.41,-412.97"/>
</g>
<!-- vbf_stp_fetch -->
<g id="node13" class="node">
<title>vbf_stp_fetch</title>
<polygon fill="none" stroke="grey" points="652,-436 652,-528 772,-528 772,-436 652,-436"/>
<text text-anchor="middle" x="712" y="-512.8" font-family="Times,serif" font-size="14.00" fill="grey">vbf_stp_fetch:</text>
<polyline fill="none" stroke="grey" points="652,-505 772,-505 "/>
<text text-anchor="middle" x="712" y="-489.8" font-family="Times,serif" font-size="14.00" fill="grey">setup VFPs</text>
<polyline fill="none" stroke="grey" points="652,-482 772,-482 "/>
<text text-anchor="middle" x="712" y="-466.8" font-family="Times,serif" font-size="14.00" fill="grey">get object</text>
<polyline fill="none" stroke="grey" points="652,-459 772,-459 "/>
<text text-anchor="middle" x="682.5" y="-443.8" font-family="Times,serif" font-size="14.00" fill="grey">error?</text>
<polyline fill="none" stroke="grey" points="713,-436 713,-459 "/>
<text text-anchor="middle" x="742.5" y="-443.8" font-family="Times,serif" font-size="14.00" fill="grey">body?</text>
</g>
<!-- v_b_r&#45;&gt;vbf_stp_fetch -->
<g id="edge23" class="edge">
<title>v_b_r:s&#45;&gt;vbf_stp_fetch</title>
<path fill="none" stroke="black" d="M739,-577C739,-564.14 736.64,-550.66 733.31,-538.05"/>
<polygon fill="black" stroke="black" points="736.59,-536.8 730.46,-528.16 729.86,-538.73 736.59,-536.8"/>
</g>
<!-- v_b_refresh&#45;&gt;v_b_e -->
<g id="edge11" class="edge">
<title>v_b_refresh:s&#45;&gt;v_b_e</title>
<path fill="none" stroke="black" d="M74,-730C74,-642.24 107.92,-619.02 171,-558 175.35,-553.79 179.98,-549.77 184.82,-545.92"/>
<polygon fill="black" stroke="black" points="187.28,-548.44 193.13,-539.61 183.05,-542.86 187.28,-548.44"/>
</g>
<!-- v_b_refresh&#45;&gt;v_b_e -->
<g id="edge14" class="edge">
<title>v_b_refresh:rf_max&#45;&gt;v_b_e</title>
<path fill="none" stroke="black" d="M263,-730C263,-709.38 241.56,-712.55 235,-693 218.59,-644.13 217.2,-625.38 235,-577 238.74,-566.84 244.12,-557.02 250.35,-547.82"/>
<polygon fill="black" stroke="black" points="253.3,-549.71 256.28,-539.54 247.61,-545.63 253.3,-549.71"/>
</g>
<!-- v_b_refresh&#45;&gt;v_b_e -->
<g id="edge15" class="edge">
<title>v_b_refresh:max&#45;&gt;v_b_e</title>
<path fill="none" stroke="black" d="M167,-730C167,-660.44 163.7,-636.34 200,-577 206.58,-566.24 214.85,-556.16 223.92,-546.89"/>
<polygon fill="black" stroke="black" points="226.64,-549.13 231.34,-539.63 221.74,-544.12 226.64,-549.13"/>
</g>
<!-- v_b_refresh&#45;&gt;v_b_r -->
<g id="edge16" class="edge">
<title>v_b_refresh:merge&#45;&gt;v_b_r</title>
<path fill="none" stroke="black" d="M442,-730C442,-719.18 444.94,-709.52 449.96,-700.9"/>
<polygon fill="black" stroke="black" points="452.86,-702.85 455.64,-692.63 447.09,-698.89 452.86,-702.85"/>
</g>
<!-- v_b_refresh&#45;&gt;v_b_r -->
<g id="edge17" class="edge">
<title>v_b_refresh:beresp&#45;&gt;v_b_r</title>
<path fill="none" stroke="black" d="M586,-730C586,-721.2 585.69,-711.95 585.2,-702.83"/>
<polygon fill="black" stroke="black" points="588.68,-702.39 584.58,-692.62 581.7,-702.81 588.68,-702.39"/>
</g>
<!-- v_b_refresh&#45;&gt;v_b_r -->
<g id="edge18" class="edge">
<title>v_b_refresh:stale&#45;&gt;v_b_r</title>
<path fill="none" stroke="black" d="M513,-730C513,-720.23 515.42,-710.76 519.32,-701.83"/>
<polygon fill="black" stroke="black" points="522.54,-703.24 523.9,-692.73 516.28,-700.09 522.54,-703.24"/>
</g>
<!-- v_b_refresh&#45;&gt;v_b_r_retry -->
<g id="edge12" class="edge">
<title>v_b_refresh:retry&#45;&gt;v_b_r_retry</title>
<path fill="none" stroke="purple" d="M214,-730C214,-661.36 187.06,-626.12 235,-577 306.7,-503.53 372.48,-588.43 463,-540 477.09,-532.46 489.48,-519.72 498.72,-508.19"/>
<polygon fill="purple" stroke="purple" points="501.61,-510.18 504.88,-500.1 496.04,-505.94 501.61,-510.18"/>
</g>
<!-- v_b_r_retry_fetch -->
<g id="node11" class="node">
<title>v_b_r_retry_fetch</title>
<text text-anchor="middle" x="306" y="-631.3" font-family="Times,serif" font-size="14.00">RETRY_FETCH</text>
</g>
<!-- v_b_refresh&#45;&gt;v_b_r_retry_fetch -->
<g id="edge13" class="edge">
<title>v_b_refresh:rf_retry&#45;&gt;v_b_r_retry_fetch</title>
<path fill="none" stroke="purple" d="M312,-730C312,-707.58 310.28,-682.22 308.68,-663.49"/>
<polygon fill="purple" stroke="purple" points="312.15,-662.95 307.77,-653.3 305.17,-663.58 312.15,-662.95"/>
</g>
<!-- vbf_stp_fetchend -->
<g id="node15" class="node">
<title>vbf_stp_fetchend</title>
<polygon fill="none" stroke="grey" points="486,-81.5 486,-150.5 694,-150.5 694,-81.5 486,-81.5"/>
<text text-anchor="middle" x="590" y="-135.3" font-family="Times,serif" font-size="14.00" fill="grey">vbf_stp_fetchend:</text>
<polyline fill="none" stroke="grey" points="486,-127.5 694,-127.5 "/>
<text text-anchor="middle" x="590" y="-112.3" font-family="Times,serif" font-size="14.00" fill="grey">finalize object and director</text>
<polyline fill="none" stroke="grey" points="486,-104.5 694,-104.5 "/>
<text text-anchor="middle" x="590" y="-89.3" font-family="Times,serif" font-size="14.00" fill="grey">done</text>
</g>
<!-- vbf_stp_condfetch&#45;&gt;vbf_stp_fetchend -->
<g id="edge28" class="edge">
<title>vbf_stp_condfetch:s&#45;&gt;vbf_stp_fetchend</title>
<path fill="none" stroke="black" d="M593,-313C593,-293.1 562.88,-311.66 552,-295 529.4,-260.39 543.38,-242.42 552,-202 555.04,-187.75 560.65,-173 566.64,-159.87"/>
<polygon fill="black" stroke="black" points="569.91,-161.15 571.04,-150.62 563.58,-158.15 569.91,-161.15"/>
</g>
<!-- vbf_stp_fetchbody -->
<g id="node14" class="node">
<title>vbf_stp_fetchbody</title>
<polygon fill="none" stroke="grey" points="560.5,-202.5 560.5,-294.5 751.5,-294.5 751.5,-202.5 560.5,-202.5"/>
<text text-anchor="middle" x="656" y="-279.3" font-family="Times,serif" font-size="14.00" fill="grey">vbf_stp_fetchbody:</text>
<polyline fill="none" stroke="grey" points="560.5,-271.5 751.5,-271.5 "/>
<text text-anchor="middle" x="656" y="-256.3" font-family="Times,serif" font-size="14.00" fill="grey">get storage</text>
<polyline fill="none" stroke="grey" points="560.5,-248.5 751.5,-248.5 "/>
<text text-anchor="middle" x="656" y="-233.3" font-family="Times,serif" font-size="14.00" fill="grey">read body, run VFPs</text>
<polyline fill="none" stroke="grey" points="560.5,-225.5 751.5,-225.5 "/>
<text text-anchor="middle" x="605" y="-210.3" font-family="Times,serif" font-size="14.00" fill="grey">fetch_fail?</text>
<polyline fill="none" stroke="grey" points="649.5,-202.5 649.5,-225.5 "/>
<text text-anchor="middle" x="680" y="-210.3" font-family="Times,serif" font-size="14.00" fill="grey">error?</text>
<polyline fill="none" stroke="grey" points="710.5,-202.5 710.5,-225.5 "/>
<text text-anchor="middle" x="731" y="-210.3" font-family="Times,serif" font-size="14.00" fill="grey">ok?</text>
</g>
<!-- vbf_stp_fetch&#45;&gt;vbf_stp_fetchbody -->
<g id="edge25" class="edge">
<title>vbf_stp_fetch:s&#45;&gt;vbf_stp_fetchbody</title>
<path fill="none" stroke="black" d="M743,-435C743,-387.45 719.28,-338.98 696.61,-303.52"/>
<polygon fill="black" stroke="black" points="699.3,-301.23 690.88,-294.79 693.44,-305.07 699.3,-301.23"/>
</g>
<!-- vbf_stp_fetch&#45;&gt;vbf_stp_fetchend -->
<g id="edge26" class="edge">
<title>vbf_stp_fetch:s&#45;&gt;vbf_stp_fetchend</title>
<path fill="none" stroke="black" d="M743,-435C743,-331.14 800.01,-298.26 761,-202 750.52,-176.14 728.45,-158.1 703.54,-145.52"/>
<polygon fill="black" stroke="black" points="704.79,-142.24 694.25,-141.14 701.8,-148.57 704.79,-142.24"/>
</g>
<!-- vbf_stp_fetchbody&#45;&gt;vbf_stp_fetchend -->
<g id="edge24" class="edge">
<title>vbf_stp_fetchbody:s&#45;&gt;vbf_stp_fetchend</title>
<path fill="none" stroke="black" d="M731,-202C731,-181 719.38,-165.05 702.82,-152.98"/>
<polygon fill="black" stroke="black" points="704.59,-149.96 694.32,-147.37 700.74,-155.8 704.59,-149.96"/>
</g>
<!-- vbf_stp_fetchend&#45;&gt;FETCH_DONE -->
<g id="edge27" class="edge">
<title>vbf_stp_fetchend:s&#45;&gt;FETCH_DONE</title>
<path fill="none" stroke="black" d="M590,-81C590,-47.81 555.32,-34.28 520.47,-29.06"/>
<polygon fill="black" stroke="black" points="520.55,-25.54 510.19,-27.75 519.66,-32.49 520.55,-25.54"/>
</g>
<!-- fail -->
<g id="node17" class="node">
<title>fail</title>
<text text-anchor="middle" x="131" y="-478.3" font-family="Times,serif" font-size="14.00">fail</text>
</g>
<!-- fail&#45;&gt;FETCH_FAIL -->
<g id="edge29" class="edge">
<title>fail&#45;&gt;FETCH_FAIL</title>
<path fill="none" stroke="black" d="M131,-463.98C131,-424.18 131,-324.76 131,-276.56"/>
<polygon fill="black" stroke="black" points="134.5,-276.55 131,-266.55 127.5,-276.55 134.5,-276.55"/>
</g>
<!-- abandon -->
<g id="node20" class="node">
<title>abandon</title>
<text text-anchor="middle" x="47" y="-478.3" font-family="Times,serif" font-size="14.00">abandon</text>
</g>
<!-- abandon&#45;&gt;FETCH_FAIL -->
<g id="edge33" class="edge">
<title>abandon&#45;&gt;FETCH_FAIL</title>
<path fill="none" stroke="black" d="M53.18,-463.98C67.68,-424.01 103.99,-323.93 121.4,-275.95"/>
<polygon fill="black" stroke="black" points="124.69,-277.14 124.81,-266.55 118.11,-274.75 124.69,-277.14"/>
</g>
</g>
</svg>
