<?xml version="1.0" encoding="UTF-8" standalone="no"?>
<!DOCTYPE svg PUBLIC "-//W3C//DTD SVG 1.1//EN"
 "http://www.w3.org/Graphics/SVG/1.1/DTD/svg11.dtd">
<!-- Generated by graphviz version 2.44.0 (0)
 -->
<!-- Title: cache_fetch Pages: 1 -->
<svg width="774pt" height="1052pt"
 viewBox="36.00 36.00 738.00 1015.74" xmlns="http://www.w3.org/2000/svg" xmlns:xlink="http://www.w3.org/1999/xlink">
<g id="graph0" class="graph" transform="scale(1 1) rotate(0) translate(40 1011.74)">
<title>cache_fetch</title>
<polygon fill="white" stroke="transparent" points="-4,4 -4,-975.74 698,-975.74 698,4 -4,4"/>
<g id="clust1" class="cluster">
<title>cluster_backend</title>
<polygon fill="aliceblue" stroke="aliceblue" points="8,-8 8,-963.74 686,-963.74 686,-8 8,-8"/>
</g>
<!-- RETRY -->
<g id="node1" class="node">
<title>RETRY</title>
<text text-anchor="middle" x="462" y="-942.04" font-family="Times-Roman" font-size="14.00">RETRY</text>
</g>
<!-- v_b_f -->
<g id="node4" class="node">
<title>v_b_f</title>
<polygon fill="none" stroke="black" points="222.5,-821.24 222.5,-890.24 451.5,-890.24 451.5,-821.24 222.5,-821.24"/>
<text text-anchor="middle" x="337" y="-875.04" font-family="Times-Roman" font-size="14.00">vbf_stp_startfetch:</text>
<polyline fill="none" stroke="black" points="222.5,-867.24 451.5,-867.24 "/>
<text text-anchor="middle" x="303" y="-852.04" font-family="Times-Roman" font-size="14.00">vcl_backend_fetch{}</text>
<polyline fill="none" stroke="black" points="383.5,-844.24 383.5,-867.24 "/>
<text text-anchor="middle" x="417.5" y="-852.04" font-family="Times-Roman" font-size="14.00">bereq.*</text>
<polyline fill="none" stroke="black" points="222.5,-844.24 451.5,-844.24 "/>
<text text-anchor="middle" x="249" y="-829.04" font-family="Times-Roman" font-size="14.00">error</text>
<polyline fill="none" stroke="black" points="275.5,-821.24 275.5,-844.24 "/>
<text text-anchor="middle" x="296" y="-829.04" font-family="Times-Roman" font-size="14.00">fail</text>
<polyline fill="none" stroke="black" points="316.5,-821.24 316.5,-844.24 "/>
<text text-anchor="middle" x="356.5" y="-829.04" font-family="Times-Roman" font-size="14.00">abandon</text>
<polyline fill="none" stroke="black" points="396.5,-821.24 396.5,-844.24 "/>
<text text-anchor="middle" x="424" y="-829.04" font-family="Times-Roman" font-size="14.00">fetch</text>
</g>
<!-- RETRY&#45;&gt;v_b_f -->
<g id="edge4" class="edge">
<title>RETRY&#45;&gt;v_b_f</title>
<path fill="none" stroke="purple" d="M437.6,-927.56C424.89,-918.62 408.79,-907.28 393.2,-896.31"/>
<polygon fill="purple" stroke="purple" points="394.82,-893.16 384.63,-890.27 390.79,-898.89 394.82,-893.16"/>
</g>
<!-- v_b_f_BGFETCH -->
<g id="node2" class="node">
<title>v_b_f_BGFETCH</title>
<polygon fill="turquoise" stroke="turquoise" points="413,-963.74 331,-963.74 331,-927.74 413,-927.74 413,-963.74"/>
<text text-anchor="middle" x="372" y="-942.04" font-family="Times-Roman" font-size="14.00">BGFETCH</text>
</g>
<!-- v_b_f_BGFETCH&#45;&gt;v_b_f -->
<g id="edge1" class="edge">
<title>v_b_f_BGFETCH&#45;&gt;v_b_f</title>
<path fill="none" stroke="green" stroke-width="2" d="M365.09,-927.35C361.95,-919.47 358.08,-909.75 354.23,-900.07"/>
<polygon fill="green" stroke="green" stroke-width="2" points="357.37,-898.48 350.42,-890.48 350.86,-901.07 357.37,-898.48"/>
</g>
<!-- v_b_f_FETCH -->
<g id="node3" class="node">
<title>v_b_f_FETCH</title>
<polygon fill="turquoise" stroke="turquoise" points="313,-963.74 251,-963.74 251,-927.74 313,-927.74 313,-963.74"/>
<text text-anchor="middle" x="282" y="-942.04" font-family="Times-Roman" font-size="14.00">FETCH</text>
</g>
<!-- v_b_f_FETCH&#45;&gt;v_b_f -->
<g id="edge2" class="edge">
<title>v_b_f_FETCH&#45;&gt;v_b_f</title>
<path fill="none" stroke="blue" stroke-width="2" d="M287.36,-927.35C291.57,-919.22 297.46,-909.14 303.74,-899.17"/>
<polygon fill="blue" stroke="blue" stroke-width="2" points="306.86,-900.79 309.33,-890.48 300.97,-897 306.86,-900.79"/>
</g>
<!-- v_b_f_FETCH&#45;&gt;v_b_f -->
<g id="edge3" class="edge">
<title>v_b_f_FETCH&#45;&gt;v_b_f</title>
<path fill="none" stroke="red" stroke-width="2" d="M298.37,-927.35C304.33,-919.22 311.05,-909.14 317.23,-899.17"/>
<polygon fill="red" stroke="red" stroke-width="2" points="320.3,-900.85 322.5,-890.48 314.32,-897.22 320.3,-900.85"/>
</g>
<!-- v_b_e -->
<g id="node5" class="node">
<title>v_b_e</title>
<polygon fill="none" stroke="black" points="176,-424.5 176,-539.5 450,-539.5 450,-424.5 176,-424.5"/>
<text text-anchor="middle" x="313" y="-524.3" font-family="Times-Roman" font-size="14.00">vbf_stp_error:</text>
<polyline fill="none" stroke="black" points="176,-516.5 450,-516.5 "/>
<text text-anchor="middle" x="265.5" y="-489.8" font-family="Times-Roman" font-size="14.00">vcl_backend_error{}</text>
<polyline fill="none" stroke="black" points="355,-470.5 355,-516.5 "/>
<text text-anchor="middle" x="402.5" y="-501.3" font-family="Times-Roman" font-size="14.00">bereq.*</text>
<polyline fill="none" stroke="black" points="355,-493.5 450,-493.5 "/>
<text text-anchor="middle" x="402.5" y="-478.3" font-family="Times-Roman" font-size="14.00">beresp.*</text>
<polyline fill="none" stroke="black" points="176,-470.5 450,-470.5 "/>
<text text-anchor="middle" x="242.5" y="-455.3" font-family="Times-Roman" font-size="14.00">retry</text>
<polyline fill="none" stroke="black" points="176,-447.5 309,-447.5 "/>
<text text-anchor="middle" x="195" y="-432.3" font-family="Times-Roman" font-size="14.00">fail</text>
<polyline fill="none" stroke="black" points="214,-424.5 214,-447.5 "/>
<text text-anchor="middle" x="241" y="-432.3" font-family="Times-Roman" font-size="14.00">max?</text>
<polyline fill="none" stroke="black" points="268,-424.5 268,-447.5 "/>
<text text-anchor="middle" x="288.5" y="-432.3" font-family="Times-Roman" font-size="14.00">ok?</text>
<polyline fill="none" stroke="black" points="309,-424.5 309,-470.5 "/>
<text text-anchor="middle" x="347.5" y="-443.8" font-family="Times-Roman" font-size="14.00">abandon</text>
<polyline fill="none" stroke="black" points="386,-424.5 386,-470.5 "/>
<text text-anchor="middle" x="418" y="-443.8" font-family="Times-Roman" font-size="14.00">deliver</text>
</g>
<!-- v_b_f&#45;&gt;v_b_e -->
<g id="edge5" class="edge">
<title>v_b_f:s&#45;&gt;v_b_e</title>
<path fill="none" stroke="black" d="M249,-820.74C249,-712.32 228.91,-681.16 259,-577 261.74,-567.51 265.63,-557.95 270.08,-548.77"/>
<polygon fill="black" stroke="black" points="273.27,-550.21 274.69,-539.71 267.03,-547.03 273.27,-550.21"/>
</g>
<!-- v_b_hdrs -->
<g id="node6" class="node">
<title>v_b_hdrs</title>
<ellipse fill="none" stroke="black" cx="424" cy="-756.87" rx="120.42" ry="26.74"/>
<text text-anchor="middle" x="424" y="-760.67" font-family="Times-Roman" font-size="14.00">send bereq,</text>
<text text-anchor="middle" x="424" y="-745.67" font-family="Times-Roman" font-size="14.00">read beresp (headers)</text>
</g>
<!-- v_b_f&#45;&gt;v_b_hdrs -->
<g id="edge6" class="edge">
<title>v_b_f:s&#45;&gt;v_b_hdrs</title>
<path fill="none" stroke="black" stroke-width="2" d="M424,-820.74C424,-812.13 424,-802.85 424,-794.14"/>
<polygon fill="black" stroke="black" stroke-width="2" points="427.5,-793.87 424,-783.87 420.5,-793.87 427.5,-793.87"/>
</g>
<!-- FETCH_DONE -->
<g id="node13" class="node">
<title>FETCH_DONE</title>
<polygon fill="turquoise" stroke="turquoise" points="426,-44 316,-44 316,-8 426,-8 426,-44"/>
<text text-anchor="middle" x="371" y="-22.3" font-family="Times-Roman" font-size="14.00">FETCH_DONE</text>
</g>
<!-- v_b_e&#45;&gt;FETCH_DONE -->
<g id="edge20" class="edge">
<title>v_b_e:deliver&#45;&gt;FETCH_DONE</title>
<path fill="none" stroke="black" d="M418,-424C418,-413 406.17,-415.71 401,-406 350.41,-310.97 343.47,-276.39 351,-169 353.81,-128.92 361.02,-82.94 365.97,-54.43"/>
<polygon fill="black" stroke="black" points="369.45,-54.86 367.75,-44.41 362.56,-53.64 369.45,-54.86"/>
<text text-anchor="middle" x="409" y="-172.8" font-family="Times-Roman" font-size="14.00">&quot;backend synth&quot;</text>
</g>
<!-- FETCH_FAIL -->
<g id="node15" class="node">
<title>FETCH_FAIL</title>
<polygon fill="turquoise" stroke="turquoise" points="179.5,-266.5 82.5,-266.5 82.5,-230.5 179.5,-230.5 179.5,-266.5"/>
<text text-anchor="middle" x="131" y="-244.8" font-family="Times-Roman" font-size="14.00">FETCH_FAIL</text>
</g>
<!-- v_b_e&#45;&gt;FETCH_FAIL -->
<g id="edge22" class="edge">
<title>v_b_e:s&#45;&gt;FETCH_FAIL</title>
<path fill="none" stroke="black" d="M241,-424C241,-362.33 191.23,-304.67 158.65,-273.53"/>
<polygon fill="black" stroke="black" points="160.88,-270.83 151.18,-266.57 156.1,-275.94 160.88,-270.83"/>
</g>
<!-- v_b_e_retry -->
<g id="node16" class="node">
<title>v_b_e_retry</title>
<text text-anchor="middle" x="288" y="-244.8" font-family="Times-Roman" font-size="14.00">RETRY</text>
</g>
<!-- v_b_e&#45;&gt;v_b_e_retry -->
<g id="edge21" class="edge">
<title>v_b_e:retry&#45;&gt;v_b_e_retry</title>
<path fill="none" stroke="purple" d="M288,-424C288,-372.06 288,-311.42 288,-277.04"/>
<polygon fill="purple" stroke="purple" points="291.5,-276.84 288,-266.84 284.5,-276.84 291.5,-276.84"/>
</g>
<!-- v_b_hdrs&#45;&gt;v_b_e -->
<g id="edge8" class="edge">
<title>v_b_hdrs&#45;&gt;v_b_e</title>
<path fill="none" stroke="black" d="M339.73,-737.53C316.45,-728.18 293.82,-714.11 280,-693 252.23,-650.57 263.78,-593.18 280.44,-549.12"/>
<polygon fill="black" stroke="black" points="283.76,-550.23 284.18,-539.65 277.25,-547.66 283.76,-550.23"/>
</g>
<!-- v_b_r -->
<g id="node7" class="node">
<title>v_b_r</title>
<polygon fill="none" stroke="black" points="288.5,-577.5 288.5,-692.5 667.5,-692.5 667.5,-577.5 288.5,-577.5"/>
<text text-anchor="middle" x="478" y="-677.3" font-family="Times-Roman" font-size="14.00">vbf_stp_startfetch:</text>
<polyline fill="none" stroke="black" points="288.5,-669.5 667.5,-669.5 "/>
<text text-anchor="middle" x="411.5" y="-642.8" font-family="Times-Roman" font-size="14.00">vcl_backend_response{}</text>
<polyline fill="none" stroke="black" points="534.5,-623.5 534.5,-669.5 "/>
<text text-anchor="middle" x="601" y="-654.3" font-family="Times-Roman" font-size="14.00">bereq.*</text>
<polyline fill="none" stroke="black" points="534.5,-646.5 667.5,-646.5 "/>
<text text-anchor="middle" x="601" y="-631.3" font-family="Times-Roman" font-size="14.00">beresp.*</text>
<polyline fill="none" stroke="black" points="288.5,-623.5 667.5,-623.5 "/>
<text text-anchor="middle" x="313.5" y="-596.8" font-family="Times-Roman" font-size="14.00">error</text>
<polyline fill="none" stroke="black" points="338.5,-577.5 338.5,-623.5 "/>
<text text-anchor="middle" x="357.5" y="-596.8" font-family="Times-Roman" font-size="14.00">fail</text>
<polyline fill="none" stroke="black" points="376.5,-577.5 376.5,-623.5 "/>
<text text-anchor="middle" x="424" y="-608.3" font-family="Times-Roman" font-size="14.00">retry</text>
<polyline fill="none" stroke="black" points="376.5,-600.5 471.5,-600.5 "/>
<text text-anchor="middle" x="403.5" y="-585.3" font-family="Times-Roman" font-size="14.00">max?</text>
<polyline fill="none" stroke="black" points="430.5,-577.5 430.5,-600.5 "/>
<text text-anchor="middle" x="451" y="-585.3" font-family="Times-Roman" font-size="14.00">ok?</text>
<polyline fill="none" stroke="black" points="471.5,-577.5 471.5,-623.5 "/>
<text text-anchor="middle" x="510" y="-596.8" font-family="Times-Roman" font-size="14.00">abandon</text>
<polyline fill="none" stroke="black" points="548.5,-577.5 548.5,-623.5 "/>
<text text-anchor="middle" x="608" y="-608.3" font-family="Times-Roman" font-size="14.00">deliver or pass</text>
<polyline fill="none" stroke="black" points="548.5,-600.5 667.5,-600.5 "/>
<text text-anchor="middle" x="575.5" y="-585.3" font-family="Times-Roman" font-size="14.00">304?</text>
<polyline fill="none" stroke="black" points="602.5,-577.5 602.5,-600.5 "/>
<text text-anchor="middle" x="635" y="-585.3" font-family="Times-Roman" font-size="14.00">other?</text>
</g>
<!-- v_b_hdrs&#45;&gt;v_b_r -->
<g id="edge7" class="edge">
<title>v_b_hdrs&#45;&gt;v_b_r</title>
<path fill="none" stroke="black" stroke-width="2" d="M435.72,-729.86C439.43,-721.62 443.72,-712.09 448.11,-702.34"/>
<polygon fill="black" stroke="black" stroke-width="2" points="451.42,-703.51 452.34,-692.96 445.04,-700.64 451.42,-703.51"/>
</g>
<!-- v_b_r&#45;&gt;v_b_e -->
<g id="edge9" class="edge">
<title>v_b_r:s&#45;&gt;v_b_e</title>
<path fill="none" stroke="black" d="M313,-577C313,-568.23 313,-558.99 313,-549.88"/>
<polygon fill="black" stroke="black" points="316.5,-549.67 313,-539.67 309.5,-549.67 316.5,-549.67"/>
</g>
<!-- v_b_r&#45;&gt;v_b_e -->
<g id="edge11" class="edge">
<title>v_b_r:max&#45;&gt;v_b_e</title>
<path fill="none" stroke="black" d="M403,-577C403,-566.66 400.13,-557.02 395.4,-548.15"/>
<polygon fill="black" stroke="black" points="398.33,-546.22 390.11,-539.54 392.37,-549.89 398.33,-546.22"/>
</g>
<!-- v_b_r_retry -->
<g id="node8" class="node">
<title>v_b_r_retry</title>
<text text-anchor="middle" x="499" y="-478.3" font-family="Times-Roman" font-size="14.00">RETRY</text>
</g>
<!-- v_b_r&#45;&gt;v_b_r_retry -->
<g id="edge10" class="edge">
<title>v_b_r:retry&#45;&gt;v_b_r_retry</title>
<path fill="none" stroke="purple" d="M451,-577C451,-551.65 465.02,-526.24 477.91,-508.25"/>
<polygon fill="purple" stroke="purple" points="480.86,-510.14 484.08,-500.04 475.27,-505.93 480.86,-510.14"/>
</g>
<!-- vbf_stp_condfetch -->
<g id="node9" class="node">
<title>vbf_stp_condfetch</title>
<polygon fill="none" stroke="grey" points="410,-313.5 410,-405.5 558,-405.5 558,-313.5 410,-313.5"/>
<text text-anchor="middle" x="484" y="-390.3" font-family="Times-Roman" font-size="14.00" fill="grey">vbf_stp_condfetch:</text>
<polyline fill="none" stroke="grey" points="410,-382.5 558,-382.5 "/>
<text text-anchor="middle" x="484" y="-367.3" font-family="Times-Roman" font-size="14.00" fill="grey">copy obj attr</text>
<polyline fill="none" stroke="grey" points="410,-359.5 558,-359.5 "/>
<text text-anchor="middle" x="484" y="-344.3" font-family="Times-Roman" font-size="14.00" fill="grey">steal body</text>
<polyline fill="none" stroke="grey" points="410,-336.5 558,-336.5 "/>
<text text-anchor="middle" x="458.5" y="-321.3" font-family="Times-Roman" font-size="14.00" fill="grey">fetch_fail?</text>
<polyline fill="none" stroke="grey" points="507,-313.5 507,-336.5 "/>
<text text-anchor="middle" x="532.5" y="-321.3" font-family="Times-Roman" font-size="14.00" fill="grey">ok?</text>
</g>
<!-- v_b_r&#45;&gt;vbf_stp_condfetch -->
<g id="edge12" class="edge">
<title>v_b_r:s&#45;&gt;vbf_stp_condfetch</title>
<path fill="none" stroke="black" d="M576,-577C576,-559.08 565.19,-557.15 560,-540 544.84,-489.85 561.62,-471.26 539,-424 537.39,-420.65 535.56,-417.33 533.57,-414.08"/>
<polygon fill="black" stroke="black" points="536.4,-412.01 527.94,-405.63 530.57,-415.9 536.4,-412.01"/>
</g>
<!-- vbf_stp_fetch -->
<g id="node10" class="node">
<title>vbf_stp_fetch</title>
<polygon fill="none" stroke="grey" points="568.5,-436 568.5,-528 685.5,-528 685.5,-436 568.5,-436"/>
<text text-anchor="middle" x="627" y="-512.8" font-family="Times-Roman" font-size="14.00" fill="grey">vbf_stp_fetch:</text>
<polyline fill="none" stroke="grey" points="568.5,-505 685.5,-505 "/>
<text text-anchor="middle" x="627" y="-489.8" font-family="Times-Roman" font-size="14.00" fill="grey">setup VFPs</text>
<polyline fill="none" stroke="grey" points="568.5,-482 685.5,-482 "/>
<text text-anchor="middle" x="627" y="-466.8" font-family="Times-Roman" font-size="14.00" fill="grey">get object</text>
<polyline fill="none" stroke="grey" points="568.5,-459 685.5,-459 "/>
<text text-anchor="middle" x="597.5" y="-443.8" font-family="Times-Roman" font-size="14.00" fill="grey">error?</text>
<polyline fill="none" stroke="grey" points="626.5,-436 626.5,-459 "/>
<text text-anchor="middle" x="656" y="-443.8" font-family="Times-Roman" font-size="14.00" fill="grey">body?</text>
</g>
<!-- v_b_r&#45;&gt;vbf_stp_fetch -->
<g id="edge13" class="edge">
<title>v_b_r:s&#45;&gt;vbf_stp_fetch</title>
<path fill="none" stroke="black" d="M635,-577C635,-564.46 634.28,-551.02 633.28,-538.34"/>
<polygon fill="black" stroke="black" points="636.77,-538.02 632.42,-528.35 629.79,-538.62 636.77,-538.02"/>
</g>
<!-- vbf_stp_fetchend -->
<g id="node12" class="node">
<title>vbf_stp_fetchend</title>
<polygon fill="none" stroke="grey" points="408.5,-81.5 408.5,-150.5 609.5,-150.5 609.5,-81.5 408.5,-81.5"/>
<text text-anchor="middle" x="509" y="-135.3" font-family="Times-Roman" font-size="14.00" fill="grey">vbf_stp_fetchend:</text>
<polyline fill="none" stroke="grey" points="408.5,-127.5 609.5,-127.5 "/>
<text text-anchor="middle" x="509" y="-112.3" font-family="Times-Roman" font-size="14.00" fill="grey">finalize object and director</text>
<polyline fill="none" stroke="grey" points="408.5,-104.5 609.5,-104.5 "/>
<text text-anchor="middle" x="509" y="-89.3" font-family="Times-Roman" font-size="14.00" fill="grey">done</text>
</g>
<!-- vbf_stp_condfetch&#45;&gt;vbf_stp_fetchend -->
<g id="edge18" class="edge">
<title>vbf_stp_condfetch:s&#45;&gt;vbf_stp_fetchend</title>
<path fill="none" stroke="black" d="M533,-313C533,-284.31 488.23,-317.94 471,-295 441.49,-255.7 461.86,-198.45 482.4,-159.57"/>
<polygon fill="black" stroke="black" points="485.58,-161.04 487.32,-150.59 479.44,-157.68 485.58,-161.04"/>
</g>
<!-- vbf_stp_fetchbody -->
<g id="node11" class="node">
<title>vbf_stp_fetchbody</title>
<polygon fill="none" stroke="grey" points="480,-202.5 480,-294.5 666,-294.5 666,-202.5 480,-202.5"/>
<text text-anchor="middle" x="573" y="-279.3" font-family="Times-Roman" font-size="14.00" fill="grey">vbf_stp_fetchbody:</text>
<polyline fill="none" stroke="grey" points="480,-271.5 666,-271.5 "/>
<text text-anchor="middle" x="573" y="-256.3" font-family="Times-Roman" font-size="14.00" fill="grey">get storage</text>
<polyline fill="none" stroke="grey" points="480,-248.5 666,-248.5 "/>
<text text-anchor="middle" x="573" y="-233.3" font-family="Times-Roman" font-size="14.00" fill="grey">read body, run VFPs</text>
<polyline fill="none" stroke="grey" points="480,-225.5 666,-225.5 "/>
<text text-anchor="middle" x="523.5" y="-210.3" font-family="Times-Roman" font-size="14.00" fill="grey">fetch_fail?</text>
<polyline fill="none" stroke="grey" points="567,-202.5 567,-225.5 "/>
<text text-anchor="middle" x="596" y="-210.3" font-family="Times-Roman" font-size="14.00" fill="grey">error?</text>
<polyline fill="none" stroke="grey" points="625,-202.5 625,-225.5 "/>
<text text-anchor="middle" x="645.5" y="-210.3" font-family="Times-Roman" font-size="14.00" fill="grey">ok?</text>
</g>
<!-- vbf_stp_fetch&#45;&gt;vbf_stp_fetchbody -->
<g id="edge15" class="edge">
<title>vbf_stp_fetch:s&#45;&gt;vbf_stp_fetchbody</title>
<path fill="none" stroke="black" d="M656,-435C656,-387.68 633.21,-339.02 611.52,-303.42"/>
<polygon fill="black" stroke="black" points="614.31,-301.28 606.04,-294.65 608.38,-304.99 614.31,-301.28"/>
</g>
<!-- vbf_stp_fetch&#45;&gt;vbf_stp_fetchend -->
<g id="edge16" class="edge">
<title>vbf_stp_fetch:s&#45;&gt;vbf_stp_fetchend</title>
<path fill="none" stroke="black" d="M656,-435C656,-331.1 713.26,-298.6 675,-202 664.86,-176.4 643.13,-158.42 618.64,-145.84"/>
<polygon fill="black" stroke="black" points="620.03,-142.62 609.51,-141.44 617,-148.93 620.03,-142.62"/>
</g>
<!-- vbf_stp_fetchbody&#45;&gt;vbf_stp_fetchend -->
<g id="edge14" class="edge">
<title>vbf_stp_fetchbody:s&#45;&gt;vbf_stp_fetchend</title>
<path fill="none" stroke="black" d="M646,-202C646,-181.19 634.45,-165.3 618.05,-153.23"/>
<polygon fill="black" stroke="black" points="619.9,-150.25 609.65,-147.6 616.01,-156.07 619.9,-150.25"/>
</g>
<!-- vbf_stp_fetchend&#45;&gt;FETCH_DONE -->
<g id="edge17" class="edge">
<title>vbf_stp_fetchend:s&#45;&gt;FETCH_DONE</title>
<path fill="none" stroke="black" d="M509,-81C509,-46.9 472.01,-33.64 436.33,-28.77"/>
<polygon fill="black" stroke="black" points="436.67,-25.29 426.33,-27.61 435.86,-32.24 436.67,-25.29"/>
</g>
<!-- fail -->
<g id="node14" class="node">
<title>fail</title>
<text text-anchor="middle" x="131" y="-478.3" font-family="Times-Roman" font-size="14.00">fail</text>
</g>
<!-- fail&#45;&gt;FETCH_FAIL -->
<g id="edge19" class="edge">
<title>fail&#45;&gt;FETCH_FAIL</title>
<path fill="none" stroke="black" d="M131,-463.98C131,-424.18 131,-324.76 131,-276.56"/>
<polygon fill="black" stroke="black" points="134.5,-276.55 131,-266.55 127.5,-276.55 134.5,-276.55"/>
</g>
<!-- abandon -->
<g id="node17" class="node">
<title>abandon</title>
<text text-anchor="middle" x="47" y="-478.3" font-family="Times-Roman" font-size="14.00">abandon</text>
</g>
<!-- abandon&#45;&gt;FETCH_FAIL -->
<g id="edge23" class="edge">
<title>abandon&#45;&gt;FETCH_FAIL</title>
<path fill="none" stroke="black" d="M53.18,-463.98C67.68,-424.01 103.99,-323.93 121.4,-275.95"/>
<polygon fill="black" stroke="black" points="124.69,-277.14 124.81,-266.55 118.11,-274.75 124.69,-277.14"/>
</g>
</g>
</svg>
