<?xml version="1.0" encoding="UTF-8" standalone="no"?>
<!DOCTYPE svg PUBLIC "-//W3C//DTD SVG 1.1//EN"
 "http://www.w3.org/Graphics/SVG/1.1/DTD/svg11.dtd">
<!-- Generated by graphviz version 2.38.0 (20140413.2041)
 -->
<!-- Title: cache_fetch Pages: 1 -->
<svg width="842pt" height="723pt"
 viewBox="36.00 36.00 806.00 686.74" xmlns="http://www.w3.org/2000/svg" xmlns:xlink="http://www.w3.org/1999/xlink">
<g id="graph0" class="graph" transform="scale(1 1) rotate(0) translate(40 682.74)">
<title>cache_fetch</title>
<polygon fill="white" stroke="none" points="-4,4 -4,-646.74 766,-646.74 766,4 -4,4"/>
<g id="clust1" class="cluster"><title>cluster_backend</title>
<polygon fill="aliceblue" stroke="aliceblue" points="8,-8 8,-634.74 754,-634.74 754,-8 8,-8"/>
</g>
<!-- RETRY -->
<g id="node1" class="node"><title>RETRY</title>
<text text-anchor="middle" x="416" y="-613.04" font-family="Times,serif" font-size="14.00">RETRY</text>
</g>
<!-- v_b_f -->
<g id="node4" class="node"><title>v_b_f</title>
<polygon fill="none" stroke="black" points="190.5,-492.24 190.5,-561.24 379.5,-561.24 379.5,-492.24 190.5,-492.24"/>
<text text-anchor="middle" x="285" y="-546.04" font-family="Times,serif" font-size="14.00">vbf_stp_startfetch:</text>
<polyline fill="none" stroke="black" points="190.5,-538.24 379.5,-538.24 "/>
<text text-anchor="middle" x="256.5" y="-523.04" font-family="Times,serif" font-size="14.00">vcl_backend_fetch{}</text>
<polyline fill="none" stroke="black" points="322.5,-515.24 322.5,-538.24 "/>
<text text-anchor="middle" x="351" y="-523.04" font-family="Times,serif" font-size="14.00">bereq.*</text>
<polyline fill="none" stroke="black" points="190.5,-515.24 379.5,-515.24 "/>
<text text-anchor="middle" x="242" y="-500.04" font-family="Times,serif" font-size="14.00">abandon</text>
<polyline fill="none" stroke="black" points="293.5,-492.24 293.5,-515.24 "/>
<text text-anchor="middle" x="336.5" y="-500.04" font-family="Times,serif" font-size="14.00">fetch</text>
</g>
<!-- RETRY&#45;&gt;v_b_f -->
<g id="edge4" class="edge"><title>RETRY&#45;&gt;v_b_f</title>
<path fill="none" stroke="purple" d="M390.431,-598.564C376.989,-589.534 359.918,-578.067 343.449,-567.003"/>
<polygon fill="purple" stroke="purple" points="345.166,-563.941 334.914,-561.27 341.263,-569.752 345.166,-563.941"/>
</g>
<!-- v_b_f_BGFETCH -->
<g id="node2" class="node"><title>v_b_f_BGFETCH</title>
<polygon fill="turquoise" stroke="turquoise" points="367,-634.74 289,-634.74 289,-598.74 367,-598.74 367,-634.74"/>
<text text-anchor="middle" x="328" y="-613.04" font-family="Times,serif" font-size="14.00">BGFETCH</text>
</g>
<!-- v_b_f_BGFETCH&#45;&gt;v_b_f -->
<g id="edge1" class="edge"><title>v_b_f_BGFETCH&#45;&gt;v_b_f</title>
<path fill="none" stroke="green" stroke-width="2" d="M319.505,-598.354C315.569,-590.301 310.703,-580.342 305.879,-570.468"/>
<polygon fill="green" stroke="green" stroke-width="2" points="309.023,-568.93 301.488,-561.482 302.733,-572.003 309.023,-568.93"/>
</g>
<!-- v_b_f_FETCH -->
<g id="node3" class="node"><title>v_b_f_FETCH</title>
<polygon fill="turquoise" stroke="turquoise" points="270.5,-634.74 211.5,-634.74 211.5,-598.74 270.5,-598.74 270.5,-634.74"/>
<text text-anchor="middle" x="241" y="-613.04" font-family="Times,serif" font-size="14.00">FETCH</text>
</g>
<!-- v_b_f_FETCH&#45;&gt;v_b_f -->
<g id="edge2" class="edge"><title>v_b_f_FETCH&#45;&gt;v_b_f</title>
<path fill="none" stroke="blue" stroke-width="2" d="M244.189,-598.354C247.348,-590.301 251.913,-580.342 256.888,-570.468"/>
<polygon fill="blue" stroke="blue" stroke-width="2" points="260.052,-571.971 261.545,-561.482 253.836,-568.751 260.052,-571.971"/>
</g>
<!-- v_b_f_FETCH&#45;&gt;v_b_f -->
<g id="edge3" class="edge"><title>v_b_f_FETCH&#45;&gt;v_b_f</title>
<path fill="none" stroke="red" stroke-width="2" d="M255.197,-598.354C260.042,-590.383 265.376,-580.545 270.233,-570.771"/>
<polygon fill="red" stroke="red" stroke-width="2" points="273.521,-572.01 274.713,-561.482 267.217,-568.969 273.521,-572.01"/>
</g>
<!-- v_b_hdrs -->
<g id="node5" class="node"><title>v_b_hdrs</title>
<ellipse fill="none" stroke="black" cx="337" cy="-427.87" rx="94.0904" ry="26.7407"/>
<text text-anchor="middle" x="337" y="-431.67" font-family="Times,serif" font-size="14.00">send bereq,</text>
<text text-anchor="middle" x="337" y="-416.67" font-family="Times,serif" font-size="14.00">read beresp (headers)</text>
</g>
<!-- v_b_f&#45;&gt;v_b_hdrs -->
<g id="edge5" class="edge"><title>v_b_f:fetch:s&#45;&gt;v_b_hdrs</title>
<path fill="none" stroke="black" stroke-width="2" d="M337,-491.74C337,-483.127 337,-473.849 337,-465.136"/>
<polygon fill="black" stroke="black" stroke-width="2" points="340.5,-464.87 337,-454.87 333.5,-464.87 340.5,-464.87"/>
</g>
<!-- v_b_r -->
<g id="node6" class="node"><title>v_b_r</title>
<polygon fill="none" stroke="black" points="343,-248.5 343,-363.5 581,-363.5 581,-248.5 343,-248.5"/>
<text text-anchor="middle" x="462" y="-348.3" font-family="Times,serif" font-size="14.00">vbf_stp_startfetch:</text>
<polyline fill="none" stroke="black" points="343,-340.5 581,-340.5 "/>
<text text-anchor="middle" x="425" y="-313.8" font-family="Times,serif" font-size="14.00">vcl_backend_response{}</text>
<polyline fill="none" stroke="black" points="507,-294.5 507,-340.5 "/>
<text text-anchor="middle" x="544" y="-325.3" font-family="Times,serif" font-size="14.00">bereq.*</text>
<polyline fill="none" stroke="black" points="507,-317.5 581,-317.5 "/>
<text text-anchor="middle" x="544" y="-302.3" font-family="Times,serif" font-size="14.00">beresp.*</text>
<polyline fill="none" stroke="black" points="343,-294.5 581,-294.5 "/>
<text text-anchor="middle" x="384.5" y="-279.3" font-family="Times,serif" font-size="14.00">retry</text>
<polyline fill="none" stroke="black" points="343,-271.5 426,-271.5 "/>
<text text-anchor="middle" x="366.5" y="-256.3" font-family="Times,serif" font-size="14.00">max?</text>
<polyline fill="none" stroke="black" points="390,-248.5 390,-271.5 "/>
<text text-anchor="middle" x="408" y="-256.3" font-family="Times,serif" font-size="14.00">ok?</text>
<polyline fill="none" stroke="black" points="426,-248.5 426,-294.5 "/>
<text text-anchor="middle" x="457" y="-267.8" font-family="Times,serif" font-size="14.00">abandon</text>
<polyline fill="none" stroke="black" points="488,-248.5 488,-294.5 "/>
<text text-anchor="middle" x="534.5" y="-279.3" font-family="Times,serif" font-size="14.00">deliver</text>
<polyline fill="none" stroke="black" points="488,-271.5 581,-271.5 "/>
<text text-anchor="middle" x="509.5" y="-256.3" font-family="Times,serif" font-size="14.00">304?</text>
<polyline fill="none" stroke="black" points="531,-248.5 531,-271.5 "/>
<text text-anchor="middle" x="556" y="-256.3" font-family="Times,serif" font-size="14.00">other?</text>
</g>
<!-- v_b_hdrs&#45;&gt;v_b_r -->
<g id="edge6" class="edge"><title>v_b_hdrs&#45;&gt;v_b_r</title>
<path fill="none" stroke="black" stroke-width="2" d="M362.9,-402.033C372.553,-392.776 384.004,-381.795 395.634,-370.642"/>
<polygon fill="black" stroke="black" stroke-width="2" points="398.089,-373.137 402.885,-363.689 393.244,-368.085 398.089,-373.137"/>
</g>
<!-- v_b_e -->
<g id="node7" class="node"><title>v_b_e</title>
<polygon fill="none" stroke="black" points="160.5,-95.5 160.5,-210.5 359.5,-210.5 359.5,-95.5 160.5,-95.5"/>
<text text-anchor="middle" x="260" y="-195.3" font-family="Times,serif" font-size="14.00">vbf_stp_error:</text>
<polyline fill="none" stroke="black" points="160.5,-187.5 359.5,-187.5 "/>
<text text-anchor="middle" x="227.5" y="-160.8" font-family="Times,serif" font-size="14.00">vcl_backend_error{}</text>
<polyline fill="none" stroke="black" points="294.5,-141.5 294.5,-187.5 "/>
<text text-anchor="middle" x="327" y="-172.3" font-family="Times,serif" font-size="14.00">bereq.*</text>
<polyline fill="none" stroke="black" points="294.5,-164.5 359.5,-164.5 "/>
<text text-anchor="middle" x="327" y="-149.3" font-family="Times,serif" font-size="14.00">beresp.*</text>
<polyline fill="none" stroke="black" points="160.5,-141.5 359.5,-141.5 "/>
<text text-anchor="middle" x="202" y="-126.3" font-family="Times,serif" font-size="14.00">retry</text>
<polyline fill="none" stroke="black" points="160.5,-118.5 243.5,-118.5 "/>
<text text-anchor="middle" x="184" y="-103.3" font-family="Times,serif" font-size="14.00">max?</text>
<polyline fill="none" stroke="black" points="207.5,-95.5 207.5,-118.5 "/>
<text text-anchor="middle" x="225.5" y="-103.3" font-family="Times,serif" font-size="14.00">ok?</text>
<polyline fill="none" stroke="black" points="243.5,-95.5 243.5,-141.5 "/>
<text text-anchor="middle" x="274.5" y="-114.8" font-family="Times,serif" font-size="14.00">abandon</text>
<polyline fill="none" stroke="black" points="305.5,-95.5 305.5,-141.5 "/>
<text text-anchor="middle" x="332.5" y="-114.8" font-family="Times,serif" font-size="14.00">deliver</text>
</g>
<!-- v_b_hdrs&#45;&gt;v_b_e -->
<g id="edge7" class="edge"><title>v_b_hdrs&#45;&gt;v_b_e</title>
<path fill="none" stroke="black" d="M329.617,-400.706C317.999,-359.535 295.09,-278.35 278.724,-220.355"/>
<polygon fill="black" stroke="black" points="282.038,-219.209 275.953,-210.535 275.301,-221.11 282.038,-219.209"/>
</g>
<!-- v_b_r&#45;&gt;v_b_e -->
<g id="edge9" class="edge"><title>v_b_r:max&#45;&gt;v_b_e</title>
<path fill="none" stroke="black" d="M342,-260C316.941,-260 298.454,-241.238 285.443,-219.501"/>
<polygon fill="black" stroke="black" points="288.476,-217.753 280.549,-210.724 282.363,-221.162 288.476,-217.753"/>
</g>
<!-- v_b_r_retry -->
<g id="node8" class="node"><title>v_b_r_retry</title>
<text text-anchor="middle" x="408" y="-149.3" font-family="Times,serif" font-size="14.00">RETRY</text>
</g>
<!-- v_b_r&#45;&gt;v_b_r_retry -->
<g id="edge8" class="edge"><title>v_b_r:retry&#45;&gt;v_b_r_retry</title>
<path fill="none" stroke="purple" d="M408,-248C408,-225.627 408,-200.259 408,-181.52"/>
<polygon fill="purple" stroke="purple" points="411.5,-181.325 408,-171.325 404.5,-181.325 411.5,-181.325"/>
</g>
<!-- vbf_stp_condfetch -->
<g id="node9" class="node"><title>vbf_stp_condfetch</title>
<polygon fill="none" stroke="grey" points="456.5,-107 456.5,-199 577.5,-199 577.5,-107 456.5,-107"/>
<text text-anchor="middle" x="517" y="-183.8" font-family="Times,serif" font-size="14.00" fill="grey">vbf_stp_condfetch:</text>
<polyline fill="none" stroke="grey" points="456.5,-176 577.5,-176 "/>
<text text-anchor="middle" x="517" y="-160.8" font-family="Times,serif" font-size="14.00" fill="grey">copy obj attr</text>
<polyline fill="none" stroke="grey" points="456.5,-153 577.5,-153 "/>
<text text-anchor="middle" x="517" y="-137.8" font-family="Times,serif" font-size="14.00" fill="grey">steal body</text>
<polyline fill="none" stroke="grey" points="456.5,-130 577.5,-130 "/>
<text text-anchor="middle" x="496" y="-114.8" font-family="Times,serif" font-size="14.00" fill="grey">fetch_fail?</text>
<polyline fill="none" stroke="grey" points="535.5,-107 535.5,-130 "/>
<text text-anchor="middle" x="556.5" y="-114.8" font-family="Times,serif" font-size="14.00" fill="grey">ok?</text>
</g>
<!-- v_b_r&#45;&gt;vbf_stp_condfetch -->
<g id="edge10" class="edge"><title>v_b_r:fetch_304:s&#45;&gt;vbf_stp_condfetch</title>
<path fill="none" stroke="black" d="M510,-248C510,-235.475 510.626,-222.036 511.503,-209.351"/>
<polygon fill="black" stroke="black" points="514.994,-209.604 512.253,-199.37 508.013,-209.08 514.994,-209.604"/>
</g>
<!-- vbf_stp_fetch -->
<g id="node10" class="node"><title>vbf_stp_fetch</title>
<polygon fill="none" stroke="grey" points="595.5,-107 595.5,-199 754.5,-199 754.5,-107 595.5,-107"/>
<text text-anchor="middle" x="675" y="-183.8" font-family="Times,serif" font-size="14.00" fill="grey">vbf_stp_fetch:</text>
<polyline fill="none" stroke="grey" points="595.5,-176 754.5,-176 "/>
<text text-anchor="middle" x="675" y="-160.8" font-family="Times,serif" font-size="14.00" fill="grey">setup VFPs</text>
<polyline fill="none" stroke="grey" points="595.5,-153 754.5,-153 "/>
<text text-anchor="middle" x="675" y="-137.8" font-family="Times,serif" font-size="14.00" fill="grey">fetch</text>
<polyline fill="none" stroke="grey" points="595.5,-130 754.5,-130 "/>
<text text-anchor="middle" x="632.5" y="-114.8" font-family="Times,serif" font-size="14.00" fill="grey">fetch_fail?</text>
<polyline fill="none" stroke="grey" points="669.5,-107 669.5,-130 "/>
<text text-anchor="middle" x="694" y="-114.8" font-family="Times,serif" font-size="14.00" fill="grey">error?</text>
<polyline fill="none" stroke="grey" points="718.5,-107 718.5,-130 "/>
<text text-anchor="middle" x="736.5" y="-114.8" font-family="Times,serif" font-size="14.00" fill="grey">ok?</text>
</g>
<!-- v_b_r&#45;&gt;vbf_stp_fetch -->
<g id="edge11" class="edge"><title>v_b_r:non_304:s&#45;&gt;vbf_stp_fetch</title>
<path fill="none" stroke="black" d="M556,-248C556,-240.963 576.756,-223.409 600.93,-205.349"/>
<polygon fill="black" stroke="black" points="603.268,-207.974 609.235,-199.219 599.111,-202.342 603.268,-207.974"/>
</g>
<!-- FETCH_DONE -->
<g id="node11" class="node"><title>FETCH_DONE</title>
<polygon fill="turquoise" stroke="turquoise" points="609,-44 505,-44 505,-8 609,-8 609,-44"/>
<text text-anchor="middle" x="557" y="-22.3" font-family="Times,serif" font-size="14.00">FETCH_DONE</text>
</g>
<!-- v_b_e&#45;&gt;FETCH_DONE -->
<g id="edge15" class="edge"><title>v_b_e:deliver&#45;&gt;FETCH_DONE</title>
<path fill="none" stroke="black" d="M361,-118C371.823,-118 361.394,-102.7 369,-95 402.574,-61.0096 454.397,-43.9123 495.137,-35.3685"/>
<polygon fill="black" stroke="black" points="495.84,-38.7973 504.972,-33.4249 494.483,-31.9301 495.84,-38.7973"/>
<text text-anchor="middle" x="457.5" y="-65.8" font-family="Times,serif" font-size="14.00">&quot;backend synth&quot;</text>
</g>
<!-- FETCH_FAIL -->
<g id="node13" class="node"><title>FETCH_FAIL</title>
<polygon fill="turquoise" stroke="turquoise" points="159,-44 63,-44 63,-8 159,-8 159,-44"/>
<text text-anchor="middle" x="111" y="-22.3" font-family="Times,serif" font-size="14.00">FETCH_FAIL</text>
</g>
<!-- v_b_e&#45;&gt;FETCH_FAIL -->
<g id="edge17" class="edge"><title>v_b_e:max:s&#45;&gt;FETCH_FAIL</title>
<path fill="none" stroke="black" d="M184,-95C184,-76.148 170.804,-61.0342 155.633,-49.8878"/>
<polygon fill="black" stroke="black" points="157.318,-46.8026 147.072,-44.105 153.399,-52.6031 157.318,-46.8026"/>
</g>
<!-- v_b_e_retry -->
<g id="node14" class="node"><title>v_b_e_retry</title>
<text text-anchor="middle" x="225" y="-22.3" font-family="Times,serif" font-size="14.00">RETRY</text>
</g>
<!-- v_b_e&#45;&gt;v_b_e_retry -->
<g id="edge16" class="edge"><title>v_b_e:retry&#45;&gt;v_b_e_retry</title>
<path fill="none" stroke="purple" d="M225,-95C225,-81.5776 225,-66.665 225,-54.2333"/>
<polygon fill="purple" stroke="purple" points="228.5,-54.0469 225,-44.0469 221.5,-54.0469 228.5,-54.0469"/>
</g>
<!-- vbf_stp_condfetch&#45;&gt;FETCH_DONE -->
<g id="edge13" class="edge"><title>vbf_stp_condfetch:ok:s&#45;&gt;FETCH_DONE</title>
<path fill="none" stroke="black" d="M557,-106C557,-88.8934 557,-69.7032 557,-54.5204"/>
<polygon fill="black" stroke="black" points="560.5,-54.2602 557,-44.2603 553.5,-54.2603 560.5,-54.2602"/>
</g>
<!-- vbf_stp_fetch&#45;&gt;FETCH_DONE -->
<g id="edge12" class="edge"><title>vbf_stp_fetch:ok:s&#45;&gt;FETCH_DONE</title>
<path fill="none" stroke="black" d="M737,-106C737,-53.2094 671.279,-35.3719 619.261,-29.5215"/>
<polygon fill="black" stroke="black" points="619.361,-26.0142 609.063,-28.5044 618.667,-32.9797 619.361,-26.0142"/>
</g>
<!-- error -->
<g id="node12" class="node"><title>error</title>
<text text-anchor="middle" x="35" y="-149.3" font-family="Times,serif" font-size="14.00">error</text>
</g>
<!-- error&#45;&gt;FETCH_FAIL -->
<g id="edge14" class="edge"><title>error&#45;&gt;FETCH_FAIL</title>
<path fill="none" stroke="black" d="M45.4081,-134.881C58.2412,-113.774 80.1833,-77.6853 95.124,-53.1119"/>
<polygon fill="black" stroke="black" points="98.2691,-54.6759 100.474,-44.313 92.2879,-51.0393 98.2691,-54.6759"/>
</g>
<!-- abandon -->
<g id="node15" class="node"><title>abandon</title>
<text text-anchor="middle" x="111" y="-149.3" font-family="Times,serif" font-size="14.00">abandon</text>
</g>
<!-- abandon&#45;&gt;FETCH_FAIL -->
<g id="edge18" class="edge"><title>abandon&#45;&gt;FETCH_FAIL</title>
<path fill="none" stroke="black" d="M111,-134.881C111,-114.146 111,-78.9525 111,-54.4215"/>
<polygon fill="black" stroke="black" points="114.5,-54.313 111,-44.313 107.5,-54.313 114.5,-54.313"/>
</g>
</g>
</svg>
